<ttFont>
    <TTGlyph name=".notdef" xMin="186" yMin="0" xMax="1448" yMax="1540">
      <contour>
        <pt x="186" y="1540" on="1"/>
        <pt x="1448" y="1540" on="1"/>
        <pt x="1448" y="0" on="1"/>
        <pt x="186" y="0" on="1"/>
      </contour>
      <contour>
        <pt x="476" y="279" on="1"/>
        <pt x="816" y="672" on="1"/>
        <pt x="1156" y="279" on="1"/>
        <pt x="1261" y="376" on="1"/>
        <pt x="1261" y="376" on="0"/>
        <pt x="902" y="767" on="1"/>
        <pt x="1261" y="1159" on="1"/>
        <pt x="1156" y="1257" on="1"/>
        <pt x="816" y="864" on="1"/>
        <pt x="476" y="1257" on="1"/>
        <pt x="372" y="1159" on="1"/>
        <pt x="731" y="767" on="1"/>
        <pt x="423" y="435" on="0"/>
        <pt x="372" y="376" on="1"/>
      </contour>
    </TTGlyph>
    <TTGlyph name="A" xMin="44" yMin="0" xMax="1492" yMax="1554">
      <contour>
        <pt x="657" y="1554" on="1"/>
        <pt x="879" y="1554" on="1"/>
        <pt x="1492" y="0" on="1"/>
        <pt x="1294" y="0" on="1"/>
        <pt x="1133" y="431" on="1"/>
        <pt x="402" y="431" on="1"/>
        <pt x="243" y="0" on="1"/>
        <pt x="44" y="0" on="1"/>
      </contour>
      <contour>
        <pt x="1075" y="574" on="1"/>
        <pt x="916" y="992" on="1"/>
        <pt x="882" y="1083" on="0"/>
        <pt x="859" y="1150" on="1"/>
        <pt x="815" y="1284" on="1"/>
        <pt x="794" y="1351" on="0"/>
        <pt x="768" y="1426" on="1"/>
        <pt x="745" y="1360" on="0"/>
        <pt x="724" y="1293" on="1"/>
        <pt x="724" y="1293" on="0"/>
        <pt x="678" y="1151" on="1"/>
        <pt x="678" y="1151" on="0"/>
        <pt x="461" y="574" on="1"/>
      </contour>
    </TTGlyph>
    <TTGlyph name="AE" xMin="63" yMin="0" xMax="1984" yMax="1554">
      <contour>
        <pt x="677" y="1554" on="1"/>
        <pt x="1965" y="1554" on="1"/>
        <pt x="1956" y="1394" on="1"/>
        <pt x="961" y="1394" on="1"/>
        <pt x="1165" y="874" on="1"/>
        <pt x="1870" y="874" on="1"/>
        <pt x="1870" y="716" on="1"/>
        <pt x="1225" y="716" on="1"/>
        <pt x="1452" y="159" on="1"/>
        <pt x="1975" y="159" on="1"/>
        <pt x="1984" y="0" on="1"/>
        <pt x="1313" y="0" on="1"/>
        <pt x="1154" y="431" on="1"/>
        <pt x="421" y="431" on="1"/>
        <pt x="262" y="0" on="1"/>
        <pt x="63" y="0" on="1"/>
      </contour>
      <contour>
        <pt x="1092" y="574" on="1"/>
        <pt x="934" y="992" on="1"/>
        <pt x="899" y="1083" on="0"/>
        <pt x="876" y="1150" on="1"/>
        <pt x="832" y="1284" on="1"/>
        <pt x="811" y="1351" on="0"/>
        <pt x="785" y="1426" on="1"/>
        <pt x="762" y="1360" on="0"/>
        <pt x="741" y="1293" on="1"/>
        <pt x="741" y="1293" on="0"/>
        <pt x="695" y="1151" on="1"/>
        <pt x="695" y="1151" on="0"/>
        <pt x="478" y="574" on="1"/>
      </contour>
    </TTGlyph>
    <TTGlyph name="AEacute" xMin="63" yMin="0" xMax="1984" yMax="2020">
      <contour>
        <pt x="677" y="1554" on="1"/>
        <pt x="1965" y="1554" on="1"/>
        <pt x="1956" y="1394" on="1"/>
        <pt x="961" y="1394" on="1"/>
        <pt x="1165" y="874" on="1"/>
        <pt x="1870" y="874" on="1"/>
        <pt x="1870" y="716" on="1"/>
        <pt x="1225" y="716" on="1"/>
        <pt x="1452" y="159" on="1"/>
        <pt x="1975" y="159" on="1"/>
        <pt x="1984" y="0" on="1"/>
        <pt x="1313" y="0" on="1"/>
        <pt x="1154" y="431" on="1"/>
        <pt x="421" y="431" on="1"/>
        <pt x="262" y="0" on="1"/>
        <pt x="63" y="0" on="1"/>
      </contour>
      <contour>
        <pt x="1092" y="574" on="1"/>
        <pt x="934" y="992" on="1"/>
        <pt x="899" y="1083" on="0"/>
        <pt x="876" y="1150" on="1"/>
        <pt x="832" y="1284" on="1"/>
        <pt x="811" y="1351" on="0"/>
        <pt x="785" y="1426" on="1"/>
        <pt x="762" y="1360" on="0"/>
        <pt x="741" y="1293" on="1"/>
        <pt x="741" y="1293" on="0"/>
        <pt x="695" y="1151" on="1"/>
        <pt x="695" y="1151" on="0"/>
        <pt x="478" y="574" on="1"/>
      </contour>
      <contour>
        <pt x="1210" y="1615" on="1"/>
        <pt x="1117" y="1717" on="1"/>
        <pt x="1437" y="2020" on="1"/>
        <pt x="1550" y="1897" on="1"/>
      </contour>
    </TTGlyph>
    <TTGlyph name="Aacute" xMin="44" yMin="0" xMax="1492" yMax="2020">
      <contour>
        <pt x="657" y="1554" on="1"/>
        <pt x="879" y="1554" on="1"/>
        <pt x="1492" y="0" on="1"/>
        <pt x="1294" y="0" on="1"/>
        <pt x="1133" y="431" on="1"/>
        <pt x="402" y="431" on="1"/>
        <pt x="243" y="0" on="1"/>
        <pt x="44" y="0" on="1"/>
      </contour>
      <contour>
        <pt x="1075" y="574" on="1"/>
        <pt x="916" y="992" on="1"/>
        <pt x="882" y="1083" on="0"/>
        <pt x="859" y="1150" on="1"/>
        <pt x="815" y="1284" on="1"/>
        <pt x="794" y="1351" on="0"/>
        <pt x="768" y="1426" on="1"/>
        <pt x="745" y="1360" on="0"/>
        <pt x="724" y="1293" on="1"/>
        <pt x="724" y="1293" on="0"/>
        <pt x="678" y="1151" on="1"/>
        <pt x="678" y="1151" on="0"/>
        <pt x="461" y="574" on="1"/>
      </contour>
      <contour>
        <pt x="788" y="1615" on="1"/>
        <pt x="695" y="1717" on="1"/>
        <pt x="1015" y="2020" on="1"/>
        <pt x="1128" y="1897" on="1"/>
      </contour>
    </TTGlyph>
    <TTGlyph name="Abreve" xMin="44" yMin="0" xMax="1492" yMax="1978">
      <contour>
        <pt x="657" y="1554" on="1"/>
        <pt x="879" y="1554" on="1"/>
        <pt x="1492" y="0" on="1"/>
        <pt x="1294" y="0" on="1"/>
        <pt x="1133" y="431" on="1"/>
        <pt x="402" y="431" on="1"/>
        <pt x="243" y="0" on="1"/>
        <pt x="44" y="0" on="1"/>
      </contour>
      <contour>
        <pt x="1075" y="574" on="1"/>
        <pt x="916" y="992" on="1"/>
        <pt x="882" y="1083" on="0"/>
        <pt x="859" y="1150" on="1"/>
        <pt x="815" y="1284" on="1"/>
        <pt x="794" y="1351" on="0"/>
        <pt x="768" y="1426" on="1"/>
        <pt x="745" y="1360" on="0"/>
        <pt x="724" y="1293" on="1"/>
        <pt x="724" y="1293" on="0"/>
        <pt x="678" y="1151" on="1"/>
        <pt x="678" y="1151" on="0"/>
        <pt x="461" y="574" on="1"/>
      </contour>
      <contour>
        <pt x="769" y="1700" on="1"/>
        <pt x="572" y="1700" on="0"/>
        <pt x="489" y="1838" on="1"/>
        <pt x="462" y="1882" on="0"/>
        <pt x="452" y="1938" on="1"/>
        <pt x="584" y="1978" on="1"/>
        <pt x="595" y="1911" on="0"/>
        <pt x="654" y="1870" on="1"/>
        <pt x="706" y="1834" on="0"/>
        <pt x="797" y="1834" on="0"/>
        <pt x="858" y="1852" on="0"/>
        <pt x="884" y="1870" on="1"/>
        <pt x="944" y="1911" on="0"/>
        <pt x="955" y="1978" on="1"/>
        <pt x="1086" y="1938" on="1"/>
        <pt x="1068" y="1827" on="0"/>
        <pt x="980" y="1762" on="1"/>
        <pt x="895" y="1700" on="0"/>
      </contour>
    </TTGlyph>
    <TTGlyph name="Acircumflex" xMin="44" yMin="0" xMax="1492" yMax="1940">
      <contour>
        <pt x="657" y="1554" on="1"/>
        <pt x="879" y="1554" on="1"/>
        <pt x="1492" y="0" on="1"/>
        <pt x="1294" y="0" on="1"/>
        <pt x="1133" y="431" on="1"/>
        <pt x="402" y="431" on="1"/>
        <pt x="243" y="0" on="1"/>
        <pt x="44" y="0" on="1"/>
      </contour>
      <contour>
        <pt x="1075" y="574" on="1"/>
        <pt x="916" y="992" on="1"/>
        <pt x="882" y="1083" on="0"/>
        <pt x="859" y="1150" on="1"/>
        <pt x="815" y="1284" on="1"/>
        <pt x="794" y="1351" on="0"/>
        <pt x="768" y="1426" on="1"/>
        <pt x="745" y="1360" on="0"/>
        <pt x="724" y="1293" on="1"/>
        <pt x="724" y="1293" on="0"/>
        <pt x="678" y="1151" on="1"/>
        <pt x="678" y="1151" on="0"/>
        <pt x="461" y="574" on="1"/>
      </contour>
      <contour>
        <pt x="464" y="1615" on="1"/>
        <pt x="407" y="1728" on="1"/>
        <pt x="770" y="1940" on="1"/>
        <pt x="1133" y="1728" on="1"/>
        <pt x="1076" y="1615" on="1"/>
        <pt x="770" y="1776" on="1"/>
      </contour>
    </TTGlyph>
    <TTGlyph name="Adieresis" xMin="44" yMin="0" xMax="1492" yMax="1926">
      <contour>
        <pt x="657" y="1554" on="1"/>
        <pt x="879" y="1554" on="1"/>
        <pt x="1492" y="0" on="1"/>
        <pt x="1294" y="0" on="1"/>
        <pt x="1133" y="431" on="1"/>
        <pt x="402" y="431" on="1"/>
        <pt x="243" y="0" on="1"/>
        <pt x="44" y="0" on="1"/>
      </contour>
      <contour>
        <pt x="1075" y="574" on="1"/>
        <pt x="916" y="992" on="1"/>
        <pt x="882" y="1083" on="0"/>
        <pt x="859" y="1150" on="1"/>
        <pt x="815" y="1284" on="1"/>
        <pt x="794" y="1351" on="0"/>
        <pt x="768" y="1426" on="1"/>
        <pt x="745" y="1360" on="0"/>
        <pt x="724" y="1293" on="1"/>
        <pt x="724" y="1293" on="0"/>
        <pt x="678" y="1151" on="1"/>
        <pt x="678" y="1151" on="0"/>
        <pt x="461" y="574" on="1"/>
      </contour>
      <contour>
        <pt x="874" y="1926" on="1"/>
        <pt x="1051" y="1926" on="1"/>
        <pt x="1051" y="1698" on="1"/>
        <pt x="874" y="1698" on="1"/>
      </contour>
      <contour>
        <pt x="487" y="1926" on="1"/>
        <pt x="663" y="1926" on="1"/>
        <pt x="663" y="1698" on="1"/>
        <pt x="487" y="1698" on="1"/>
      </contour>
    </TTGlyph>
    <TTGlyph name="Agrave" xMin="44" yMin="0" xMax="1492" yMax="2020">
      <contour>
        <pt x="657" y="1554" on="1"/>
        <pt x="879" y="1554" on="1"/>
        <pt x="1492" y="0" on="1"/>
        <pt x="1294" y="0" on="1"/>
        <pt x="1133" y="431" on="1"/>
        <pt x="402" y="431" on="1"/>
        <pt x="243" y="0" on="1"/>
        <pt x="44" y="0" on="1"/>
      </contour>
      <contour>
        <pt x="1075" y="574" on="1"/>
        <pt x="916" y="992" on="1"/>
        <pt x="882" y="1083" on="0"/>
        <pt x="859" y="1150" on="1"/>
        <pt x="815" y="1284" on="1"/>
        <pt x="794" y="1351" on="0"/>
        <pt x="768" y="1426" on="1"/>
        <pt x="745" y="1360" on="0"/>
        <pt x="724" y="1293" on="1"/>
        <pt x="724" y="1293" on="0"/>
        <pt x="678" y="1151" on="1"/>
        <pt x="678" y="1151" on="0"/>
        <pt x="461" y="574" on="1"/>
      </contour>
      <contour>
        <pt x="788" y="1615" on="1"/>
        <pt x="448" y="1897" on="1"/>
        <pt x="561" y="2020" on="1"/>
        <pt x="881" y="1717" on="1"/>
      </contour>
    </TTGlyph>
    <TTGlyph name="Amacron" xMin="44" yMin="0" xMax="1492" yMax="1859">
      <contour>
        <pt x="657" y="1554" on="1"/>
        <pt x="879" y="1554" on="1"/>
        <pt x="1492" y="0" on="1"/>
        <pt x="1294" y="0" on="1"/>
        <pt x="1133" y="431" on="1"/>
        <pt x="402" y="431" on="1"/>
        <pt x="243" y="0" on="1"/>
        <pt x="44" y="0" on="1"/>
      </contour>
      <contour>
        <pt x="1075" y="574" on="1"/>
        <pt x="916" y="992" on="1"/>
        <pt x="882" y="1083" on="0"/>
        <pt x="859" y="1150" on="1"/>
        <pt x="815" y="1284" on="1"/>
        <pt x="794" y="1351" on="0"/>
        <pt x="768" y="1426" on="1"/>
        <pt x="745" y="1360" on="0"/>
        <pt x="724" y="1293" on="1"/>
        <pt x="724" y="1293" on="0"/>
        <pt x="678" y="1151" on="1"/>
        <pt x="678" y="1151" on="0"/>
        <pt x="461" y="574" on="1"/>
      </contour>
      <contour>
        <pt x="453" y="1859" on="1"/>
        <pt x="1085" y="1859" on="1"/>
        <pt x="1085" y="1722" on="1"/>
        <pt x="453" y="1722" on="1"/>
      </contour>
    </TTGlyph>
    <TTGlyph name="Aogonek" xMin="44" yMin="-477" xMax="1493" yMax="1554">
      <contour>
        <pt x="1493" y="-440" on="1"/>
        <pt x="1412" y="-477" on="0"/>
        <pt x="1285" y="-477" on="0"/>
        <pt x="1209" y="-451" on="0"/>
        <pt x="1182" y="-426" on="1"/>
        <pt x="1123" y="-373" on="0"/>
        <pt x="1123" y="-280" on="1"/>
        <pt x="1123" y="-204" on="0"/>
        <pt x="1176" y="-112" on="1"/>
        <pt x="1225" y="-24" on="0"/>
        <pt x="1287" y="19" on="1"/>
        <pt x="1133" y="431" on="1"/>
        <pt x="402" y="431" on="1"/>
        <pt x="243" y="0" on="1"/>
        <pt x="44" y="0" on="1"/>
        <pt x="657" y="1554" on="1"/>
        <pt x="879" y="1554" on="1"/>
        <pt x="1492" y="0" on="1"/>
        <pt x="1400" y="0" on="1"/>
        <pt x="1296" y="-97" on="0"/>
        <pt x="1278" y="-197" on="1"/>
        <pt x="1263" y="-333" on="0"/>
        <pt x="1382" y="-333" on="1"/>
        <pt x="1430" y="-333" on="0"/>
        <pt x="1468" y="-322" on="1"/>
      </contour>
      <contour>
        <pt x="1075" y="574" on="1"/>
        <pt x="916" y="992" on="1"/>
        <pt x="882" y="1083" on="0"/>
        <pt x="859" y="1150" on="1"/>
        <pt x="815" y="1284" on="1"/>
        <pt x="794" y="1351" on="0"/>
        <pt x="768" y="1426" on="1"/>
        <pt x="745" y="1360" on="0"/>
        <pt x="724" y="1293" on="1"/>
        <pt x="678" y="1151" on="1"/>
        <pt x="461" y="574" on="1"/>
      </contour>
    </TTGlyph>
    <TTGlyph name="Aring" xMin="44" yMin="0" xMax="1492" yMax="2020">
      <contour>
        <pt x="657" y="1554" on="1"/>
        <pt x="879" y="1554" on="1"/>
        <pt x="1492" y="0" on="1"/>
        <pt x="1294" y="0" on="1"/>
        <pt x="1133" y="431" on="1"/>
        <pt x="402" y="431" on="1"/>
        <pt x="243" y="0" on="1"/>
        <pt x="44" y="0" on="1"/>
      </contour>
      <contour>
        <pt x="1075" y="574" on="1"/>
        <pt x="916" y="992" on="1"/>
        <pt x="882" y="1083" on="0"/>
        <pt x="859" y="1150" on="1"/>
        <pt x="815" y="1284" on="1"/>
        <pt x="794" y="1351" on="0"/>
        <pt x="768" y="1426" on="1"/>
        <pt x="745" y="1360" on="0"/>
        <pt x="724" y="1293" on="1"/>
        <pt x="724" y="1293" on="0"/>
        <pt x="678" y="1151" on="1"/>
        <pt x="678" y="1151" on="0"/>
        <pt x="461" y="574" on="1"/>
      </contour>
      <contour>
        <pt x="767" y="1589" on="1"/>
        <pt x="665" y="1589" on="0"/>
        <pt x="598" y="1644" on="1"/>
        <pt x="526" y="1703" on="0"/>
        <pt x="526" y="1801" on="1"/>
        <pt x="526" y="1901" on="0"/>
        <pt x="598" y="1962" on="1"/>
        <pt x="666" y="2020" on="0"/>
        <pt x="767" y="2020" on="1"/>
        <pt x="868" y="2020" on="0"/>
        <pt x="936" y="1962" on="1"/>
        <pt x="1008" y="1901" on="0"/>
        <pt x="1008" y="1801" on="1"/>
        <pt x="1008" y="1703" on="0"/>
        <pt x="936" y="1644" on="1"/>
        <pt x="869" y="1589" on="0"/>
      </contour>
      <contour>
        <pt x="767" y="1682" on="1"/>
        <pt x="818" y="1682" on="0"/>
        <pt x="886" y="1739" on="0"/>
        <pt x="886" y="1801" on="1"/>
        <pt x="886" y="1863" on="0"/>
        <pt x="818" y="1927" on="0"/>
        <pt x="767" y="1927" on="1"/>
        <pt x="716" y="1927" on="0"/>
        <pt x="650" y="1863" on="0"/>
        <pt x="650" y="1801" on="1"/>
        <pt x="650" y="1739" on="0"/>
        <pt x="716" y="1682" on="0"/>
      </contour>
    </TTGlyph>
    <TTGlyph name="Atilde" xMin="44" yMin="0" xMax="1492" yMax="1958">
      <contour>
        <pt x="657" y="1554" on="1"/>
        <pt x="879" y="1554" on="1"/>
        <pt x="1492" y="0" on="1"/>
        <pt x="1294" y="0" on="1"/>
        <pt x="1133" y="431" on="1"/>
        <pt x="402" y="431" on="1"/>
        <pt x="243" y="0" on="1"/>
        <pt x="44" y="0" on="1"/>
      </contour>
      <contour>
        <pt x="1075" y="574" on="1"/>
        <pt x="916" y="992" on="1"/>
        <pt x="882" y="1083" on="0"/>
        <pt x="859" y="1150" on="1"/>
        <pt x="815" y="1284" on="1"/>
        <pt x="794" y="1351" on="0"/>
        <pt x="768" y="1426" on="1"/>
        <pt x="745" y="1360" on="0"/>
        <pt x="724" y="1293" on="1"/>
        <pt x="724" y="1293" on="0"/>
        <pt x="678" y="1151" on="1"/>
        <pt x="678" y="1151" on="0"/>
        <pt x="461" y="574" on="1"/>
      </contour>
      <contour>
        <pt x="408" y="1769" on="1"/>
        <pt x="443" y="1849" on="0"/>
        <pt x="557" y="1947" on="0"/>
        <pt x="664" y="1958" on="0"/>
        <pt x="740" y="1926" on="0"/>
        <pt x="775" y="1904" on="1"/>
        <pt x="775" y="1904" on="0"/>
        <pt x="843" y="1864" on="1"/>
        <pt x="956" y="1796" on="0"/>
        <pt x="1026" y="1939" on="1"/>
        <pt x="1130" y="1878" on="1"/>
        <pt x="1095" y="1797" on="0"/>
        <pt x="1038" y="1750" on="1"/>
        <pt x="921" y="1652" on="0"/>
        <pt x="762" y="1755" on="1"/>
        <pt x="673" y="1813" on="0"/>
        <pt x="637" y="1813" on="1"/>
        <pt x="563" y="1813" on="0"/>
        <pt x="512" y="1709" on="1"/>
      </contour>
    </TTGlyph>
    <TTGlyph name="B" xMin="197" yMin="-4" xMax="1242" yMax="1555">
      <contour>
        <pt x="197" y="1555" on="1"/>
        <pt x="582" y="1555" on="1"/>
        <pt x="854" y="1555" on="0"/>
        <pt x="984" y="1474" on="1"/>
        <pt x="1135" y="1380" on="0"/>
        <pt x="1141" y="1160" on="1"/>
        <pt x="1144" y="957" on="0"/>
        <pt x="1004" y="860" on="1"/>
        <pt x="961" y="830" on="0"/>
        <pt x="911" y="814" on="1"/>
        <pt x="1039" y="809" on="0"/>
        <pt x="1132" y="722" on="1"/>
        <pt x="1242" y="618" on="0"/>
        <pt x="1236" y="439" on="1"/>
        <pt x="1230" y="206" on="0"/>
        <pt x="1082" y="100" on="1"/>
        <pt x="934" y="-4" on="0"/>
        <pt x="624" y="0" on="1"/>
        <pt x="197" y="0" on="1"/>
      </contour>
      <contour>
        <pt x="628" y="862" on="1"/>
        <pt x="972" y="853" on="0"/>
        <pt x="961" y="1160" on="1"/>
        <pt x="958" y="1360" on="0"/>
        <pt x="744" y="1396" on="1"/>
        <pt x="673" y="1407" on="0"/>
        <pt x="582" y="1407" on="1"/>
        <pt x="368" y="1407" on="1"/>
        <pt x="368" y="862" on="1"/>
      </contour>
      <contour>
        <pt x="624" y="150" on="1"/>
        <pt x="831" y="146" on="0"/>
        <pt x="934" y="202" on="1"/>
        <pt x="1052" y="267" on="0"/>
        <pt x="1056" y="419" on="1"/>
        <pt x="1061" y="622" on="0"/>
        <pt x="922" y="682" on="1"/>
        <pt x="846" y="714" on="0"/>
        <pt x="663" y="719" on="0"/>
        <pt x="604" y="719" on="1"/>
        <pt x="368" y="719" on="1"/>
        <pt x="368" y="150" on="1"/>
      </contour>
    </TTGlyph>
    <TTGlyph name="C" xMin="115" yMin="-20" xMax="1333" yMax="1568">
      <contour>
        <pt x="854" y="-20" on="1"/>
        <pt x="115" y="-20" on="0"/>
        <pt x="115" y="774" on="1"/>
        <pt x="115" y="1419" on="0"/>
        <pt x="611" y="1542" on="1"/>
        <pt x="718" y="1568" on="0"/>
        <pt x="838" y="1568" on="1"/>
        <pt x="1069" y="1568" on="0"/>
        <pt x="1294" y="1477" on="1"/>
        <pt x="1241" y="1329" on="1"/>
        <pt x="1033" y="1411" on="0"/>
        <pt x="717" y="1411" on="0"/>
        <pt x="512" y="1348" on="0"/>
        <pt x="439" y="1269" on="1"/>
        <pt x="300" y="1119" on="0"/>
        <pt x="294" y="774" on="1"/>
        <pt x="300" y="456" on="0"/>
        <pt x="428" y="302" on="1"/>
        <pt x="566" y="139" on="0"/>
        <pt x="857" y="139" on="1"/>
        <pt x="1057" y="139" on="0"/>
        <pt x="1280" y="232" on="1"/>
        <pt x="1333" y="81" on="1"/>
        <pt x="1097" y="-20" on="0"/>
      </contour>
    </TTGlyph>
    <TTGlyph name="Cacute" xMin="115" yMin="-20" xMax="1333" yMax="2020">
      <contour>
        <pt x="854" y="-20" on="1"/>
        <pt x="115" y="-20" on="0"/>
        <pt x="115" y="774" on="1"/>
        <pt x="115" y="1419" on="0"/>
        <pt x="611" y="1542" on="1"/>
        <pt x="718" y="1568" on="0"/>
        <pt x="838" y="1568" on="1"/>
        <pt x="1069" y="1568" on="0"/>
        <pt x="1294" y="1477" on="1"/>
        <pt x="1241" y="1329" on="1"/>
        <pt x="1033" y="1411" on="0"/>
        <pt x="717" y="1411" on="0"/>
        <pt x="512" y="1348" on="0"/>
        <pt x="439" y="1269" on="1"/>
        <pt x="300" y="1119" on="0"/>
        <pt x="294" y="774" on="1"/>
        <pt x="300" y="456" on="0"/>
        <pt x="428" y="302" on="1"/>
        <pt x="566" y="139" on="0"/>
        <pt x="857" y="139" on="1"/>
        <pt x="1057" y="139" on="0"/>
        <pt x="1280" y="232" on="1"/>
        <pt x="1333" y="81" on="1"/>
        <pt x="1097" y="-20" on="0"/>
      </contour>
      <contour>
        <pt x="874" y="1615" on="1"/>
        <pt x="781" y="1717" on="1"/>
        <pt x="1101" y="2020" on="1"/>
        <pt x="1214" y="1897" on="1"/>
      </contour>
    </TTGlyph>
    <TTGlyph name="Ccaron" xMin="115" yMin="-20" xMax="1333" yMax="1940">
      <contour>
        <pt x="854" y="-20" on="1"/>
        <pt x="115" y="-20" on="0"/>
        <pt x="115" y="774" on="1"/>
        <pt x="115" y="1419" on="0"/>
        <pt x="611" y="1542" on="1"/>
        <pt x="718" y="1568" on="0"/>
        <pt x="838" y="1568" on="1"/>
        <pt x="1069" y="1568" on="0"/>
        <pt x="1294" y="1477" on="1"/>
        <pt x="1241" y="1329" on="1"/>
        <pt x="1033" y="1411" on="0"/>
        <pt x="717" y="1411" on="0"/>
        <pt x="512" y="1348" on="0"/>
        <pt x="439" y="1269" on="1"/>
        <pt x="300" y="1119" on="0"/>
        <pt x="294" y="774" on="1"/>
        <pt x="300" y="456" on="0"/>
        <pt x="428" y="302" on="1"/>
        <pt x="566" y="139" on="0"/>
        <pt x="857" y="139" on="1"/>
        <pt x="1057" y="139" on="0"/>
        <pt x="1280" y="232" on="1"/>
        <pt x="1333" y="81" on="1"/>
        <pt x="1097" y="-20" on="0"/>
      </contour>
      <contour>
        <pt x="854" y="1615" on="1"/>
        <pt x="491" y="1827" on="1"/>
        <pt x="548" y="1940" on="1"/>
        <pt x="854" y="1779" on="1"/>
        <pt x="1160" y="1940" on="1"/>
        <pt x="1217" y="1827" on="1"/>
      </contour>
    </TTGlyph>
    <TTGlyph name="Ccedilla" xMin="115" yMin="-530" xMax="1333" yMax="1568">
      <contour>
        <pt x="854" y="-20" on="1"/>
        <pt x="115" y="-20" on="0"/>
        <pt x="115" y="774" on="1"/>
        <pt x="115" y="1419" on="0"/>
        <pt x="611" y="1542" on="1"/>
        <pt x="718" y="1568" on="0"/>
        <pt x="838" y="1568" on="1"/>
        <pt x="1069" y="1568" on="0"/>
        <pt x="1294" y="1477" on="1"/>
        <pt x="1241" y="1329" on="1"/>
        <pt x="1033" y="1411" on="0"/>
        <pt x="717" y="1411" on="0"/>
        <pt x="512" y="1348" on="0"/>
        <pt x="439" y="1269" on="1"/>
        <pt x="300" y="1119" on="0"/>
        <pt x="294" y="774" on="1"/>
        <pt x="300" y="456" on="0"/>
        <pt x="428" y="302" on="1"/>
        <pt x="566" y="139" on="0"/>
        <pt x="857" y="139" on="1"/>
        <pt x="1057" y="139" on="0"/>
        <pt x="1280" y="232" on="1"/>
        <pt x="1333" y="81" on="1"/>
        <pt x="1097" y="-20" on="0"/>
      </contour>
      <contour>
        <pt x="525" y="-391" on="1"/>
        <pt x="610" y="-413" on="0"/>
        <pt x="657" y="-413" on="1"/>
        <pt x="765" y="-413" on="0"/>
        <pt x="784" y="-322" on="1"/>
        <pt x="787" y="-307" on="0"/>
        <pt x="787" y="-260" on="0"/>
        <pt x="757" y="-220" on="0"/>
        <pt x="733" y="-208" on="1"/>
        <pt x="696" y="-191" on="0"/>
        <pt x="617" y="-188" on="1"/>
        <pt x="625" y="-71" on="1"/>
        <pt x="853" y="-61" on="0"/>
        <pt x="924" y="-200" on="1"/>
        <pt x="948" y="-247" on="0"/>
        <pt x="939" y="-368" on="0"/>
        <pt x="890" y="-450" on="0"/>
        <pt x="852" y="-477" on="1"/>
        <pt x="777" y="-530" on="0"/>
        <pt x="576" y="-530" on="0"/>
        <pt x="504" y="-493" on="1"/>
        <pt x="504" y="-490" on="1"/>
      </contour>
    </TTGlyph>
    <TTGlyph name="Ccircumflex" xMin="115" yMin="-20" xMax="1333" yMax="1940">
      <contour>
        <pt x="854" y="-20" on="1"/>
        <pt x="115" y="-20" on="0"/>
        <pt x="115" y="774" on="1"/>
        <pt x="115" y="1419" on="0"/>
        <pt x="611" y="1542" on="1"/>
        <pt x="718" y="1568" on="0"/>
        <pt x="838" y="1568" on="1"/>
        <pt x="1069" y="1568" on="0"/>
        <pt x="1294" y="1477" on="1"/>
        <pt x="1241" y="1329" on="1"/>
        <pt x="1033" y="1411" on="0"/>
        <pt x="717" y="1411" on="0"/>
        <pt x="512" y="1348" on="0"/>
        <pt x="439" y="1269" on="1"/>
        <pt x="300" y="1119" on="0"/>
        <pt x="294" y="774" on="1"/>
        <pt x="300" y="456" on="0"/>
        <pt x="428" y="302" on="1"/>
        <pt x="566" y="139" on="0"/>
        <pt x="857" y="139" on="1"/>
        <pt x="1057" y="139" on="0"/>
        <pt x="1280" y="232" on="1"/>
        <pt x="1333" y="81" on="1"/>
        <pt x="1097" y="-20" on="0"/>
      </contour>
      <contour>
        <pt x="550" y="1615" on="1"/>
        <pt x="493" y="1728" on="1"/>
        <pt x="856" y="1940" on="1"/>
        <pt x="1219" y="1728" on="1"/>
        <pt x="1162" y="1615" on="1"/>
        <pt x="856" y="1776" on="1"/>
      </contour>
    </TTGlyph>
    <TTGlyph name="Cdotaccent" xMin="115" yMin="-20" xMax="1333" yMax="2018">
      <contour>
        <pt x="854" y="-20" on="1"/>
        <pt x="115" y="-20" on="0"/>
        <pt x="115" y="774" on="1"/>
        <pt x="115" y="1419" on="0"/>
        <pt x="611" y="1542" on="1"/>
        <pt x="718" y="1568" on="0"/>
        <pt x="838" y="1568" on="1"/>
        <pt x="1069" y="1568" on="0"/>
        <pt x="1294" y="1477" on="1"/>
        <pt x="1241" y="1329" on="1"/>
        <pt x="1033" y="1411" on="0"/>
        <pt x="717" y="1411" on="0"/>
        <pt x="512" y="1348" on="0"/>
        <pt x="439" y="1269" on="1"/>
        <pt x="300" y="1119" on="0"/>
        <pt x="294" y="774" on="1"/>
        <pt x="300" y="456" on="0"/>
        <pt x="428" y="302" on="1"/>
        <pt x="566" y="139" on="0"/>
        <pt x="857" y="139" on="1"/>
        <pt x="1057" y="139" on="0"/>
        <pt x="1280" y="232" on="1"/>
        <pt x="1333" y="81" on="1"/>
        <pt x="1097" y="-20" on="0"/>
      </contour>
      <contour>
        <pt x="766" y="2018" on="1"/>
        <pt x="942" y="2018" on="1"/>
        <pt x="942" y="1782" on="1"/>
        <pt x="766" y="1782" on="1"/>
      </contour>
    </TTGlyph>
    <TTGlyph name="D" xMin="220" yMin="0" xMax="1431" yMax="1554">
      <contour>
        <pt x="220" y="0" on="1"/>
        <pt x="220" y="1554" on="1"/>
        <pt x="702" y="1554" on="1"/>
        <pt x="1275" y="1554" on="0"/>
        <pt x="1394" y="1099" on="1"/>
        <pt x="1431" y="955" on="0"/>
        <pt x="1431" y="776" on="1"/>
        <pt x="1431" y="735" on="1"/>
        <pt x="1431" y="384" on="0"/>
        <pt x="1240" y="193" on="1"/>
        <pt x="1047" y="0" on="0"/>
        <pt x="694" y="0" on="1"/>
      </contour>
      <contour>
        <pt x="393" y="157" on="1"/>
        <pt x="694" y="157" on="1"/>
        <pt x="965" y="157" on="0"/>
        <pt x="1111" y="316" on="1"/>
        <pt x="1252" y="469" on="0"/>
        <pt x="1252" y="735" on="1"/>
        <pt x="1252" y="776" on="1"/>
        <pt x="1246" y="1095" on="0"/>
        <pt x="1120" y="1242" on="1"/>
        <pt x="988" y="1396" on="0"/>
        <pt x="698" y="1396" on="1"/>
        <pt x="393" y="1396" on="1"/>
      </contour>
    </TTGlyph>
    <TTGlyph name="Dcaron" xMin="220" yMin="0" xMax="1431" yMax="1940">
      <contour>
        <pt x="220" y="0" on="1"/>
        <pt x="220" y="1554" on="1"/>
        <pt x="702" y="1554" on="1"/>
        <pt x="1275" y="1554" on="0"/>
        <pt x="1394" y="1099" on="1"/>
        <pt x="1431" y="955" on="0"/>
        <pt x="1431" y="776" on="1"/>
        <pt x="1431" y="735" on="1"/>
        <pt x="1431" y="384" on="0"/>
        <pt x="1240" y="193" on="1"/>
        <pt x="1047" y="0" on="0"/>
        <pt x="694" y="0" on="1"/>
      </contour>
      <contour>
        <pt x="393" y="157" on="1"/>
        <pt x="694" y="157" on="1"/>
        <pt x="965" y="157" on="0"/>
        <pt x="1111" y="316" on="1"/>
        <pt x="1252" y="469" on="0"/>
        <pt x="1252" y="735" on="1"/>
        <pt x="1252" y="776" on="1"/>
        <pt x="1246" y="1095" on="0"/>
        <pt x="1120" y="1242" on="1"/>
        <pt x="988" y="1396" on="0"/>
        <pt x="698" y="1396" on="1"/>
        <pt x="393" y="1396" on="1"/>
      </contour>
      <contour>
        <pt x="741" y="1615" on="1"/>
        <pt x="378" y="1827" on="1"/>
        <pt x="435" y="1940" on="1"/>
        <pt x="741" y="1779" on="1"/>
        <pt x="1047" y="1940" on="1"/>
        <pt x="1104" y="1827" on="1"/>
      </contour>
    </TTGlyph>
    <TTGlyph name="Dcroat" xMin="26" yMin="0" xMax="1431" yMax="1554">
      <contour>
        <pt x="220" y="0" on="1"/>
        <pt x="220" y="733" on="1"/>
        <pt x="26" y="733" on="1"/>
        <pt x="26" y="886" on="1"/>
        <pt x="220" y="886" on="1"/>
        <pt x="220" y="1554" on="1"/>
        <pt x="702" y="1554" on="1"/>
        <pt x="1275" y="1554" on="0"/>
        <pt x="1394" y="1099" on="1"/>
        <pt x="1431" y="955" on="0"/>
        <pt x="1431" y="776" on="1"/>
        <pt x="1431" y="735" on="1"/>
        <pt x="1431" y="384" on="0"/>
        <pt x="1240" y="193" on="1"/>
        <pt x="1047" y="0" on="0"/>
        <pt x="694" y="0" on="1"/>
      </contour>
      <contour>
        <pt x="393" y="157" on="1"/>
        <pt x="694" y="157" on="1"/>
        <pt x="965" y="157" on="0"/>
        <pt x="1111" y="316" on="1"/>
        <pt x="1252" y="469" on="0"/>
        <pt x="1252" y="735" on="1"/>
        <pt x="1252" y="776" on="1"/>
        <pt x="1246" y="1095" on="0"/>
        <pt x="1120" y="1242" on="1"/>
        <pt x="988" y="1396" on="0"/>
        <pt x="698" y="1396" on="1"/>
        <pt x="393" y="1396" on="1"/>
        <pt x="393" y="886" on="1"/>
        <pt x="801" y="886" on="1"/>
        <pt x="801" y="733" on="1"/>
        <pt x="393" y="733" on="1"/>
      </contour>
    </TTGlyph>
    <TTGlyph name="Delta" xMin="182" yMin="0" xMax="1353" yMax="1518">
      <contour>
        <pt x="182" y="132" on="1"/>
        <pt x="663" y="1518" on="1"/>
        <pt x="871" y="1518" on="1"/>
        <pt x="1353" y="132" on="1"/>
        <pt x="1353" y="0" on="1"/>
        <pt x="182" y="0" on="1"/>
      </contour>
      <contour>
        <pt x="1163" y="150" on="1"/>
        <pt x="871" y="1007" on="1"/>
        <pt x="767" y="1354" on="1"/>
        <pt x="663" y="1007" on="1"/>
        <pt x="372" y="150" on="1"/>
      </contour>
    </TTGlyph>
    <TTGlyph name="E" xMin="220" yMin="0" xMax="1126" yMax="1554">
      <contour>
        <pt x="220" y="1554" on="1"/>
        <pt x="1107" y="1554" on="1"/>
        <pt x="1098" y="1394" on="1"/>
        <pt x="393" y="1394" on="1"/>
        <pt x="393" y="874" on="1"/>
        <pt x="1024" y="874" on="1"/>
        <pt x="1024" y="716" on="1"/>
        <pt x="393" y="716" on="1"/>
        <pt x="393" y="159" on="1"/>
        <pt x="1117" y="159" on="1"/>
        <pt x="1126" y="0" on="1"/>
        <pt x="220" y="0" on="1"/>
      </contour>
    </TTGlyph>
    <TTGlyph name="Eacute" xMin="220" yMin="0" xMax="1126" yMax="2020">
      <contour>
        <pt x="220" y="1554" on="1"/>
        <pt x="1107" y="1554" on="1"/>
        <pt x="1098" y="1394" on="1"/>
        <pt x="393" y="1394" on="1"/>
        <pt x="393" y="874" on="1"/>
        <pt x="1024" y="874" on="1"/>
        <pt x="1024" y="716" on="1"/>
        <pt x="393" y="716" on="1"/>
        <pt x="393" y="159" on="1"/>
        <pt x="1117" y="159" on="1"/>
        <pt x="1126" y="0" on="1"/>
        <pt x="220" y="0" on="1"/>
      </contour>
      <contour>
        <pt x="703" y="1615" on="1"/>
        <pt x="610" y="1717" on="1"/>
        <pt x="930" y="2020" on="1"/>
        <pt x="1043" y="1897" on="1"/>
      </contour>
    </TTGlyph>
    <TTGlyph name="Ebreve" xMin="220" yMin="0" xMax="1126" yMax="1978">
      <contour>
        <pt x="220" y="1554" on="1"/>
        <pt x="1107" y="1554" on="1"/>
        <pt x="1098" y="1394" on="1"/>
        <pt x="393" y="1394" on="1"/>
        <pt x="393" y="874" on="1"/>
        <pt x="1024" y="874" on="1"/>
        <pt x="1024" y="716" on="1"/>
        <pt x="393" y="716" on="1"/>
        <pt x="393" y="159" on="1"/>
        <pt x="1117" y="159" on="1"/>
        <pt x="1126" y="0" on="1"/>
        <pt x="220" y="0" on="1"/>
      </contour>
      <contour>
        <pt x="684" y="1700" on="1"/>
        <pt x="487" y="1700" on="0"/>
        <pt x="404" y="1838" on="1"/>
        <pt x="377" y="1882" on="0"/>
        <pt x="367" y="1938" on="1"/>
        <pt x="499" y="1978" on="1"/>
        <pt x="510" y="1911" on="0"/>
        <pt x="569" y="1870" on="1"/>
        <pt x="621" y="1834" on="0"/>
        <pt x="712" y="1834" on="0"/>
        <pt x="773" y="1852" on="0"/>
        <pt x="799" y="1870" on="1"/>
        <pt x="859" y="1911" on="0"/>
        <pt x="870" y="1978" on="1"/>
        <pt x="1001" y="1938" on="1"/>
        <pt x="983" y="1827" on="0"/>
        <pt x="895" y="1762" on="1"/>
        <pt x="810" y="1700" on="0"/>
      </contour>
    </TTGlyph>
    <TTGlyph name="Ecaron" xMin="220" yMin="0" xMax="1126" yMax="1940">
      <contour>
        <pt x="220" y="1554" on="1"/>
        <pt x="1107" y="1554" on="1"/>
        <pt x="1098" y="1394" on="1"/>
        <pt x="393" y="1394" on="1"/>
        <pt x="393" y="874" on="1"/>
        <pt x="1024" y="874" on="1"/>
        <pt x="1024" y="716" on="1"/>
        <pt x="393" y="716" on="1"/>
        <pt x="393" y="159" on="1"/>
        <pt x="1117" y="159" on="1"/>
        <pt x="1126" y="0" on="1"/>
        <pt x="220" y="0" on="1"/>
      </contour>
      <contour>
        <pt x="683" y="1615" on="1"/>
        <pt x="320" y="1827" on="1"/>
        <pt x="377" y="1940" on="1"/>
        <pt x="683" y="1779" on="1"/>
        <pt x="989" y="1940" on="1"/>
        <pt x="1046" y="1827" on="1"/>
      </contour>
    </TTGlyph>
    <TTGlyph name="Ecircumflex" xMin="220" yMin="0" xMax="1126" yMax="1940">
      <contour>
        <pt x="220" y="1554" on="1"/>
        <pt x="1107" y="1554" on="1"/>
        <pt x="1098" y="1394" on="1"/>
        <pt x="393" y="1394" on="1"/>
        <pt x="393" y="874" on="1"/>
        <pt x="1024" y="874" on="1"/>
        <pt x="1024" y="716" on="1"/>
        <pt x="393" y="716" on="1"/>
        <pt x="393" y="159" on="1"/>
        <pt x="1117" y="159" on="1"/>
        <pt x="1126" y="0" on="1"/>
        <pt x="220" y="0" on="1"/>
      </contour>
      <contour>
        <pt x="379" y="1615" on="1"/>
        <pt x="322" y="1728" on="1"/>
        <pt x="685" y="1940" on="1"/>
        <pt x="1048" y="1728" on="1"/>
        <pt x="991" y="1615" on="1"/>
        <pt x="685" y="1776" on="1"/>
      </contour>
    </TTGlyph>
    <TTGlyph name="Edieresis" xMin="220" yMin="0" xMax="1126" yMax="1926">
      <contour>
        <pt x="220" y="1554" on="1"/>
        <pt x="1107" y="1554" on="1"/>
        <pt x="1098" y="1394" on="1"/>
        <pt x="393" y="1394" on="1"/>
        <pt x="393" y="874" on="1"/>
        <pt x="1024" y="874" on="1"/>
        <pt x="1024" y="716" on="1"/>
        <pt x="393" y="716" on="1"/>
        <pt x="393" y="159" on="1"/>
        <pt x="1117" y="159" on="1"/>
        <pt x="1126" y="0" on="1"/>
        <pt x="220" y="0" on="1"/>
      </contour>
      <contour>
        <pt x="789" y="1926" on="1"/>
        <pt x="966" y="1926" on="1"/>
        <pt x="966" y="1698" on="1"/>
        <pt x="789" y="1698" on="1"/>
      </contour>
      <contour>
        <pt x="402" y="1926" on="1"/>
        <pt x="578" y="1926" on="1"/>
        <pt x="578" y="1698" on="1"/>
        <pt x="402" y="1698" on="1"/>
      </contour>
    </TTGlyph>
    <TTGlyph name="Edotaccent" xMin="220" yMin="0" xMax="1126" yMax="2018">
      <contour>
        <pt x="220" y="1554" on="1"/>
        <pt x="1107" y="1554" on="1"/>
        <pt x="1098" y="1394" on="1"/>
        <pt x="393" y="1394" on="1"/>
        <pt x="393" y="874" on="1"/>
        <pt x="1024" y="874" on="1"/>
        <pt x="1024" y="716" on="1"/>
        <pt x="393" y="716" on="1"/>
        <pt x="393" y="159" on="1"/>
        <pt x="1117" y="159" on="1"/>
        <pt x="1126" y="0" on="1"/>
        <pt x="220" y="0" on="1"/>
      </contour>
      <contour>
        <pt x="595" y="2018" on="1"/>
        <pt x="771" y="2018" on="1"/>
        <pt x="771" y="1782" on="1"/>
        <pt x="595" y="1782" on="1"/>
      </contour>
    </TTGlyph>
    <TTGlyph name="Egrave" xMin="220" yMin="0" xMax="1126" yMax="2020">
      <contour>
        <pt x="220" y="1554" on="1"/>
        <pt x="1107" y="1554" on="1"/>
        <pt x="1098" y="1394" on="1"/>
        <pt x="393" y="1394" on="1"/>
        <pt x="393" y="874" on="1"/>
        <pt x="1024" y="874" on="1"/>
        <pt x="1024" y="716" on="1"/>
        <pt x="393" y="716" on="1"/>
        <pt x="393" y="159" on="1"/>
        <pt x="1117" y="159" on="1"/>
        <pt x="1126" y="0" on="1"/>
        <pt x="220" y="0" on="1"/>
      </contour>
      <contour>
        <pt x="703" y="1615" on="1"/>
        <pt x="363" y="1897" on="1"/>
        <pt x="476" y="2020" on="1"/>
        <pt x="796" y="1717" on="1"/>
      </contour>
    </TTGlyph>
    <TTGlyph name="Emacron" xMin="220" yMin="0" xMax="1126" yMax="1859">
      <contour>
        <pt x="220" y="1554" on="1"/>
        <pt x="1107" y="1554" on="1"/>
        <pt x="1098" y="1394" on="1"/>
        <pt x="393" y="1394" on="1"/>
        <pt x="393" y="874" on="1"/>
        <pt x="1024" y="874" on="1"/>
        <pt x="1024" y="716" on="1"/>
        <pt x="393" y="716" on="1"/>
        <pt x="393" y="159" on="1"/>
        <pt x="1117" y="159" on="1"/>
        <pt x="1126" y="0" on="1"/>
        <pt x="220" y="0" on="1"/>
      </contour>
      <contour>
        <pt x="368" y="1859" on="1"/>
        <pt x="1000" y="1859" on="1"/>
        <pt x="1000" y="1722" on="1"/>
        <pt x="368" y="1722" on="1"/>
      </contour>
    </TTGlyph>
    <TTGlyph name="Eng" xMin="163" yMin="-512" xMax="1372" yMax="1574">
      <contour>
        <pt x="1202" y="-201" on="1"/>
        <pt x="1200" y="-35" on="1"/>
        <pt x="1200" y="0" on="1"/>
        <pt x="1117" y="0" on="1"/>
        <pt x="457" y="1173" on="1"/>
        <pt x="337" y="1400" on="1"/>
        <pt x="337" y="0" on="1"/>
        <pt x="163" y="0" on="1"/>
        <pt x="163" y="1574" on="1"/>
        <pt x="421" y="1574" on="1"/>
        <pt x="1076" y="407" on="1"/>
        <pt x="1198" y="172" on="1"/>
        <pt x="1198" y="1574" on="1"/>
        <pt x="1372" y="1574" on="1"/>
        <pt x="1372" y="-106" on="1"/>
        <pt x="1372" y="-268" on="0"/>
        <pt x="1336" y="-388" on="0"/>
        <pt x="1281" y="-454" on="0"/>
        <pt x="1235" y="-472" on="1"/>
        <pt x="1152" y="-512" on="0"/>
        <pt x="1025" y="-512" on="1"/>
        <pt x="958" y="-512" on="0"/>
        <pt x="853" y="-497" on="1"/>
        <pt x="874" y="-333" on="1"/>
        <pt x="997" y="-372" on="0"/>
        <pt x="1131" y="-372" on="0"/>
        <pt x="1190" y="-310" on="0"/>
        <pt x="1202" y="-251" on="0"/>
      </contour>
    </TTGlyph>
    <TTGlyph name="Eogonek" xMin="220" yMin="-477" xMax="1144" yMax="1554">
      <contour>
        <pt x="1144" y="-440" on="1"/>
        <pt x="1063" y="-477" on="0"/>
        <pt x="936" y="-477" on="0"/>
        <pt x="860" y="-451" on="0"/>
        <pt x="832" y="-426" on="1"/>
        <pt x="774" y="-373" on="0"/>
        <pt x="774" y="-280" on="1"/>
        <pt x="774" y="-175" on="0"/>
        <pt x="862" y="-58" on="1"/>
        <pt x="887" y="-24" on="0"/>
        <pt x="914" y="0" on="1"/>
        <pt x="220" y="0" on="1"/>
        <pt x="220" y="1554" on="1"/>
        <pt x="1107" y="1554" on="1"/>
        <pt x="1098" y="1394" on="1"/>
        <pt x="393" y="1394" on="1"/>
        <pt x="393" y="874" on="1"/>
        <pt x="1024" y="874" on="1"/>
        <pt x="1024" y="716" on="1"/>
        <pt x="393" y="716" on="1"/>
        <pt x="393" y="159" on="1"/>
        <pt x="1117" y="159" on="1"/>
        <pt x="1126" y="0" on="1"/>
        <pt x="1051" y="0" on="1"/>
        <pt x="947" y="-97" on="0"/>
        <pt x="929" y="-197" on="1"/>
        <pt x="914" y="-333" on="0"/>
        <pt x="1033" y="-333" on="1"/>
        <pt x="1081" y="-333" on="0"/>
        <pt x="1119" y="-322" on="1"/>
      </contour>
    </TTGlyph>
    <TTGlyph name="Eth" xMin="26" yMin="0" xMax="1431" yMax="1554">
      <contour>
        <pt x="220" y="0" on="1"/>
        <pt x="220" y="733" on="1"/>
        <pt x="26" y="733" on="1"/>
        <pt x="26" y="886" on="1"/>
        <pt x="220" y="886" on="1"/>
        <pt x="220" y="1554" on="1"/>
        <pt x="702" y="1554" on="1"/>
        <pt x="1275" y="1554" on="0"/>
        <pt x="1394" y="1099" on="1"/>
        <pt x="1431" y="955" on="0"/>
        <pt x="1431" y="776" on="1"/>
        <pt x="1431" y="735" on="1"/>
        <pt x="1431" y="384" on="0"/>
        <pt x="1240" y="193" on="1"/>
        <pt x="1047" y="0" on="0"/>
        <pt x="694" y="0" on="1"/>
      </contour>
      <contour>
        <pt x="393" y="157" on="1"/>
        <pt x="694" y="157" on="1"/>
        <pt x="965" y="157" on="0"/>
        <pt x="1111" y="316" on="1"/>
        <pt x="1252" y="469" on="0"/>
        <pt x="1252" y="735" on="1"/>
        <pt x="1252" y="776" on="1"/>
        <pt x="1246" y="1095" on="0"/>
        <pt x="1120" y="1242" on="1"/>
        <pt x="988" y="1396" on="0"/>
        <pt x="698" y="1396" on="1"/>
        <pt x="393" y="1396" on="1"/>
        <pt x="393" y="886" on="1"/>
        <pt x="801" y="886" on="1"/>
        <pt x="801" y="733" on="1"/>
        <pt x="393" y="733" on="1"/>
      </contour>
    </TTGlyph>
    <TTGlyph name="Euro" xMin="14" yMin="-5" xMax="1180" yMax="1585">
      <contour>
        <pt x="1180" y="26" on="1"/>
        <pt x="1035" y="-5" on="0"/>
        <pt x="770" y="-5" on="0"/>
        <pt x="532" y="75" on="0"/>
        <pt x="446" y="150" on="1"/>
        <pt x="273" y="302" on="0"/>
        <pt x="237" y="579" on="1"/>
        <pt x="14" y="579" on="1"/>
        <pt x="14" y="696" on="1"/>
        <pt x="228" y="696" on="1"/>
        <pt x="228" y="861" on="1"/>
        <pt x="14" y="861" on="1"/>
        <pt x="14" y="979" on="1"/>
        <pt x="235" y="979" on="1"/>
        <pt x="269" y="1272" on="0"/>
        <pt x="426" y="1420" on="1"/>
        <pt x="600" y="1585" on="0"/>
        <pt x="930" y="1585" on="1"/>
        <pt x="1018" y="1585" on="0"/>
        <pt x="1103" y="1566" on="1"/>
        <pt x="1056" y="1420" on="1"/>
        <pt x="1002" y="1433" on="0"/>
        <pt x="808" y="1433" on="0"/>
        <pt x="627" y="1374" on="0"/>
        <pt x="564" y="1316" on="1"/>
        <pt x="447" y="1207" on="0"/>
        <pt x="416" y="979" on="1"/>
        <pt x="966" y="979" on="1"/>
        <pt x="962" y="861" on="1"/>
        <pt x="407" y="861" on="1"/>
        <pt x="404" y="843" on="0"/>
        <pt x="404" y="812" on="1"/>
        <pt x="404" y="696" on="1"/>
        <pt x="784" y="696" on="1"/>
        <pt x="780" y="579" on="1"/>
        <pt x="416" y="579" on="1"/>
        <pt x="471" y="270" on="0"/>
        <pt x="724" y="179" on="1"/>
        <pt x="810" y="148" on="0"/>
        <pt x="1029" y="148" on="0"/>
        <pt x="1147" y="176" on="1"/>
      </contour>
    </TTGlyph>
    <TTGlyph name="F" xMin="220" yMin="0" xMax="1102" yMax="1554">
      <contour>
        <pt x="220" y="1554" on="1"/>
        <pt x="1102" y="1554" on="1"/>
        <pt x="1093" y="1394" on="1"/>
        <pt x="393" y="1394" on="1"/>
        <pt x="393" y="874" on="1"/>
        <pt x="1017" y="874" on="1"/>
        <pt x="1017" y="716" on="1"/>
        <pt x="393" y="716" on="1"/>
        <pt x="393" y="0" on="1"/>
        <pt x="220" y="0" on="1"/>
      </contour>
    </TTGlyph>
    <TTGlyph name="G" xMin="155" yMin="-22" xMax="1382" yMax="1569">
      <contour>
        <pt x="863" y="1569" on="1"/>
        <pt x="903" y="1568" on="1"/>
        <pt x="1145" y="1559" on="0"/>
        <pt x="1347" y="1468" on="1"/>
        <pt x="1289" y="1320" on="1"/>
        <pt x="1099" y="1406" on="0"/>
        <pt x="749" y="1415" on="0"/>
        <pt x="534" y="1320" on="0"/>
        <pt x="466" y="1232" on="1"/>
        <pt x="333" y="1060" on="0"/>
        <pt x="333" y="740" on="1"/>
        <pt x="345" y="442" on="0"/>
        <pt x="476" y="296" on="1"/>
        <pt x="634" y="121" on="0"/>
        <pt x="966" y="134" on="1"/>
        <pt x="1110" y="140" on="0"/>
        <pt x="1210" y="194" on="1"/>
        <pt x="1210" y="688" on="1"/>
        <pt x="939" y="688" on="1"/>
        <pt x="939" y="847" on="1"/>
        <pt x="1382" y="847" on="1"/>
        <pt x="1382" y="81" on="1"/>
        <pt x="1205" y="5" on="0"/>
        <pt x="1006" y="-16" on="1"/>
        <pt x="944" y="-22" on="0"/>
        <pt x="890" y="-20" on="1"/>
        <pt x="330" y="0" on="0"/>
        <pt x="200" y="432" on="1"/>
        <pt x="158" y="570" on="0"/>
        <pt x="155" y="850" on="0"/>
        <pt x="186" y="1059" on="0"/>
        <pt x="255" y="1243" on="0"/>
        <pt x="365" y="1397" on="0"/>
        <pt x="444" y="1452" on="1"/>
        <pt x="608" y="1569" on="0"/>
      </contour>
    </TTGlyph>
    <TTGlyph name="Gbreve" xMin="155" yMin="-22" xMax="1382" yMax="1978">
      <contour>
        <pt x="863" y="1569" on="1"/>
        <pt x="903" y="1568" on="1"/>
        <pt x="1145" y="1559" on="0"/>
        <pt x="1347" y="1468" on="1"/>
        <pt x="1289" y="1320" on="1"/>
        <pt x="1099" y="1406" on="0"/>
        <pt x="749" y="1415" on="0"/>
        <pt x="534" y="1320" on="0"/>
        <pt x="466" y="1232" on="1"/>
        <pt x="333" y="1060" on="0"/>
        <pt x="333" y="740" on="1"/>
        <pt x="345" y="442" on="0"/>
        <pt x="476" y="296" on="1"/>
        <pt x="634" y="121" on="0"/>
        <pt x="966" y="134" on="1"/>
        <pt x="1110" y="140" on="0"/>
        <pt x="1210" y="194" on="1"/>
        <pt x="1210" y="688" on="1"/>
        <pt x="939" y="688" on="1"/>
        <pt x="939" y="847" on="1"/>
        <pt x="1382" y="847" on="1"/>
        <pt x="1382" y="81" on="1"/>
        <pt x="1205" y="5" on="0"/>
        <pt x="1006" y="-16" on="1"/>
        <pt x="944" y="-22" on="0"/>
        <pt x="890" y="-20" on="1"/>
        <pt x="330" y="0" on="0"/>
        <pt x="200" y="432" on="1"/>
        <pt x="158" y="570" on="0"/>
        <pt x="155" y="850" on="0"/>
        <pt x="186" y="1059" on="0"/>
        <pt x="255" y="1243" on="0"/>
        <pt x="365" y="1397" on="0"/>
        <pt x="444" y="1452" on="1"/>
        <pt x="608" y="1569" on="0"/>
      </contour>
      <contour>
        <pt x="905" y="1700" on="1"/>
        <pt x="708" y="1700" on="0"/>
        <pt x="625" y="1838" on="1"/>
        <pt x="598" y="1882" on="0"/>
        <pt x="588" y="1938" on="1"/>
        <pt x="720" y="1978" on="1"/>
        <pt x="731" y="1911" on="0"/>
        <pt x="790" y="1870" on="1"/>
        <pt x="842" y="1834" on="0"/>
        <pt x="933" y="1834" on="0"/>
        <pt x="994" y="1852" on="0"/>
        <pt x="1020" y="1870" on="1"/>
        <pt x="1080" y="1911" on="0"/>
        <pt x="1091" y="1978" on="1"/>
        <pt x="1222" y="1938" on="1"/>
        <pt x="1204" y="1827" on="0"/>
        <pt x="1116" y="1762" on="1"/>
        <pt x="1031" y="1700" on="0"/>
      </contour>
    </TTGlyph>
    <TTGlyph name="Gcircumflex" xMin="155" yMin="-22" xMax="1382" yMax="1940">
      <contour>
        <pt x="863" y="1569" on="1"/>
        <pt x="903" y="1568" on="1"/>
        <pt x="1145" y="1559" on="0"/>
        <pt x="1347" y="1468" on="1"/>
        <pt x="1289" y="1320" on="1"/>
        <pt x="1099" y="1406" on="0"/>
        <pt x="749" y="1415" on="0"/>
        <pt x="534" y="1320" on="0"/>
        <pt x="466" y="1232" on="1"/>
        <pt x="333" y="1060" on="0"/>
        <pt x="333" y="740" on="1"/>
        <pt x="345" y="442" on="0"/>
        <pt x="476" y="296" on="1"/>
        <pt x="634" y="121" on="0"/>
        <pt x="966" y="134" on="1"/>
        <pt x="1110" y="140" on="0"/>
        <pt x="1210" y="194" on="1"/>
        <pt x="1210" y="688" on="1"/>
        <pt x="939" y="688" on="1"/>
        <pt x="939" y="847" on="1"/>
        <pt x="1382" y="847" on="1"/>
        <pt x="1382" y="81" on="1"/>
        <pt x="1205" y="5" on="0"/>
        <pt x="1006" y="-16" on="1"/>
        <pt x="944" y="-22" on="0"/>
        <pt x="890" y="-20" on="1"/>
        <pt x="330" y="0" on="0"/>
        <pt x="200" y="432" on="1"/>
        <pt x="158" y="570" on="0"/>
        <pt x="155" y="850" on="0"/>
        <pt x="186" y="1059" on="0"/>
        <pt x="255" y="1243" on="0"/>
        <pt x="365" y="1397" on="0"/>
        <pt x="444" y="1452" on="1"/>
        <pt x="608" y="1569" on="0"/>
      </contour>
      <contour>
        <pt x="600" y="1615" on="1"/>
        <pt x="543" y="1728" on="1"/>
        <pt x="906" y="1940" on="1"/>
        <pt x="1269" y="1728" on="1"/>
        <pt x="1212" y="1615" on="1"/>
        <pt x="906" y="1776" on="1"/>
      </contour>
    </TTGlyph>
    <TTGlyph name="Gcommaaccent" xMin="155" yMin="-540" xMax="1382" yMax="1569">
      <contour>
        <pt x="863" y="1569" on="1"/>
        <pt x="903" y="1568" on="1"/>
        <pt x="1145" y="1559" on="0"/>
        <pt x="1347" y="1468" on="1"/>
        <pt x="1289" y="1320" on="1"/>
        <pt x="1099" y="1406" on="0"/>
        <pt x="749" y="1415" on="0"/>
        <pt x="534" y="1320" on="0"/>
        <pt x="466" y="1232" on="1"/>
        <pt x="333" y="1060" on="0"/>
        <pt x="333" y="740" on="1"/>
        <pt x="345" y="442" on="0"/>
        <pt x="476" y="296" on="1"/>
        <pt x="634" y="121" on="0"/>
        <pt x="966" y="134" on="1"/>
        <pt x="1110" y="140" on="0"/>
        <pt x="1210" y="194" on="1"/>
        <pt x="1210" y="688" on="1"/>
        <pt x="939" y="688" on="1"/>
        <pt x="939" y="847" on="1"/>
        <pt x="1382" y="847" on="1"/>
        <pt x="1382" y="81" on="1"/>
        <pt x="1205" y="5" on="0"/>
        <pt x="1006" y="-16" on="1"/>
        <pt x="944" y="-22" on="0"/>
        <pt x="890" y="-20" on="1"/>
        <pt x="330" y="0" on="0"/>
        <pt x="200" y="432" on="1"/>
        <pt x="158" y="570" on="0"/>
        <pt x="155" y="850" on="0"/>
        <pt x="186" y="1059" on="0"/>
        <pt x="255" y="1243" on="0"/>
        <pt x="365" y="1397" on="0"/>
        <pt x="444" y="1452" on="1"/>
        <pt x="608" y="1569" on="0"/>
      </contour>
      <contour>
        <pt x="992" y="-125" on="1"/>
        <pt x="906" y="-540" on="1"/>
        <pt x="779" y="-520" on="1"/>
        <pt x="825" y="-125" on="1"/>
      </contour>
    </TTGlyph>
    <TTGlyph name="Gdotaccent" xMin="155" yMin="-22" xMax="1382" yMax="2018">
      <contour>
        <pt x="863" y="1569" on="1"/>
        <pt x="903" y="1568" on="1"/>
        <pt x="1145" y="1559" on="0"/>
        <pt x="1347" y="1468" on="1"/>
        <pt x="1289" y="1320" on="1"/>
        <pt x="1099" y="1406" on="0"/>
        <pt x="749" y="1415" on="0"/>
        <pt x="534" y="1320" on="0"/>
        <pt x="466" y="1232" on="1"/>
        <pt x="333" y="1060" on="0"/>
        <pt x="333" y="740" on="1"/>
        <pt x="345" y="442" on="0"/>
        <pt x="476" y="296" on="1"/>
        <pt x="634" y="121" on="0"/>
        <pt x="966" y="134" on="1"/>
        <pt x="1110" y="140" on="0"/>
        <pt x="1210" y="194" on="1"/>
        <pt x="1210" y="688" on="1"/>
        <pt x="939" y="688" on="1"/>
        <pt x="939" y="847" on="1"/>
        <pt x="1382" y="847" on="1"/>
        <pt x="1382" y="81" on="1"/>
        <pt x="1205" y="5" on="0"/>
        <pt x="1006" y="-16" on="1"/>
        <pt x="944" y="-22" on="0"/>
        <pt x="890" y="-20" on="1"/>
        <pt x="330" y="0" on="0"/>
        <pt x="200" y="432" on="1"/>
        <pt x="158" y="570" on="0"/>
        <pt x="155" y="850" on="0"/>
        <pt x="186" y="1059" on="0"/>
        <pt x="255" y="1243" on="0"/>
        <pt x="365" y="1397" on="0"/>
        <pt x="444" y="1452" on="1"/>
        <pt x="608" y="1569" on="0"/>
      </contour>
      <contour>
        <pt x="816" y="2018" on="1"/>
        <pt x="992" y="2018" on="1"/>
        <pt x="992" y="1782" on="1"/>
        <pt x="816" y="1782" on="1"/>
      </contour>
    </TTGlyph>
    <TTGlyph name="H" xMin="171" yMin="0" xMax="1364" yMax="1554">
      <contour>
        <pt x="171" y="0" on="1"/>
        <pt x="171" y="1554" on="1"/>
        <pt x="344" y="1554" on="1"/>
        <pt x="344" y="887" on="1"/>
        <pt x="1191" y="887" on="1"/>
        <pt x="1191" y="1554" on="1"/>
        <pt x="1364" y="1554" on="1"/>
        <pt x="1364" y="0" on="1"/>
        <pt x="1191" y="0" on="1"/>
        <pt x="1191" y="733" on="1"/>
        <pt x="344" y="733" on="1"/>
        <pt x="344" y="0" on="1"/>
      </contour>
    </TTGlyph>
    <TTGlyph name="Hbar" xMin="8" yMin="0" xMax="1529" yMax="1574">
      <contour>
        <pt x="171" y="0" on="1"/>
        <pt x="171" y="1175" on="1"/>
        <pt x="8" y="1175" on="1"/>
        <pt x="8" y="1305" on="1"/>
        <pt x="171" y="1305" on="1"/>
        <pt x="171" y="1574" on="1"/>
        <pt x="344" y="1574" on="1"/>
        <pt x="344" y="1305" on="1"/>
        <pt x="1191" y="1305" on="1"/>
        <pt x="1191" y="1574" on="1"/>
        <pt x="1364" y="1574" on="1"/>
        <pt x="1364" y="1305" on="1"/>
        <pt x="1529" y="1305" on="1"/>
        <pt x="1529" y="1175" on="1"/>
        <pt x="1364" y="1175" on="1"/>
        <pt x="1364" y="0" on="1"/>
        <pt x="1191" y="0" on="1"/>
        <pt x="1191" y="759" on="1"/>
        <pt x="344" y="759" on="1"/>
        <pt x="344" y="0" on="1"/>
      </contour>
      <contour>
        <pt x="344" y="914" on="1"/>
        <pt x="1191" y="914" on="1"/>
        <pt x="1191" y="1175" on="1"/>
        <pt x="344" y="1175" on="1"/>
      </contour>
    </TTGlyph>
    <TTGlyph name="Hcircumflex" xMin="171" yMin="0" xMax="1364" yMax="1940">
      <contour>
        <pt x="171" y="0" on="1"/>
        <pt x="171" y="1554" on="1"/>
        <pt x="344" y="1554" on="1"/>
        <pt x="344" y="887" on="1"/>
        <pt x="1191" y="887" on="1"/>
        <pt x="1191" y="1554" on="1"/>
        <pt x="1364" y="1554" on="1"/>
        <pt x="1364" y="0" on="1"/>
        <pt x="1191" y="0" on="1"/>
        <pt x="1191" y="733" on="1"/>
        <pt x="344" y="733" on="1"/>
        <pt x="344" y="0" on="1"/>
      </contour>
      <contour>
        <pt x="464" y="1615" on="1"/>
        <pt x="407" y="1728" on="1"/>
        <pt x="770" y="1940" on="1"/>
        <pt x="1133" y="1728" on="1"/>
        <pt x="1076" y="1615" on="1"/>
        <pt x="770" y="1776" on="1"/>
      </contour>
    </TTGlyph>
    <TTGlyph name="I" xMin="170" yMin="0" xMax="343" yMax="1554">
      <contour>
        <pt x="170" y="1554" on="1"/>
        <pt x="343" y="1554" on="1"/>
        <pt x="343" y="0" on="1"/>
        <pt x="170" y="0" on="1"/>
      </contour>
    </TTGlyph>
    <TTGlyph name="IJ" xMin="170" yMin="-20" xMax="1193" yMax="1554">
      <contour>
        <pt x="170" y="1554" on="1"/>
        <pt x="343" y="1554" on="1"/>
        <pt x="343" y="0" on="1"/>
        <pt x="170" y="0" on="1"/>
      </contour>
      <contour>
        <pt x="596" y="172" on="1"/>
        <pt x="672" y="134" on="0"/>
        <pt x="846" y="134" on="0"/>
        <pt x="946" y="180" on="0"/>
        <pt x="973" y="224" on="1"/>
        <pt x="1020" y="297" on="0"/>
        <pt x="1020" y="468" on="1"/>
        <pt x="1020" y="1554" on="1"/>
        <pt x="1193" y="1554" on="1"/>
        <pt x="1193" y="479" on="1"/>
        <pt x="1193" y="315" on="0"/>
        <pt x="1152" y="154" on="0"/>
        <pt x="1071" y="54" on="0"/>
        <pt x="1017" y="26" on="1"/>
        <pt x="924" y="-20" on="0"/>
        <pt x="765" y="-20" on="1"/>
        <pt x="651" y="-20" on="0"/>
        <pt x="570" y="-2" on="1"/>
      </contour>
    </TTGlyph>
    <TTGlyph name="Iacute" xMin="170" yMin="0" xMax="616" yMax="2020">
      <contour>
        <pt x="170" y="1554" on="1"/>
        <pt x="343" y="1554" on="1"/>
        <pt x="343" y="0" on="1"/>
        <pt x="170" y="0" on="1"/>
      </contour>
      <contour>
        <pt x="276" y="1615" on="1"/>
        <pt x="183" y="1717" on="1"/>
        <pt x="503" y="2020" on="1"/>
        <pt x="616" y="1897" on="1"/>
      </contour>
    </TTGlyph>
    <TTGlyph name="Ibreve" xMin="-60" yMin="0" xMax="574" yMax="1978">
      <contour>
        <pt x="170" y="1554" on="1"/>
        <pt x="343" y="1554" on="1"/>
        <pt x="343" y="0" on="1"/>
        <pt x="170" y="0" on="1"/>
      </contour>
      <contour>
        <pt x="257" y="1700" on="1"/>
        <pt x="60" y="1700" on="0"/>
        <pt x="-23" y="1838" on="1"/>
        <pt x="-50" y="1882" on="0"/>
        <pt x="-60" y="1938" on="1"/>
        <pt x="72" y="1978" on="1"/>
        <pt x="83" y="1911" on="0"/>
        <pt x="142" y="1870" on="1"/>
        <pt x="194" y="1834" on="0"/>
        <pt x="285" y="1834" on="0"/>
        <pt x="346" y="1852" on="0"/>
        <pt x="372" y="1870" on="1"/>
        <pt x="432" y="1911" on="0"/>
        <pt x="443" y="1978" on="1"/>
        <pt x="574" y="1938" on="1"/>
        <pt x="556" y="1827" on="0"/>
        <pt x="468" y="1762" on="1"/>
        <pt x="383" y="1700" on="0"/>
      </contour>
    </TTGlyph>
    <TTGlyph name="Icircumflex" xMin="-105" yMin="0" xMax="621" yMax="1940">
      <contour>
        <pt x="170" y="1554" on="1"/>
        <pt x="343" y="1554" on="1"/>
        <pt x="343" y="0" on="1"/>
        <pt x="170" y="0" on="1"/>
      </contour>
      <contour>
        <pt x="-48" y="1615" on="1"/>
        <pt x="-105" y="1728" on="1"/>
        <pt x="258" y="1940" on="1"/>
        <pt x="621" y="1728" on="1"/>
        <pt x="564" y="1615" on="1"/>
        <pt x="258" y="1776" on="1"/>
      </contour>
    </TTGlyph>
    <TTGlyph name="Idieresis" xMin="-24" yMin="0" xMax="540" yMax="1926">
      <contour>
        <pt x="170" y="1554" on="1"/>
        <pt x="343" y="1554" on="1"/>
        <pt x="343" y="0" on="1"/>
        <pt x="170" y="0" on="1"/>
      </contour>
      <contour>
        <pt x="363" y="1926" on="1"/>
        <pt x="540" y="1926" on="1"/>
        <pt x="540" y="1698" on="1"/>
        <pt x="363" y="1698" on="1"/>
      </contour>
      <contour>
        <pt x="-24" y="1926" on="1"/>
        <pt x="152" y="1926" on="1"/>
        <pt x="152" y="1698" on="1"/>
        <pt x="-24" y="1698" on="1"/>
      </contour>
    </TTGlyph>
    <TTGlyph name="Idotaccent" xMin="168" yMin="0" xMax="344" yMax="2018">
      <contour>
        <pt x="170" y="1554" on="1"/>
        <pt x="343" y="1554" on="1"/>
        <pt x="343" y="0" on="1"/>
        <pt x="170" y="0" on="1"/>
      </contour>
      <contour>
        <pt x="168" y="2018" on="1"/>
        <pt x="344" y="2018" on="1"/>
        <pt x="344" y="1782" on="1"/>
        <pt x="168" y="1782" on="1"/>
      </contour>
    </TTGlyph>
    <TTGlyph name="Igrave" xMin="-64" yMin="0" xMax="369" yMax="2020">
      <contour>
        <pt x="170" y="1554" on="1"/>
        <pt x="343" y="1554" on="1"/>
        <pt x="343" y="0" on="1"/>
        <pt x="170" y="0" on="1"/>
      </contour>
      <contour>
        <pt x="276" y="1615" on="1"/>
        <pt x="-64" y="1897" on="1"/>
        <pt x="49" y="2020" on="1"/>
        <pt x="369" y="1717" on="1"/>
      </contour>
    </TTGlyph>
    <TTGlyph name="Imacron" xMin="-59" yMin="0" xMax="573" yMax="1859">
      <contour>
        <pt x="170" y="1554" on="1"/>
        <pt x="343" y="1554" on="1"/>
        <pt x="343" y="0" on="1"/>
        <pt x="170" y="0" on="1"/>
      </contour>
      <contour>
        <pt x="-59" y="1859" on="1"/>
        <pt x="573" y="1859" on="1"/>
        <pt x="573" y="1722" on="1"/>
        <pt x="-59" y="1722" on="1"/>
      </contour>
    </TTGlyph>
    <TTGlyph name="Iogonek" xMin="-25" yMin="-477" xMax="345" yMax="1554">
      <contour>
        <pt x="345" y="-440" on="1"/>
        <pt x="264" y="-477" on="0"/>
        <pt x="137" y="-477" on="0"/>
        <pt x="61" y="-451" on="0"/>
        <pt x="34" y="-426" on="1"/>
        <pt x="-25" y="-373" on="0"/>
        <pt x="-25" y="-280" on="1"/>
        <pt x="-25" y="-196" on="0"/>
        <pt x="38" y="-94" on="1"/>
        <pt x="99" y="5" on="0"/>
        <pt x="164" y="34" on="1"/>
        <pt x="170" y="33" on="1"/>
        <pt x="170" y="1554" on="1"/>
        <pt x="343" y="1554" on="1"/>
        <pt x="343" y="0" on="1"/>
        <pt x="252" y="0" on="1"/>
        <pt x="148" y="-97" on="0"/>
        <pt x="130" y="-197" on="1"/>
        <pt x="115" y="-333" on="0"/>
        <pt x="234" y="-333" on="1"/>
        <pt x="282" y="-333" on="0"/>
        <pt x="320" y="-322" on="1"/>
      </contour>
    </TTGlyph>
    <TTGlyph name="Itilde" xMin="-104" yMin="0" xMax="618" yMax="1958">
      <contour>
        <pt x="170" y="1554" on="1"/>
        <pt x="343" y="1554" on="1"/>
        <pt x="343" y="0" on="1"/>
        <pt x="170" y="0" on="1"/>
      </contour>
      <contour>
        <pt x="-104" y="1769" on="1"/>
        <pt x="-69" y="1849" on="0"/>
        <pt x="45" y="1947" on="0"/>
        <pt x="152" y="1958" on="0"/>
        <pt x="228" y="1926" on="0"/>
        <pt x="263" y="1904" on="1"/>
        <pt x="263" y="1904" on="0"/>
        <pt x="331" y="1864" on="1"/>
        <pt x="444" y="1796" on="0"/>
        <pt x="514" y="1939" on="1"/>
        <pt x="618" y="1878" on="1"/>
        <pt x="583" y="1797" on="0"/>
        <pt x="526" y="1750" on="1"/>
        <pt x="409" y="1652" on="0"/>
        <pt x="250" y="1755" on="1"/>
        <pt x="161" y="1813" on="0"/>
        <pt x="125" y="1813" on="1"/>
        <pt x="51" y="1813" on="0"/>
        <pt x="0" y="1709" on="1"/>
      </contour>
    </TTGlyph>
    <TTGlyph name="J" xMin="57" yMin="-20" xMax="680" yMax="1554">
      <contour>
        <pt x="83" y="172" on="1"/>
        <pt x="159" y="134" on="0"/>
        <pt x="333" y="134" on="0"/>
        <pt x="433" y="180" on="0"/>
        <pt x="460" y="224" on="1"/>
        <pt x="507" y="297" on="0"/>
        <pt x="507" y="468" on="1"/>
        <pt x="507" y="1554" on="1"/>
        <pt x="680" y="1554" on="1"/>
        <pt x="680" y="479" on="1"/>
        <pt x="680" y="315" on="0"/>
        <pt x="639" y="154" on="0"/>
        <pt x="558" y="54" on="0"/>
        <pt x="504" y="26" on="1"/>
        <pt x="411" y="-20" on="0"/>
        <pt x="252" y="-20" on="1"/>
        <pt x="138" y="-20" on="0"/>
        <pt x="57" y="-2" on="1"/>
      </contour>
    </TTGlyph>
    <TTGlyph name="Jcircumflex" xMin="57" yMin="-20" xMax="961" yMax="1954">
      <contour>
        <pt x="83" y="172" on="1"/>
        <pt x="159" y="134" on="0"/>
        <pt x="333" y="134" on="0"/>
        <pt x="433" y="180" on="0"/>
        <pt x="460" y="224" on="1"/>
        <pt x="507" y="297" on="0"/>
        <pt x="507" y="468" on="1"/>
        <pt x="507" y="1554" on="1"/>
        <pt x="680" y="1554" on="1"/>
        <pt x="680" y="479" on="1"/>
        <pt x="680" y="315" on="0"/>
        <pt x="639" y="154" on="0"/>
        <pt x="558" y="54" on="0"/>
        <pt x="504" y="26" on="1"/>
        <pt x="411" y="-20" on="0"/>
        <pt x="252" y="-20" on="1"/>
        <pt x="138" y="-20" on="0"/>
        <pt x="57" y="-2" on="1"/>
      </contour>
      <contour>
        <pt x="292" y="1629" on="1"/>
        <pt x="235" y="1742" on="1"/>
        <pt x="598" y="1954" on="1"/>
        <pt x="961" y="1742" on="1"/>
        <pt x="904" y="1629" on="1"/>
        <pt x="598" y="1790" on="1"/>
      </contour>
    </TTGlyph>
    <TTGlyph name="K" xMin="220" yMin="-23" xMax="1312" yMax="1554">
      <contour>
        <pt x="970" y="213" on="1"/>
        <pt x="828" y="391" on="1"/>
        <pt x="776" y="455" on="0"/>
        <pt x="764" y="467" on="1"/>
        <pt x="629" y="616" on="0"/>
        <pt x="580" y="676" on="1"/>
        <pt x="580" y="676" on="0"/>
        <pt x="472" y="806" on="1"/>
        <pt x="472" y="839" on="1"/>
        <pt x="1071" y="1554" on="1"/>
        <pt x="1301" y="1554" on="1"/>
        <pt x="673" y="827" on="1"/>
        <pt x="943" y="519" on="0"/>
        <pt x="983" y="470" on="1"/>
        <pt x="1106" y="324" on="1"/>
        <pt x="1312" y="86" on="1"/>
        <pt x="1144" y="-23" on="1"/>
        <pt x="1059" y="99" on="0"/>
      </contour>
      <contour>
        <pt x="220" y="0" on="1"/>
        <pt x="220" y="1554" on="1"/>
        <pt x="393" y="1554" on="1"/>
        <pt x="393" y="0" on="1"/>
      </contour>
    </TTGlyph>
    <TTGlyph name="Kcommaaccent" xMin="220" yMin="-540" xMax="1312" yMax="1554">
      <contour>
        <pt x="970" y="213" on="1"/>
        <pt x="828" y="391" on="1"/>
        <pt x="776" y="455" on="0"/>
        <pt x="764" y="467" on="1"/>
        <pt x="629" y="616" on="0"/>
        <pt x="580" y="676" on="1"/>
        <pt x="580" y="676" on="0"/>
        <pt x="472" y="806" on="1"/>
        <pt x="472" y="839" on="1"/>
        <pt x="1071" y="1554" on="1"/>
        <pt x="1301" y="1554" on="1"/>
        <pt x="673" y="827" on="1"/>
        <pt x="943" y="519" on="0"/>
        <pt x="983" y="470" on="1"/>
        <pt x="1106" y="324" on="1"/>
        <pt x="1312" y="86" on="1"/>
        <pt x="1144" y="-23" on="1"/>
        <pt x="1059" y="99" on="0"/>
      </contour>
      <contour>
        <pt x="220" y="0" on="1"/>
        <pt x="220" y="1554" on="1"/>
        <pt x="393" y="1554" on="1"/>
        <pt x="393" y="0" on="1"/>
      </contour>
      <contour>
        <pt x="873" y="-125" on="1"/>
        <pt x="787" y="-540" on="1"/>
        <pt x="660" y="-520" on="1"/>
        <pt x="706" y="-125" on="1"/>
      </contour>
    </TTGlyph>
    <TTGlyph name="L" xMin="168" yMin="0" xMax="1054" yMax="1554">
      <contour>
        <pt x="168" y="0" on="1"/>
        <pt x="168" y="1554" on="1"/>
        <pt x="341" y="1554" on="1"/>
        <pt x="341" y="162" on="1"/>
        <pt x="1054" y="162" on="1"/>
        <pt x="1047" y="0" on="1"/>
      </contour>
    </TTGlyph>
    <TTGlyph name="Lacute" xMin="168" yMin="0" xMax="1054" yMax="2020">
      <contour>
        <pt x="385" y="1654" on="1"/>
        <pt x="765" y="2020" on="1"/>
        <pt x="878" y="1897" on="1"/>
        <pt x="478" y="1552" on="1"/>
      </contour>
      <contour>
        <pt x="168" y="0" on="1"/>
        <pt x="168" y="1554" on="1"/>
        <pt x="341" y="1554" on="1"/>
        <pt x="341" y="162" on="1"/>
        <pt x="1054" y="162" on="1"/>
        <pt x="1047" y="0" on="1"/>
      </contour>
    </TTGlyph>
    <TTGlyph name="Lcaron" xMin="168" yMin="0" xMax="1054" yMax="1650">
      <contour>
        <pt x="585" y="1650" on="1"/>
        <pt x="752" y="1650" on="1"/>
        <pt x="666" y="1192" on="1"/>
        <pt x="540" y="1212" on="1"/>
      </contour>
      <contour>
        <pt x="168" y="0" on="1"/>
        <pt x="168" y="1554" on="1"/>
        <pt x="341" y="1554" on="1"/>
        <pt x="341" y="162" on="1"/>
        <pt x="1054" y="162" on="1"/>
        <pt x="1047" y="0" on="1"/>
      </contour>
    </TTGlyph>
    <TTGlyph name="Lcommaaccent" xMin="168" yMin="-540" xMax="1054" yMax="1554">
      <contour>
        <pt x="168" y="0" on="1"/>
        <pt x="168" y="1554" on="1"/>
        <pt x="341" y="1554" on="1"/>
        <pt x="341" y="162" on="1"/>
        <pt x="1054" y="162" on="1"/>
        <pt x="1047" y="0" on="1"/>
      </contour>
      <contour>
        <pt x="705" y="-125" on="1"/>
        <pt x="619" y="-540" on="1"/>
        <pt x="492" y="-520" on="1"/>
        <pt x="538" y="-125" on="1"/>
      </contour>
    </TTGlyph>
    <TTGlyph name="Ldot" xMin="168" yMin="0" xMax="1054" yMax="1554">
      <contour>
        <pt x="828" y="888" on="1"/>
        <pt x="1020" y="888" on="1"/>
        <pt x="1020" y="680" on="1"/>
        <pt x="828" y="680" on="1"/>
      </contour>
      <contour>
        <pt x="168" y="0" on="1"/>
        <pt x="168" y="1554" on="1"/>
        <pt x="341" y="1554" on="1"/>
        <pt x="341" y="162" on="1"/>
        <pt x="1054" y="162" on="1"/>
        <pt x="1047" y="0" on="1"/>
      </contour>
    </TTGlyph>
    <TTGlyph name="Lslash" xMin="-152" yMin="0" xMax="1054" yMax="1574">
      <contour>
        <pt x="168" y="0" on="1"/>
        <pt x="168" y="694" on="1"/>
        <pt x="-79" y="528" on="1"/>
        <pt x="-152" y="636" on="1"/>
        <pt x="168" y="852" on="1"/>
        <pt x="168" y="1574" on="1"/>
        <pt x="341" y="1574" on="1"/>
        <pt x="341" y="967" on="1"/>
        <pt x="668" y="1190" on="1"/>
        <pt x="740" y="1080" on="1"/>
        <pt x="341" y="810" on="1"/>
        <pt x="341" y="162" on="1"/>
        <pt x="1054" y="162" on="1"/>
        <pt x="1047" y="0" on="1"/>
      </contour>
    </TTGlyph>
    <TTGlyph name="M" xMin="165" yMin="0" xMax="1714" yMax="1554">
      <contour>
        <pt x="165" y="0" on="1"/>
        <pt x="165" y="1554" on="1"/>
        <pt x="454" y="1554" on="1"/>
        <pt x="940" y="282" on="1"/>
        <pt x="1431" y="1554" on="1"/>
        <pt x="1714" y="1554" on="1"/>
        <pt x="1714" y="0" on="1"/>
        <pt x="1541" y="0" on="1"/>
        <pt x="1541" y="1126" on="1"/>
        <pt x="1541" y="1206" on="0"/>
        <pt x="1544" y="1357" on="0"/>
        <pt x="1545" y="1417" on="1"/>
        <pt x="1055" y="150" on="1"/>
        <pt x="823" y="150" on="1"/>
        <pt x="334" y="1417" on="1"/>
        <pt x="336" y="1302" on="1"/>
        <pt x="338" y="1206" on="0"/>
        <pt x="338" y="1126" on="1"/>
        <pt x="338" y="0" on="1"/>
      </contour>
    </TTGlyph>
    <TTGlyph name="N" xMin="165" yMin="0" xMax="1370" yMax="1554">
      <contour>
        <pt x="165" y="1554" on="1"/>
        <pt x="422" y="1554" on="1"/>
        <pt x="1075" y="407" on="1"/>
        <pt x="1197" y="163" on="1"/>
        <pt x="1197" y="1554" on="1"/>
        <pt x="1370" y="1554" on="1"/>
        <pt x="1370" y="0" on="1"/>
        <pt x="1116" y="0" on="1"/>
        <pt x="458" y="1153" on="1"/>
        <pt x="338" y="1390" on="1"/>
        <pt x="338" y="0" on="1"/>
        <pt x="165" y="0" on="1"/>
      </contour>
    </TTGlyph>
    <TTGlyph name="Nacute" xMin="165" yMin="0" xMax="1370" yMax="2020">
      <contour>
        <pt x="165" y="1554" on="1"/>
        <pt x="422" y="1554" on="1"/>
        <pt x="1075" y="407" on="1"/>
        <pt x="1197" y="163" on="1"/>
        <pt x="1197" y="1554" on="1"/>
        <pt x="1370" y="1554" on="1"/>
        <pt x="1370" y="0" on="1"/>
        <pt x="1116" y="0" on="1"/>
        <pt x="458" y="1153" on="1"/>
        <pt x="338" y="1390" on="1"/>
        <pt x="338" y="0" on="1"/>
        <pt x="165" y="0" on="1"/>
      </contour>
      <contour>
        <pt x="788" y="1615" on="1"/>
        <pt x="695" y="1717" on="1"/>
        <pt x="1015" y="2020" on="1"/>
        <pt x="1128" y="1897" on="1"/>
      </contour>
    </TTGlyph>
    <TTGlyph name="Ncaron" xMin="165" yMin="0" xMax="1370" yMax="1940">
      <contour>
        <pt x="165" y="1554" on="1"/>
        <pt x="422" y="1554" on="1"/>
        <pt x="1075" y="407" on="1"/>
        <pt x="1197" y="163" on="1"/>
        <pt x="1197" y="1554" on="1"/>
        <pt x="1370" y="1554" on="1"/>
        <pt x="1370" y="0" on="1"/>
        <pt x="1116" y="0" on="1"/>
        <pt x="458" y="1153" on="1"/>
        <pt x="338" y="1390" on="1"/>
        <pt x="338" y="0" on="1"/>
        <pt x="165" y="0" on="1"/>
      </contour>
      <contour>
        <pt x="768" y="1615" on="1"/>
        <pt x="405" y="1827" on="1"/>
        <pt x="462" y="1940" on="1"/>
        <pt x="768" y="1779" on="1"/>
        <pt x="1074" y="1940" on="1"/>
        <pt x="1131" y="1827" on="1"/>
      </contour>
    </TTGlyph>
    <TTGlyph name="Ncommaaccent" xMin="165" yMin="-540" xMax="1370" yMax="1554">
      <contour>
        <pt x="165" y="1554" on="1"/>
        <pt x="422" y="1554" on="1"/>
        <pt x="1075" y="407" on="1"/>
        <pt x="1197" y="163" on="1"/>
        <pt x="1197" y="1554" on="1"/>
        <pt x="1370" y="1554" on="1"/>
        <pt x="1370" y="0" on="1"/>
        <pt x="1116" y="0" on="1"/>
        <pt x="458" y="1153" on="1"/>
        <pt x="338" y="1390" on="1"/>
        <pt x="338" y="0" on="1"/>
        <pt x="165" y="0" on="1"/>
      </contour>
      <contour>
        <pt x="843" y="-125" on="1"/>
        <pt x="757" y="-540" on="1"/>
        <pt x="630" y="-520" on="1"/>
        <pt x="676" y="-125" on="1"/>
      </contour>
    </TTGlyph>
    <TTGlyph name="Ntilde" xMin="165" yMin="0" xMax="1370" yMax="1958">
      <contour>
        <pt x="165" y="1554" on="1"/>
        <pt x="422" y="1554" on="1"/>
        <pt x="1075" y="407" on="1"/>
        <pt x="1197" y="163" on="1"/>
        <pt x="1197" y="1554" on="1"/>
        <pt x="1370" y="1554" on="1"/>
        <pt x="1370" y="0" on="1"/>
        <pt x="1116" y="0" on="1"/>
        <pt x="458" y="1153" on="1"/>
        <pt x="338" y="1390" on="1"/>
        <pt x="338" y="0" on="1"/>
        <pt x="165" y="0" on="1"/>
      </contour>
      <contour>
        <pt x="407" y="1769" on="1"/>
        <pt x="442" y="1849" on="0"/>
        <pt x="556" y="1947" on="0"/>
        <pt x="663" y="1958" on="0"/>
        <pt x="739" y="1926" on="0"/>
        <pt x="774" y="1904" on="1"/>
        <pt x="774" y="1904" on="0"/>
        <pt x="842" y="1864" on="1"/>
        <pt x="955" y="1796" on="0"/>
        <pt x="1025" y="1939" on="1"/>
        <pt x="1129" y="1878" on="1"/>
        <pt x="1094" y="1797" on="0"/>
        <pt x="1037" y="1750" on="1"/>
        <pt x="920" y="1652" on="0"/>
        <pt x="761" y="1755" on="1"/>
        <pt x="672" y="1813" on="0"/>
        <pt x="636" y="1813" on="1"/>
        <pt x="562" y="1813" on="0"/>
        <pt x="511" y="1709" on="1"/>
      </contour>
    </TTGlyph>
    <TTGlyph name="O" xMin="134" yMin="-20" xMax="1573" yMax="1568">
      <contour>
        <pt x="134" y="770" on="1"/>
        <pt x="134" y="959" on="0"/>
        <pt x="241" y="1255" on="0"/>
        <pt x="338" y="1358" on="1"/>
        <pt x="537" y="1568" on="0"/>
        <pt x="864" y="1568" on="1"/>
        <pt x="1209" y="1568" on="0"/>
        <pt x="1392" y="1358" on="1"/>
        <pt x="1573" y="1151" on="0"/>
        <pt x="1573" y="770" on="1"/>
        <pt x="1573" y="399" on="0"/>
        <pt x="1369" y="187" on="1"/>
        <pt x="1170" y="-20" on="0"/>
        <pt x="842" y="-20" on="1"/>
        <pt x="513" y="-20" on="0"/>
        <pt x="324" y="187" on="1"/>
        <pt x="134" y="396" on="0"/>
      </contour>
      <contour>
        <pt x="312" y="768" on="1"/>
        <pt x="311" y="613" on="0"/>
        <pt x="385" y="374" on="0"/>
        <pt x="456" y="294" on="1"/>
        <pt x="599" y="133" on="0"/>
        <pt x="856" y="137" on="1"/>
        <pt x="1109" y="139" on="0"/>
        <pt x="1252" y="302" on="1"/>
        <pt x="1400" y="471" on="0"/>
        <pt x="1396" y="781" on="1"/>
        <pt x="1388" y="1411" on="0"/>
        <pt x="842" y="1411" on="1"/>
        <pt x="593" y="1411" on="0"/>
        <pt x="454" y="1243" on="1"/>
        <pt x="314" y="1074" on="0"/>
      </contour>
    </TTGlyph>
    <TTGlyph name="OE" xMin="106" yMin="-20" xMax="2278" yMax="1568">
      <contour>
        <pt x="1363" y="250" on="1"/>
        <pt x="1169" y="-20" on="0"/>
        <pt x="814" y="-20" on="1"/>
        <pt x="485" y="-20" on="0"/>
        <pt x="296" y="187" on="1"/>
        <pt x="106" y="396" on="0"/>
        <pt x="106" y="770" on="1"/>
        <pt x="106" y="1142" on="0"/>
        <pt x="310" y="1358" on="1"/>
        <pt x="509" y="1568" on="0"/>
        <pt x="1181" y="1568" on="0"/>
        <pt x="1363" y="1322" on="1"/>
        <pt x="1363" y="1554" on="1"/>
        <pt x="2258" y="1554" on="1"/>
        <pt x="2249" y="1394" on="1"/>
        <pt x="1534" y="1394" on="1"/>
        <pt x="1534" y="884" on="1"/>
        <pt x="2175" y="884" on="1"/>
        <pt x="2175" y="726" on="1"/>
        <pt x="1534" y="726" on="1"/>
        <pt x="1534" y="159" on="1"/>
        <pt x="2267" y="159" on="1"/>
        <pt x="2278" y="0" on="1"/>
        <pt x="1363" y="0" on="1"/>
      </contour>
      <contour>
        <pt x="284" y="768" on="1"/>
        <pt x="283" y="613" on="0"/>
        <pt x="357" y="374" on="0"/>
        <pt x="428" y="294" on="1"/>
        <pt x="571" y="133" on="0"/>
        <pt x="828" y="137" on="1"/>
        <pt x="1081" y="139" on="0"/>
        <pt x="1224" y="302" on="1"/>
        <pt x="1372" y="471" on="0"/>
        <pt x="1368" y="781" on="1"/>
        <pt x="1360" y="1411" on="0"/>
        <pt x="814" y="1411" on="1"/>
        <pt x="565" y="1411" on="0"/>
        <pt x="426" y="1243" on="1"/>
        <pt x="286" y="1074" on="0"/>
      </contour>
    </TTGlyph>
    <TTGlyph name="Oacute" xMin="134" yMin="-20" xMax="1573" yMax="2020">
      <contour>
        <pt x="134" y="770" on="1"/>
        <pt x="134" y="959" on="0"/>
        <pt x="241" y="1255" on="0"/>
        <pt x="338" y="1358" on="1"/>
        <pt x="537" y="1568" on="0"/>
        <pt x="864" y="1568" on="1"/>
        <pt x="1209" y="1568" on="0"/>
        <pt x="1392" y="1358" on="1"/>
        <pt x="1573" y="1151" on="0"/>
        <pt x="1573" y="770" on="1"/>
        <pt x="1573" y="399" on="0"/>
        <pt x="1369" y="187" on="1"/>
        <pt x="1170" y="-20" on="0"/>
        <pt x="842" y="-20" on="1"/>
        <pt x="513" y="-20" on="0"/>
        <pt x="324" y="187" on="1"/>
        <pt x="134" y="396" on="0"/>
      </contour>
      <contour>
        <pt x="312" y="768" on="1"/>
        <pt x="311" y="613" on="0"/>
        <pt x="385" y="374" on="0"/>
        <pt x="456" y="294" on="1"/>
        <pt x="599" y="133" on="0"/>
        <pt x="856" y="137" on="1"/>
        <pt x="1109" y="139" on="0"/>
        <pt x="1252" y="302" on="1"/>
        <pt x="1400" y="471" on="0"/>
        <pt x="1396" y="781" on="1"/>
        <pt x="1388" y="1411" on="0"/>
        <pt x="842" y="1411" on="1"/>
        <pt x="593" y="1411" on="0"/>
        <pt x="454" y="1243" on="1"/>
        <pt x="314" y="1074" on="0"/>
      </contour>
      <contour>
        <pt x="874" y="1615" on="1"/>
        <pt x="781" y="1717" on="1"/>
        <pt x="1101" y="2020" on="1"/>
        <pt x="1214" y="1897" on="1"/>
      </contour>
    </TTGlyph>
    <TTGlyph name="Obreve" xMin="134" yMin="-20" xMax="1573" yMax="1978">
      <contour>
        <pt x="134" y="770" on="1"/>
        <pt x="134" y="959" on="0"/>
        <pt x="241" y="1255" on="0"/>
        <pt x="338" y="1358" on="1"/>
        <pt x="537" y="1568" on="0"/>
        <pt x="864" y="1568" on="1"/>
        <pt x="1209" y="1568" on="0"/>
        <pt x="1392" y="1358" on="1"/>
        <pt x="1573" y="1151" on="0"/>
        <pt x="1573" y="770" on="1"/>
        <pt x="1573" y="399" on="0"/>
        <pt x="1369" y="187" on="1"/>
        <pt x="1170" y="-20" on="0"/>
        <pt x="842" y="-20" on="1"/>
        <pt x="513" y="-20" on="0"/>
        <pt x="324" y="187" on="1"/>
        <pt x="134" y="396" on="0"/>
      </contour>
      <contour>
        <pt x="312" y="768" on="1"/>
        <pt x="311" y="613" on="0"/>
        <pt x="385" y="374" on="0"/>
        <pt x="456" y="294" on="1"/>
        <pt x="599" y="133" on="0"/>
        <pt x="856" y="137" on="1"/>
        <pt x="1109" y="139" on="0"/>
        <pt x="1252" y="302" on="1"/>
        <pt x="1400" y="471" on="0"/>
        <pt x="1396" y="781" on="1"/>
        <pt x="1388" y="1411" on="0"/>
        <pt x="842" y="1411" on="1"/>
        <pt x="593" y="1411" on="0"/>
        <pt x="454" y="1243" on="1"/>
        <pt x="314" y="1074" on="0"/>
      </contour>
      <contour>
        <pt x="855" y="1700" on="1"/>
        <pt x="658" y="1700" on="0"/>
        <pt x="575" y="1838" on="1"/>
        <pt x="548" y="1882" on="0"/>
        <pt x="538" y="1938" on="1"/>
        <pt x="670" y="1978" on="1"/>
        <pt x="681" y="1911" on="0"/>
        <pt x="740" y="1870" on="1"/>
        <pt x="792" y="1834" on="0"/>
        <pt x="883" y="1834" on="0"/>
        <pt x="944" y="1852" on="0"/>
        <pt x="970" y="1870" on="1"/>
        <pt x="1030" y="1911" on="0"/>
        <pt x="1041" y="1978" on="1"/>
        <pt x="1172" y="1938" on="1"/>
        <pt x="1154" y="1827" on="0"/>
        <pt x="1066" y="1762" on="1"/>
        <pt x="981" y="1700" on="0"/>
      </contour>
    </TTGlyph>
    <TTGlyph name="Ocircumflex" xMin="134" yMin="-20" xMax="1573" yMax="1940">
      <contour>
        <pt x="134" y="770" on="1"/>
        <pt x="134" y="959" on="0"/>
        <pt x="241" y="1255" on="0"/>
        <pt x="338" y="1358" on="1"/>
        <pt x="537" y="1568" on="0"/>
        <pt x="864" y="1568" on="1"/>
        <pt x="1209" y="1568" on="0"/>
        <pt x="1392" y="1358" on="1"/>
        <pt x="1573" y="1151" on="0"/>
        <pt x="1573" y="770" on="1"/>
        <pt x="1573" y="399" on="0"/>
        <pt x="1369" y="187" on="1"/>
        <pt x="1170" y="-20" on="0"/>
        <pt x="842" y="-20" on="1"/>
        <pt x="513" y="-20" on="0"/>
        <pt x="324" y="187" on="1"/>
        <pt x="134" y="396" on="0"/>
      </contour>
      <contour>
        <pt x="312" y="768" on="1"/>
        <pt x="311" y="613" on="0"/>
        <pt x="385" y="374" on="0"/>
        <pt x="456" y="294" on="1"/>
        <pt x="599" y="133" on="0"/>
        <pt x="856" y="137" on="1"/>
        <pt x="1109" y="139" on="0"/>
        <pt x="1252" y="302" on="1"/>
        <pt x="1400" y="471" on="0"/>
        <pt x="1396" y="781" on="1"/>
        <pt x="1388" y="1411" on="0"/>
        <pt x="842" y="1411" on="1"/>
        <pt x="593" y="1411" on="0"/>
        <pt x="454" y="1243" on="1"/>
        <pt x="314" y="1074" on="0"/>
      </contour>
      <contour>
        <pt x="550" y="1615" on="1"/>
        <pt x="493" y="1728" on="1"/>
        <pt x="856" y="1940" on="1"/>
        <pt x="1219" y="1728" on="1"/>
        <pt x="1162" y="1615" on="1"/>
        <pt x="856" y="1776" on="1"/>
      </contour>
    </TTGlyph>
    <TTGlyph name="Odieresis" xMin="134" yMin="-20" xMax="1573" yMax="1926">
      <contour>
        <pt x="134" y="770" on="1"/>
        <pt x="134" y="959" on="0"/>
        <pt x="241" y="1255" on="0"/>
        <pt x="338" y="1358" on="1"/>
        <pt x="537" y="1568" on="0"/>
        <pt x="864" y="1568" on="1"/>
        <pt x="1209" y="1568" on="0"/>
        <pt x="1392" y="1358" on="1"/>
        <pt x="1573" y="1151" on="0"/>
        <pt x="1573" y="770" on="1"/>
        <pt x="1573" y="399" on="0"/>
        <pt x="1369" y="187" on="1"/>
        <pt x="1170" y="-20" on="0"/>
        <pt x="842" y="-20" on="1"/>
        <pt x="513" y="-20" on="0"/>
        <pt x="324" y="187" on="1"/>
        <pt x="134" y="396" on="0"/>
      </contour>
      <contour>
        <pt x="312" y="768" on="1"/>
        <pt x="311" y="613" on="0"/>
        <pt x="385" y="374" on="0"/>
        <pt x="456" y="294" on="1"/>
        <pt x="599" y="133" on="0"/>
        <pt x="856" y="137" on="1"/>
        <pt x="1109" y="139" on="0"/>
        <pt x="1252" y="302" on="1"/>
        <pt x="1400" y="471" on="0"/>
        <pt x="1396" y="781" on="1"/>
        <pt x="1388" y="1411" on="0"/>
        <pt x="842" y="1411" on="1"/>
        <pt x="593" y="1411" on="0"/>
        <pt x="454" y="1243" on="1"/>
        <pt x="314" y="1074" on="0"/>
      </contour>
      <contour>
        <pt x="960" y="1926" on="1"/>
        <pt x="1137" y="1926" on="1"/>
        <pt x="1137" y="1698" on="1"/>
        <pt x="960" y="1698" on="1"/>
      </contour>
      <contour>
        <pt x="573" y="1926" on="1"/>
        <pt x="749" y="1926" on="1"/>
        <pt x="749" y="1698" on="1"/>
        <pt x="573" y="1698" on="1"/>
      </contour>
    </TTGlyph>
    <TTGlyph name="Ograve" xMin="134" yMin="-20" xMax="1573" yMax="2020">
      <contour>
        <pt x="134" y="770" on="1"/>
        <pt x="134" y="959" on="0"/>
        <pt x="241" y="1255" on="0"/>
        <pt x="338" y="1358" on="1"/>
        <pt x="537" y="1568" on="0"/>
        <pt x="864" y="1568" on="1"/>
        <pt x="1209" y="1568" on="0"/>
        <pt x="1392" y="1358" on="1"/>
        <pt x="1573" y="1151" on="0"/>
        <pt x="1573" y="770" on="1"/>
        <pt x="1573" y="399" on="0"/>
        <pt x="1369" y="187" on="1"/>
        <pt x="1170" y="-20" on="0"/>
        <pt x="842" y="-20" on="1"/>
        <pt x="513" y="-20" on="0"/>
        <pt x="324" y="187" on="1"/>
        <pt x="134" y="396" on="0"/>
      </contour>
      <contour>
        <pt x="312" y="768" on="1"/>
        <pt x="311" y="613" on="0"/>
        <pt x="385" y="374" on="0"/>
        <pt x="456" y="294" on="1"/>
        <pt x="599" y="133" on="0"/>
        <pt x="856" y="137" on="1"/>
        <pt x="1109" y="139" on="0"/>
        <pt x="1252" y="302" on="1"/>
        <pt x="1400" y="471" on="0"/>
        <pt x="1396" y="781" on="1"/>
        <pt x="1388" y="1411" on="0"/>
        <pt x="842" y="1411" on="1"/>
        <pt x="593" y="1411" on="0"/>
        <pt x="454" y="1243" on="1"/>
        <pt x="314" y="1074" on="0"/>
      </contour>
      <contour>
        <pt x="874" y="1615" on="1"/>
        <pt x="534" y="1897" on="1"/>
        <pt x="647" y="2020" on="1"/>
        <pt x="967" y="1717" on="1"/>
      </contour>
    </TTGlyph>
    <TTGlyph name="Ohungarumlaut" xMin="134" yMin="-20" xMax="1573" yMax="2020">
      <contour>
        <pt x="134" y="770" on="1"/>
        <pt x="134" y="959" on="0"/>
        <pt x="241" y="1255" on="0"/>
        <pt x="338" y="1358" on="1"/>
        <pt x="537" y="1568" on="0"/>
        <pt x="864" y="1568" on="1"/>
        <pt x="1209" y="1568" on="0"/>
        <pt x="1392" y="1358" on="1"/>
        <pt x="1573" y="1151" on="0"/>
        <pt x="1573" y="770" on="1"/>
        <pt x="1573" y="399" on="0"/>
        <pt x="1369" y="187" on="1"/>
        <pt x="1170" y="-20" on="0"/>
        <pt x="842" y="-20" on="1"/>
        <pt x="513" y="-20" on="0"/>
        <pt x="324" y="187" on="1"/>
        <pt x="134" y="396" on="0"/>
      </contour>
      <contour>
        <pt x="312" y="768" on="1"/>
        <pt x="311" y="613" on="0"/>
        <pt x="385" y="374" on="0"/>
        <pt x="456" y="294" on="1"/>
        <pt x="599" y="133" on="0"/>
        <pt x="856" y="137" on="1"/>
        <pt x="1109" y="139" on="0"/>
        <pt x="1252" y="302" on="1"/>
        <pt x="1400" y="471" on="0"/>
        <pt x="1396" y="781" on="1"/>
        <pt x="1388" y="1411" on="0"/>
        <pt x="842" y="1411" on="1"/>
        <pt x="593" y="1411" on="0"/>
        <pt x="454" y="1243" on="1"/>
        <pt x="314" y="1074" on="0"/>
      </contour>
      <contour>
        <pt x="576" y="1735" on="1"/>
        <pt x="912" y="2020" on="1"/>
        <pt x="1046" y="1933" on="1"/>
        <pt x="648" y="1620" on="1"/>
      </contour>
      <contour>
        <pt x="958" y="1735" on="1"/>
        <pt x="1298" y="2015" on="1"/>
        <pt x="1433" y="1927" on="1"/>
        <pt x="1030" y="1620" on="1"/>
      </contour>
    </TTGlyph>
    <TTGlyph name="Omacron" xMin="134" yMin="-20" xMax="1573" yMax="1859">
      <contour>
        <pt x="134" y="770" on="1"/>
        <pt x="134" y="959" on="0"/>
        <pt x="241" y="1255" on="0"/>
        <pt x="338" y="1358" on="1"/>
        <pt x="537" y="1568" on="0"/>
        <pt x="864" y="1568" on="1"/>
        <pt x="1209" y="1568" on="0"/>
        <pt x="1392" y="1358" on="1"/>
        <pt x="1573" y="1151" on="0"/>
        <pt x="1573" y="770" on="1"/>
        <pt x="1573" y="399" on="0"/>
        <pt x="1369" y="187" on="1"/>
        <pt x="1170" y="-20" on="0"/>
        <pt x="842" y="-20" on="1"/>
        <pt x="513" y="-20" on="0"/>
        <pt x="324" y="187" on="1"/>
        <pt x="134" y="396" on="0"/>
      </contour>
      <contour>
        <pt x="312" y="768" on="1"/>
        <pt x="311" y="613" on="0"/>
        <pt x="385" y="374" on="0"/>
        <pt x="456" y="294" on="1"/>
        <pt x="599" y="133" on="0"/>
        <pt x="856" y="137" on="1"/>
        <pt x="1109" y="139" on="0"/>
        <pt x="1252" y="302" on="1"/>
        <pt x="1400" y="471" on="0"/>
        <pt x="1396" y="781" on="1"/>
        <pt x="1388" y="1411" on="0"/>
        <pt x="842" y="1411" on="1"/>
        <pt x="593" y="1411" on="0"/>
        <pt x="454" y="1243" on="1"/>
        <pt x="314" y="1074" on="0"/>
      </contour>
      <contour>
        <pt x="539" y="1859" on="1"/>
        <pt x="1171" y="1859" on="1"/>
        <pt x="1171" y="1722" on="1"/>
        <pt x="539" y="1722" on="1"/>
      </contour>
    </TTGlyph>
    <TTGlyph name="Omega" xMin="290" yMin="0" xMax="1593" yMax="1545">
      <contour>
        <pt x="1274" y="145" on="1"/>
        <pt x="1415" y="150" on="0"/>
        <pt x="1592" y="172" on="1"/>
        <pt x="1593" y="0" on="1"/>
        <pt x="1059" y="0" on="1"/>
        <pt x="1059" y="161" on="1"/>
        <pt x="1283" y="238" on="0"/>
        <pt x="1364" y="618" on="1"/>
        <pt x="1391" y="741" on="0"/>
        <pt x="1391" y="988" on="0"/>
        <pt x="1315" y="1203" on="0"/>
        <pt x="1252" y="1270" on="1"/>
        <pt x="1133" y="1398" on="0"/>
        <pt x="941" y="1398" on="1"/>
        <pt x="757" y="1398" on="0"/>
        <pt x="634" y="1270" on="1"/>
        <pt x="492" y="1124" on="0"/>
        <pt x="492" y="834" on="1"/>
        <pt x="492" y="669" on="0"/>
        <pt x="558" y="479" on="1"/>
        <pt x="610" y="326" on="0"/>
        <pt x="706" y="232" on="1"/>
        <pt x="757" y="182" on="0"/>
        <pt x="824" y="159" on="1"/>
        <pt x="823" y="0" on="1"/>
        <pt x="291" y="0" on="1"/>
        <pt x="290" y="172" on="1"/>
        <pt x="468" y="150" on="0"/>
        <pt x="608" y="145" on="1"/>
        <pt x="417" y="299" on="0"/>
        <pt x="342" y="574" on="1"/>
        <pt x="311" y="687" on="0"/>
        <pt x="311" y="1010" on="0"/>
        <pt x="418" y="1276" on="0"/>
        <pt x="506" y="1366" on="1"/>
        <pt x="684" y="1545" on="0"/>
        <pt x="941" y="1545" on="1"/>
        <pt x="1195" y="1545" on="0"/>
        <pt x="1373" y="1370" on="1"/>
        <pt x="1572" y="1174" on="0"/>
        <pt x="1572" y="834" on="1"/>
        <pt x="1572" y="573" on="0"/>
        <pt x="1464" y="376" on="1"/>
        <pt x="1388" y="236" on="0"/>
      </contour>
    </TTGlyph>
    <TTGlyph name="Oslash" xMin="134" yMin="-113" xMax="1573" yMax="1734">
      <contour>
        <pt x="1207" y="1497" on="1"/>
        <pt x="1573" y="1322" on="0"/>
        <pt x="1573" y="770" on="1"/>
        <pt x="1573" y="399" on="0"/>
        <pt x="1369" y="187" on="1"/>
        <pt x="1170" y="-20" on="0"/>
        <pt x="842" y="-20" on="1"/>
        <pt x="721" y="-20" on="0"/>
        <pt x="616" y="9" on="1"/>
        <pt x="568" y="-113" on="1"/>
        <pt x="428" y="-57" on="1"/>
        <pt x="477" y="66" on="1"/>
        <pt x="312" y="157" on="0"/>
        <pt x="134" y="513" on="0"/>
        <pt x="134" y="770" on="1"/>
        <pt x="134" y="1142" on="0"/>
        <pt x="338" y="1358" on="1"/>
        <pt x="537" y="1568" on="0"/>
        <pt x="864" y="1568" on="1"/>
        <pt x="972" y="1568" on="0"/>
        <pt x="1064" y="1547" on="1"/>
        <pt x="1139" y="1734" on="1"/>
        <pt x="1279" y="1678" on="1"/>
      </contour>
      <contour>
        <pt x="1004" y="1394" on="1"/>
        <pt x="928" y="1411" on="0"/>
        <pt x="718" y="1411" on="0"/>
        <pt x="522" y="1325" on="0"/>
        <pt x="454" y="1243" on="1"/>
        <pt x="314" y="1074" on="0"/>
        <pt x="312" y="770" on="1"/>
        <pt x="308" y="378" on="0"/>
        <pt x="538" y="221" on="1"/>
      </contour>
      <contour>
        <pt x="675" y="158" on="1"/>
        <pt x="758" y="135" on="0"/>
        <pt x="981" y="138" on="0"/>
        <pt x="1182" y="222" on="0"/>
        <pt x="1252" y="302" on="1"/>
        <pt x="1400" y="471" on="0"/>
        <pt x="1396" y="770" on="1"/>
        <pt x="1390" y="1201" on="0"/>
        <pt x="1145" y="1341" on="1"/>
      </contour>
    </TTGlyph>
    <TTGlyph name="Otilde" xMin="134" yMin="-20" xMax="1573" yMax="1958">
      <contour>
        <pt x="134" y="770" on="1"/>
        <pt x="134" y="959" on="0"/>
        <pt x="241" y="1255" on="0"/>
        <pt x="338" y="1358" on="1"/>
        <pt x="537" y="1568" on="0"/>
        <pt x="864" y="1568" on="1"/>
        <pt x="1209" y="1568" on="0"/>
        <pt x="1392" y="1358" on="1"/>
        <pt x="1573" y="1151" on="0"/>
        <pt x="1573" y="770" on="1"/>
        <pt x="1573" y="399" on="0"/>
        <pt x="1369" y="187" on="1"/>
        <pt x="1170" y="-20" on="0"/>
        <pt x="842" y="-20" on="1"/>
        <pt x="513" y="-20" on="0"/>
        <pt x="324" y="187" on="1"/>
        <pt x="134" y="396" on="0"/>
      </contour>
      <contour>
        <pt x="312" y="768" on="1"/>
        <pt x="311" y="613" on="0"/>
        <pt x="385" y="374" on="0"/>
        <pt x="456" y="294" on="1"/>
        <pt x="599" y="133" on="0"/>
        <pt x="856" y="137" on="1"/>
        <pt x="1109" y="139" on="0"/>
        <pt x="1252" y="302" on="1"/>
        <pt x="1400" y="471" on="0"/>
        <pt x="1396" y="781" on="1"/>
        <pt x="1388" y="1411" on="0"/>
        <pt x="842" y="1411" on="1"/>
        <pt x="593" y="1411" on="0"/>
        <pt x="454" y="1243" on="1"/>
        <pt x="314" y="1074" on="0"/>
      </contour>
      <contour>
        <pt x="494" y="1769" on="1"/>
        <pt x="529" y="1849" on="0"/>
        <pt x="643" y="1947" on="0"/>
        <pt x="750" y="1958" on="0"/>
        <pt x="826" y="1926" on="0"/>
        <pt x="861" y="1904" on="1"/>
        <pt x="861" y="1904" on="0"/>
        <pt x="929" y="1864" on="1"/>
        <pt x="1042" y="1796" on="0"/>
        <pt x="1112" y="1939" on="1"/>
        <pt x="1216" y="1878" on="1"/>
        <pt x="1181" y="1797" on="0"/>
        <pt x="1124" y="1750" on="1"/>
        <pt x="1007" y="1652" on="0"/>
        <pt x="848" y="1755" on="1"/>
        <pt x="759" y="1813" on="0"/>
        <pt x="723" y="1813" on="1"/>
        <pt x="649" y="1813" on="0"/>
        <pt x="598" y="1709" on="1"/>
      </contour>
    </TTGlyph>
    <TTGlyph name="P" xMin="208" yMin="0" xMax="1254" yMax="1560">
      <contour>
        <pt x="208" y="1554" on="1"/>
        <pt x="638" y="1554" on="1"/>
        <pt x="1118" y="1560" on="0"/>
        <pt x="1220" y="1250" on="1"/>
        <pt x="1254" y="1149" on="0"/>
        <pt x="1249" y="903" on="0"/>
        <pt x="1170" y="706" on="0"/>
        <pt x="1094" y="634" on="1"/>
        <pt x="930" y="482" on="0"/>
        <pt x="640" y="486" on="1"/>
        <pt x="382" y="486" on="1"/>
        <pt x="382" y="0" on="1"/>
        <pt x="208" y="0" on="1"/>
      </contour>
      <contour>
        <pt x="640" y="636" on="1"/>
        <pt x="945" y="633" on="0"/>
        <pt x="1040" y="860" on="1"/>
        <pt x="1070" y="932" on="0"/>
        <pt x="1073" y="1115" on="0"/>
        <pt x="1028" y="1255" on="0"/>
        <pt x="976" y="1303" on="1"/>
        <pt x="872" y="1400" on="0"/>
        <pt x="638" y="1400" on="1"/>
        <pt x="382" y="1400" on="1"/>
        <pt x="382" y="636" on="1"/>
      </contour>
    </TTGlyph>
    <TTGlyph name="Q" xMin="120" yMin="-356" xMax="1559" yMax="1568">
      <contour>
        <pt x="1060" y="11" on="1"/>
        <pt x="948" y="-20" on="0"/>
        <pt x="664" y="-20" on="0"/>
        <pt x="402" y="86" on="0"/>
        <pt x="310" y="187" on="1"/>
        <pt x="120" y="396" on="0"/>
        <pt x="120" y="770" on="1"/>
        <pt x="120" y="1142" on="0"/>
        <pt x="324" y="1358" on="1"/>
        <pt x="523" y="1568" on="0"/>
        <pt x="850" y="1568" on="1"/>
        <pt x="1195" y="1568" on="0"/>
        <pt x="1378" y="1358" on="1"/>
        <pt x="1559" y="1151" on="0"/>
        <pt x="1559" y="770" on="1"/>
        <pt x="1559" y="400" on="0"/>
        <pt x="1356" y="188" on="1"/>
        <pt x="1292" y="121" on="0"/>
        <pt x="1211" y="75" on="1"/>
        <pt x="1475" y="-243" on="1"/>
        <pt x="1307" y="-356" on="1"/>
        <pt x="1271" y="-304" on="0"/>
        <pt x="1185" y="-163" on="0"/>
        <pt x="1137" y="-95" on="1"/>
      </contour>
      <contour>
        <pt x="298" y="768" on="1"/>
        <pt x="297" y="613" on="0"/>
        <pt x="371" y="374" on="0"/>
        <pt x="442" y="294" on="1"/>
        <pt x="585" y="133" on="0"/>
        <pt x="842" y="137" on="1"/>
        <pt x="1095" y="139" on="0"/>
        <pt x="1238" y="302" on="1"/>
        <pt x="1386" y="471" on="0"/>
        <pt x="1382" y="781" on="1"/>
        <pt x="1374" y="1411" on="0"/>
        <pt x="828" y="1411" on="1"/>
        <pt x="579" y="1411" on="0"/>
        <pt x="440" y="1243" on="1"/>
        <pt x="300" y="1074" on="0"/>
      </contour>
    </TTGlyph>
    <TTGlyph name="R" xMin="220" yMin="-20" xMax="1268" yMax="1560">
      <contour>
        <pt x="713" y="575" on="1"/>
        <pt x="682" y="571" on="0"/>
        <pt x="620" y="571" on="1"/>
        <pt x="393" y="571" on="1"/>
        <pt x="393" y="0" on="1"/>
        <pt x="220" y="0" on="1"/>
        <pt x="220" y="1554" on="1"/>
        <pt x="643" y="1554" on="1"/>
        <pt x="1105" y="1560" on="0"/>
        <pt x="1195" y="1262" on="1"/>
        <pt x="1223" y="1169" on="0"/>
        <pt x="1222" y="1056" on="1"/>
        <pt x="1214" y="876" on="0"/>
        <pt x="1056" y="650" on="0"/>
        <pt x="894" y="602" on="1"/>
        <pt x="936" y="534" on="1"/>
        <pt x="967" y="486" on="0"/>
        <pt x="1009" y="426" on="1"/>
        <pt x="1268" y="88" on="1"/>
        <pt x="1090" y="-20" on="1"/>
        <pt x="1039" y="72" on="0"/>
        <pt x="980" y="165" on="1"/>
        <pt x="788" y="464" on="1"/>
        <pt x="753" y="519" on="0"/>
      </contour>
      <contour>
        <pt x="620" y="723" on="1"/>
        <pt x="932" y="720" on="0"/>
        <pt x="1012" y="904" on="1"/>
        <pt x="1040" y="968" on="0"/>
        <pt x="1045" y="1141" on="0"/>
        <pt x="1004" y="1269" on="0"/>
        <pt x="956" y="1312" on="1"/>
        <pt x="859" y="1402" on="0"/>
        <pt x="643" y="1400" on="1"/>
        <pt x="393" y="1400" on="1"/>
        <pt x="393" y="723" on="1"/>
      </contour>
    </TTGlyph>
    <TTGlyph name="Racute" xMin="220" yMin="-20" xMax="1268" yMax="2020">
      <contour>
        <pt x="713" y="575" on="1"/>
        <pt x="682" y="571" on="0"/>
        <pt x="620" y="571" on="1"/>
        <pt x="393" y="571" on="1"/>
        <pt x="393" y="0" on="1"/>
        <pt x="220" y="0" on="1"/>
        <pt x="220" y="1554" on="1"/>
        <pt x="643" y="1554" on="1"/>
        <pt x="1105" y="1560" on="0"/>
        <pt x="1195" y="1262" on="1"/>
        <pt x="1223" y="1169" on="0"/>
        <pt x="1222" y="1056" on="1"/>
        <pt x="1214" y="876" on="0"/>
        <pt x="1056" y="650" on="0"/>
        <pt x="894" y="602" on="1"/>
        <pt x="936" y="534" on="1"/>
        <pt x="967" y="486" on="0"/>
        <pt x="1009" y="426" on="1"/>
        <pt x="1268" y="88" on="1"/>
        <pt x="1090" y="-20" on="1"/>
        <pt x="1039" y="72" on="0"/>
        <pt x="980" y="165" on="1"/>
        <pt x="788" y="464" on="1"/>
        <pt x="753" y="519" on="0"/>
      </contour>
      <contour>
        <pt x="620" y="723" on="1"/>
        <pt x="932" y="720" on="0"/>
        <pt x="1012" y="904" on="1"/>
        <pt x="1040" y="968" on="0"/>
        <pt x="1045" y="1141" on="0"/>
        <pt x="1004" y="1269" on="0"/>
        <pt x="956" y="1312" on="1"/>
        <pt x="859" y="1402" on="0"/>
        <pt x="643" y="1400" on="1"/>
        <pt x="393" y="1400" on="1"/>
        <pt x="393" y="723" on="1"/>
      </contour>
      <contour>
        <pt x="764" y="1615" on="1"/>
        <pt x="671" y="1717" on="1"/>
        <pt x="991" y="2020" on="1"/>
        <pt x="1104" y="1897" on="1"/>
      </contour>
    </TTGlyph>
    <TTGlyph name="Rcaron" xMin="220" yMin="-20" xMax="1268" yMax="1940">
      <contour>
        <pt x="713" y="575" on="1"/>
        <pt x="682" y="571" on="0"/>
        <pt x="620" y="571" on="1"/>
        <pt x="393" y="571" on="1"/>
        <pt x="393" y="0" on="1"/>
        <pt x="220" y="0" on="1"/>
        <pt x="220" y="1554" on="1"/>
        <pt x="643" y="1554" on="1"/>
        <pt x="1105" y="1560" on="0"/>
        <pt x="1195" y="1262" on="1"/>
        <pt x="1223" y="1169" on="0"/>
        <pt x="1222" y="1056" on="1"/>
        <pt x="1214" y="876" on="0"/>
        <pt x="1056" y="650" on="0"/>
        <pt x="894" y="602" on="1"/>
        <pt x="936" y="534" on="1"/>
        <pt x="967" y="486" on="0"/>
        <pt x="1009" y="426" on="1"/>
        <pt x="1268" y="88" on="1"/>
        <pt x="1090" y="-20" on="1"/>
        <pt x="1039" y="72" on="0"/>
        <pt x="980" y="165" on="1"/>
        <pt x="788" y="464" on="1"/>
        <pt x="753" y="519" on="0"/>
      </contour>
      <contour>
        <pt x="620" y="723" on="1"/>
        <pt x="932" y="720" on="0"/>
        <pt x="1012" y="904" on="1"/>
        <pt x="1040" y="968" on="0"/>
        <pt x="1045" y="1141" on="0"/>
        <pt x="1004" y="1269" on="0"/>
        <pt x="956" y="1312" on="1"/>
        <pt x="859" y="1402" on="0"/>
        <pt x="643" y="1400" on="1"/>
        <pt x="393" y="1400" on="1"/>
        <pt x="393" y="723" on="1"/>
      </contour>
      <contour>
        <pt x="744" y="1615" on="1"/>
        <pt x="381" y="1827" on="1"/>
        <pt x="438" y="1940" on="1"/>
        <pt x="744" y="1779" on="1"/>
        <pt x="1050" y="1940" on="1"/>
        <pt x="1107" y="1827" on="1"/>
      </contour>
    </TTGlyph>
    <TTGlyph name="Rcommaaccent" xMin="220" yMin="-540" xMax="1268" yMax="1560">
      <contour>
        <pt x="713" y="575" on="1"/>
        <pt x="682" y="571" on="0"/>
        <pt x="620" y="571" on="1"/>
        <pt x="393" y="571" on="1"/>
        <pt x="393" y="0" on="1"/>
        <pt x="220" y="0" on="1"/>
        <pt x="220" y="1554" on="1"/>
        <pt x="643" y="1554" on="1"/>
        <pt x="1105" y="1560" on="0"/>
        <pt x="1195" y="1262" on="1"/>
        <pt x="1223" y="1169" on="0"/>
        <pt x="1222" y="1056" on="1"/>
        <pt x="1214" y="876" on="0"/>
        <pt x="1056" y="650" on="0"/>
        <pt x="894" y="602" on="1"/>
        <pt x="936" y="534" on="1"/>
        <pt x="967" y="486" on="0"/>
        <pt x="1009" y="426" on="1"/>
        <pt x="1268" y="88" on="1"/>
        <pt x="1090" y="-20" on="1"/>
        <pt x="1039" y="72" on="0"/>
        <pt x="980" y="165" on="1"/>
        <pt x="788" y="464" on="1"/>
        <pt x="753" y="519" on="0"/>
      </contour>
      <contour>
        <pt x="620" y="723" on="1"/>
        <pt x="932" y="720" on="0"/>
        <pt x="1012" y="904" on="1"/>
        <pt x="1040" y="968" on="0"/>
        <pt x="1045" y="1141" on="0"/>
        <pt x="1004" y="1269" on="0"/>
        <pt x="956" y="1312" on="1"/>
        <pt x="859" y="1402" on="0"/>
        <pt x="643" y="1400" on="1"/>
        <pt x="393" y="1400" on="1"/>
        <pt x="393" y="723" on="1"/>
      </contour>
      <contour>
        <pt x="851" y="-125" on="1"/>
        <pt x="765" y="-540" on="1"/>
        <pt x="638" y="-520" on="1"/>
        <pt x="684" y="-125" on="1"/>
      </contour>
    </TTGlyph>
    <TTGlyph name="S" xMin="115" yMin="-20" xMax="1085" yMax="1569">
      <contour>
        <pt x="636" y="1568" on="1"/>
        <pt x="668" y="1569" on="1"/>
        <pt x="818" y="1569" on="0"/>
        <pt x="1011" y="1510" on="1"/>
        <pt x="979" y="1360" on="1"/>
        <pt x="535" y="1502" on="0"/>
        <pt x="383" y="1288" on="1"/>
        <pt x="338" y="1225" on="0"/>
        <pt x="338" y="1078" on="0"/>
        <pt x="387" y="993" on="0"/>
        <pt x="429" y="960" on="1"/>
        <pt x="495" y="908" on="0"/>
        <pt x="727" y="822" on="0"/>
        <pt x="884" y="741" on="0"/>
        <pt x="946" y="687" on="1"/>
        <pt x="1085" y="566" on="0"/>
        <pt x="1085" y="407" on="1"/>
        <pt x="1085" y="277" on="0"/>
        <pt x="974" y="105" on="0"/>
        <pt x="902" y="60" on="1"/>
        <pt x="770" y="-20" on="0"/>
        <pt x="563" y="-20" on="1"/>
        <pt x="352" y="-20" on="0"/>
        <pt x="115" y="62" on="1"/>
        <pt x="146" y="215" on="1"/>
        <pt x="338" y="143" on="0"/>
        <pt x="567" y="134" on="1"/>
        <pt x="761" y="127" on="0"/>
        <pt x="856" y="248" on="1"/>
        <pt x="905" y="312" on="0"/>
        <pt x="905" y="448" on="0"/>
        <pt x="852" y="537" on="0"/>
        <pt x="807" y="574" on="1"/>
        <pt x="725" y="643" on="0"/>
        <pt x="497" y="723" on="0"/>
        <pt x="349" y="796" on="0"/>
        <pt x="290" y="848" on="1"/>
        <pt x="161" y="963" on="0"/>
        <pt x="161" y="1142" on="1"/>
        <pt x="161" y="1432" on="0"/>
        <pt x="440" y="1534" on="1"/>
        <pt x="534" y="1568" on="0"/>
      </contour>
    </TTGlyph>
    <TTGlyph name="Sacute" xMin="115" yMin="-20" xMax="1085" yMax="2020">
      <contour>
        <pt x="636" y="1568" on="1"/>
        <pt x="668" y="1569" on="1"/>
        <pt x="818" y="1569" on="0"/>
        <pt x="1011" y="1510" on="1"/>
        <pt x="979" y="1360" on="1"/>
        <pt x="535" y="1502" on="0"/>
        <pt x="383" y="1288" on="1"/>
        <pt x="338" y="1225" on="0"/>
        <pt x="338" y="1078" on="0"/>
        <pt x="387" y="993" on="0"/>
        <pt x="429" y="960" on="1"/>
        <pt x="495" y="908" on="0"/>
        <pt x="727" y="822" on="0"/>
        <pt x="884" y="741" on="0"/>
        <pt x="946" y="687" on="1"/>
        <pt x="1085" y="566" on="0"/>
        <pt x="1085" y="407" on="1"/>
        <pt x="1085" y="277" on="0"/>
        <pt x="974" y="105" on="0"/>
        <pt x="902" y="60" on="1"/>
        <pt x="770" y="-20" on="0"/>
        <pt x="563" y="-20" on="1"/>
        <pt x="352" y="-20" on="0"/>
        <pt x="115" y="62" on="1"/>
        <pt x="146" y="215" on="1"/>
        <pt x="338" y="143" on="0"/>
        <pt x="567" y="134" on="1"/>
        <pt x="761" y="127" on="0"/>
        <pt x="856" y="248" on="1"/>
        <pt x="905" y="312" on="0"/>
        <pt x="905" y="448" on="0"/>
        <pt x="852" y="537" on="0"/>
        <pt x="807" y="574" on="1"/>
        <pt x="725" y="643" on="0"/>
        <pt x="497" y="723" on="0"/>
        <pt x="349" y="796" on="0"/>
        <pt x="290" y="848" on="1"/>
        <pt x="161" y="963" on="0"/>
        <pt x="161" y="1142" on="1"/>
        <pt x="161" y="1432" on="0"/>
        <pt x="440" y="1534" on="1"/>
        <pt x="534" y="1568" on="0"/>
      </contour>
      <contour>
        <pt x="620" y="1615" on="1"/>
        <pt x="527" y="1717" on="1"/>
        <pt x="847" y="2020" on="1"/>
        <pt x="960" y="1897" on="1"/>
      </contour>
    </TTGlyph>
    <TTGlyph name="Scaron" xMin="115" yMin="-20" xMax="1085" yMax="1940">
      <contour>
        <pt x="636" y="1568" on="1"/>
        <pt x="668" y="1569" on="1"/>
        <pt x="818" y="1569" on="0"/>
        <pt x="1011" y="1510" on="1"/>
        <pt x="979" y="1360" on="1"/>
        <pt x="535" y="1502" on="0"/>
        <pt x="383" y="1288" on="1"/>
        <pt x="338" y="1225" on="0"/>
        <pt x="338" y="1078" on="0"/>
        <pt x="387" y="993" on="0"/>
        <pt x="429" y="960" on="1"/>
        <pt x="495" y="908" on="0"/>
        <pt x="727" y="822" on="0"/>
        <pt x="884" y="741" on="0"/>
        <pt x="946" y="687" on="1"/>
        <pt x="1085" y="566" on="0"/>
        <pt x="1085" y="407" on="1"/>
        <pt x="1085" y="277" on="0"/>
        <pt x="974" y="105" on="0"/>
        <pt x="902" y="60" on="1"/>
        <pt x="770" y="-20" on="0"/>
        <pt x="563" y="-20" on="1"/>
        <pt x="352" y="-20" on="0"/>
        <pt x="115" y="62" on="1"/>
        <pt x="146" y="215" on="1"/>
        <pt x="338" y="143" on="0"/>
        <pt x="567" y="134" on="1"/>
        <pt x="761" y="127" on="0"/>
        <pt x="856" y="248" on="1"/>
        <pt x="905" y="312" on="0"/>
        <pt x="905" y="448" on="0"/>
        <pt x="852" y="537" on="0"/>
        <pt x="807" y="574" on="1"/>
        <pt x="725" y="643" on="0"/>
        <pt x="497" y="723" on="0"/>
        <pt x="349" y="796" on="0"/>
        <pt x="290" y="848" on="1"/>
        <pt x="161" y="963" on="0"/>
        <pt x="161" y="1142" on="1"/>
        <pt x="161" y="1432" on="0"/>
        <pt x="440" y="1534" on="1"/>
        <pt x="534" y="1568" on="0"/>
      </contour>
      <contour>
        <pt x="600" y="1615" on="1"/>
        <pt x="237" y="1827" on="1"/>
        <pt x="294" y="1940" on="1"/>
        <pt x="600" y="1779" on="1"/>
        <pt x="906" y="1940" on="1"/>
        <pt x="963" y="1827" on="1"/>
      </contour>
    </TTGlyph>
    <TTGlyph name="Scedilla" xMin="115" yMin="-530" xMax="1085" yMax="1569">
      <contour>
        <pt x="636" y="1568" on="1"/>
        <pt x="668" y="1569" on="1"/>
        <pt x="818" y="1569" on="0"/>
        <pt x="1011" y="1510" on="1"/>
        <pt x="979" y="1360" on="1"/>
        <pt x="535" y="1502" on="0"/>
        <pt x="383" y="1288" on="1"/>
        <pt x="338" y="1225" on="0"/>
        <pt x="338" y="1078" on="0"/>
        <pt x="387" y="993" on="0"/>
        <pt x="429" y="960" on="1"/>
        <pt x="495" y="908" on="0"/>
        <pt x="727" y="822" on="0"/>
        <pt x="884" y="741" on="0"/>
        <pt x="946" y="687" on="1"/>
        <pt x="1085" y="566" on="0"/>
        <pt x="1085" y="407" on="1"/>
        <pt x="1085" y="277" on="0"/>
        <pt x="974" y="105" on="0"/>
        <pt x="902" y="60" on="1"/>
        <pt x="770" y="-20" on="0"/>
        <pt x="563" y="-20" on="1"/>
        <pt x="352" y="-20" on="0"/>
        <pt x="115" y="62" on="1"/>
        <pt x="146" y="215" on="1"/>
        <pt x="338" y="143" on="0"/>
        <pt x="567" y="134" on="1"/>
        <pt x="761" y="127" on="0"/>
        <pt x="856" y="248" on="1"/>
        <pt x="905" y="312" on="0"/>
        <pt x="905" y="448" on="0"/>
        <pt x="852" y="537" on="0"/>
        <pt x="807" y="574" on="1"/>
        <pt x="725" y="643" on="0"/>
        <pt x="497" y="723" on="0"/>
        <pt x="349" y="796" on="0"/>
        <pt x="290" y="848" on="1"/>
        <pt x="161" y="963" on="0"/>
        <pt x="161" y="1142" on="1"/>
        <pt x="161" y="1432" on="0"/>
        <pt x="440" y="1534" on="1"/>
        <pt x="534" y="1568" on="0"/>
      </contour>
      <contour>
        <pt x="401" y="-391" on="1"/>
        <pt x="486" y="-413" on="0"/>
        <pt x="533" y="-413" on="1"/>
        <pt x="641" y="-413" on="0"/>
        <pt x="660" y="-322" on="1"/>
        <pt x="663" y="-307" on="0"/>
        <pt x="663" y="-260" on="0"/>
        <pt x="633" y="-220" on="0"/>
        <pt x="609" y="-208" on="1"/>
        <pt x="572" y="-191" on="0"/>
        <pt x="493" y="-188" on="1"/>
        <pt x="501" y="-71" on="1"/>
        <pt x="729" y="-61" on="0"/>
        <pt x="800" y="-200" on="1"/>
        <pt x="824" y="-247" on="0"/>
        <pt x="815" y="-368" on="0"/>
        <pt x="766" y="-450" on="0"/>
        <pt x="728" y="-477" on="1"/>
        <pt x="653" y="-530" on="0"/>
        <pt x="452" y="-530" on="0"/>
        <pt x="380" y="-493" on="1"/>
        <pt x="380" y="-490" on="1"/>
      </contour>
    </TTGlyph>
    <TTGlyph name="Scircumflex" xMin="115" yMin="-20" xMax="1085" yMax="1940">
      <contour>
        <pt x="636" y="1568" on="1"/>
        <pt x="668" y="1569" on="1"/>
        <pt x="818" y="1569" on="0"/>
        <pt x="1011" y="1510" on="1"/>
        <pt x="979" y="1360" on="1"/>
        <pt x="535" y="1502" on="0"/>
        <pt x="383" y="1288" on="1"/>
        <pt x="338" y="1225" on="0"/>
        <pt x="338" y="1078" on="0"/>
        <pt x="387" y="993" on="0"/>
        <pt x="429" y="960" on="1"/>
        <pt x="495" y="908" on="0"/>
        <pt x="727" y="822" on="0"/>
        <pt x="884" y="741" on="0"/>
        <pt x="946" y="687" on="1"/>
        <pt x="1085" y="566" on="0"/>
        <pt x="1085" y="407" on="1"/>
        <pt x="1085" y="277" on="0"/>
        <pt x="974" y="105" on="0"/>
        <pt x="902" y="60" on="1"/>
        <pt x="770" y="-20" on="0"/>
        <pt x="563" y="-20" on="1"/>
        <pt x="352" y="-20" on="0"/>
        <pt x="115" y="62" on="1"/>
        <pt x="146" y="215" on="1"/>
        <pt x="338" y="143" on="0"/>
        <pt x="567" y="134" on="1"/>
        <pt x="761" y="127" on="0"/>
        <pt x="856" y="248" on="1"/>
        <pt x="905" y="312" on="0"/>
        <pt x="905" y="448" on="0"/>
        <pt x="852" y="537" on="0"/>
        <pt x="807" y="574" on="1"/>
        <pt x="725" y="643" on="0"/>
        <pt x="497" y="723" on="0"/>
        <pt x="349" y="796" on="0"/>
        <pt x="290" y="848" on="1"/>
        <pt x="161" y="963" on="0"/>
        <pt x="161" y="1142" on="1"/>
        <pt x="161" y="1432" on="0"/>
        <pt x="440" y="1534" on="1"/>
        <pt x="534" y="1568" on="0"/>
      </contour>
      <contour>
        <pt x="296" y="1615" on="1"/>
        <pt x="239" y="1728" on="1"/>
        <pt x="602" y="1940" on="1"/>
        <pt x="965" y="1728" on="1"/>
        <pt x="908" y="1615" on="1"/>
        <pt x="602" y="1776" on="1"/>
      </contour>
    </TTGlyph>
    <TTGlyph name="Scommaaccent" xMin="115" yMin="-540" xMax="1085" yMax="1569">
      <contour>
        <pt x="636" y="1568" on="1"/>
        <pt x="668" y="1569" on="1"/>
        <pt x="818" y="1569" on="0"/>
        <pt x="1011" y="1510" on="1"/>
        <pt x="979" y="1360" on="1"/>
        <pt x="535" y="1502" on="0"/>
        <pt x="383" y="1288" on="1"/>
        <pt x="338" y="1225" on="0"/>
        <pt x="338" y="1078" on="0"/>
        <pt x="387" y="993" on="0"/>
        <pt x="429" y="960" on="1"/>
        <pt x="495" y="908" on="0"/>
        <pt x="727" y="822" on="0"/>
        <pt x="884" y="741" on="0"/>
        <pt x="946" y="687" on="1"/>
        <pt x="1085" y="566" on="0"/>
        <pt x="1085" y="407" on="1"/>
        <pt x="1085" y="277" on="0"/>
        <pt x="974" y="105" on="0"/>
        <pt x="902" y="60" on="1"/>
        <pt x="770" y="-20" on="0"/>
        <pt x="563" y="-20" on="1"/>
        <pt x="352" y="-20" on="0"/>
        <pt x="115" y="62" on="1"/>
        <pt x="146" y="215" on="1"/>
        <pt x="338" y="143" on="0"/>
        <pt x="567" y="134" on="1"/>
        <pt x="761" y="127" on="0"/>
        <pt x="856" y="248" on="1"/>
        <pt x="905" y="312" on="0"/>
        <pt x="905" y="448" on="0"/>
        <pt x="852" y="537" on="0"/>
        <pt x="807" y="574" on="1"/>
        <pt x="725" y="643" on="0"/>
        <pt x="497" y="723" on="0"/>
        <pt x="349" y="796" on="0"/>
        <pt x="290" y="848" on="1"/>
        <pt x="161" y="963" on="0"/>
        <pt x="161" y="1142" on="1"/>
        <pt x="161" y="1432" on="0"/>
        <pt x="440" y="1534" on="1"/>
        <pt x="534" y="1568" on="0"/>
      </contour>
      <contour>
        <pt x="707" y="-125" on="1"/>
        <pt x="621" y="-540" on="1"/>
        <pt x="494" y="-520" on="1"/>
        <pt x="540" y="-125" on="1"/>
      </contour>
    </TTGlyph>
    <TTGlyph name="T" xMin="170" yMin="0" xMax="1360" yMax="1554">
      <contour>
        <pt x="682" y="0" on="1"/>
        <pt x="682" y="1394" on="1"/>
        <pt x="170" y="1394" on="1"/>
        <pt x="170" y="1554" on="1"/>
        <pt x="1360" y="1554" on="1"/>
        <pt x="1360" y="1394" on="1"/>
        <pt x="856" y="1394" on="1"/>
        <pt x="856" y="0" on="1"/>
      </contour>
    </TTGlyph>
    <TTGlyph name="Tbar" xMin="170" yMin="0" xMax="1360" yMax="1554">
      <contour>
        <pt x="682" y="0" on="1"/>
        <pt x="682" y="704" on="1"/>
        <pt x="381" y="704" on="1"/>
        <pt x="381" y="834" on="1"/>
        <pt x="682" y="834" on="1"/>
        <pt x="682" y="1394" on="1"/>
        <pt x="170" y="1394" on="1"/>
        <pt x="170" y="1554" on="1"/>
        <pt x="1360" y="1554" on="1"/>
        <pt x="1360" y="1394" on="1"/>
        <pt x="856" y="1394" on="1"/>
        <pt x="856" y="834" on="1"/>
        <pt x="1158" y="834" on="1"/>
        <pt x="1158" y="704" on="1"/>
        <pt x="856" y="704" on="1"/>
        <pt x="856" y="0" on="1"/>
      </contour>
    </TTGlyph>
    <TTGlyph name="Tcaron" xMin="170" yMin="0" xMax="1360" yMax="1940">
      <contour>
        <pt x="682" y="0" on="1"/>
        <pt x="682" y="1394" on="1"/>
        <pt x="170" y="1394" on="1"/>
        <pt x="170" y="1554" on="1"/>
        <pt x="1360" y="1554" on="1"/>
        <pt x="1360" y="1394" on="1"/>
        <pt x="856" y="1394" on="1"/>
        <pt x="856" y="0" on="1"/>
      </contour>
      <contour>
        <pt x="772" y="1615" on="1"/>
        <pt x="409" y="1827" on="1"/>
        <pt x="466" y="1940" on="1"/>
        <pt x="772" y="1779" on="1"/>
        <pt x="1078" y="1940" on="1"/>
        <pt x="1135" y="1827" on="1"/>
      </contour>
    </TTGlyph>
    <TTGlyph name="Tcommaaccent" xMin="170" yMin="-540" xMax="1360" yMax="1554">
      <contour>
        <pt x="682" y="0" on="1"/>
        <pt x="682" y="1394" on="1"/>
        <pt x="170" y="1394" on="1"/>
        <pt x="170" y="1554" on="1"/>
        <pt x="1360" y="1554" on="1"/>
        <pt x="1360" y="1394" on="1"/>
        <pt x="856" y="1394" on="1"/>
        <pt x="856" y="0" on="1"/>
      </contour>
      <contour>
        <pt x="879" y="-125" on="1"/>
        <pt x="793" y="-540" on="1"/>
        <pt x="666" y="-520" on="1"/>
        <pt x="712" y="-125" on="1"/>
      </contour>
    </TTGlyph>
    <TTGlyph name="Thorn" xMin="208" yMin="0" xMax="1251" yMax="1554">
      <contour>
        <pt x="672" y="424" on="1"/>
        <pt x="1066" y="420" on="0"/>
        <pt x="1074" y="773" on="1"/>
        <pt x="1072" y="958" on="0"/>
        <pt x="978" y="1046" on="1"/>
        <pt x="877" y="1141" on="0"/>
        <pt x="661" y="1139" on="1"/>
        <pt x="381" y="1139" on="1"/>
        <pt x="381" y="0" on="1"/>
        <pt x="208" y="0" on="1"/>
        <pt x="208" y="1554" on="1"/>
        <pt x="381" y="1554" on="1"/>
        <pt x="381" y="1292" on="1"/>
        <pt x="661" y="1292" on="1"/>
        <pt x="1126" y="1295" on="0"/>
        <pt x="1220" y="991" on="1"/>
        <pt x="1250" y="894" on="0"/>
        <pt x="1251" y="773" on="1"/>
        <pt x="1238" y="266" on="0"/>
        <pt x="672" y="273" on="1"/>
        <pt x="491" y="273" on="1"/>
        <pt x="491" y="424" on="1"/>
      </contour>
    </TTGlyph>
    <TTGlyph name="U" xMin="196" yMin="-20" xMax="1341" yMax="1554">
      <contour>
        <pt x="196" y="1554" on="1"/>
        <pt x="369" y="1554" on="1"/>
        <pt x="369" y="696" on="1"/>
        <pt x="369" y="532" on="0"/>
        <pt x="397" y="381" on="0"/>
        <pt x="446" y="270" on="0"/>
        <pt x="490" y="228" on="1"/>
        <pt x="586" y="139" on="0"/>
        <pt x="768" y="139" on="1"/>
        <pt x="1031" y="139" on="0"/>
        <pt x="1114" y="326" on="1"/>
        <pt x="1159" y="429" on="0"/>
        <pt x="1167" y="635" on="0"/>
        <pt x="1167" y="696" on="1"/>
        <pt x="1167" y="1554" on="1"/>
        <pt x="1341" y="1554" on="1"/>
        <pt x="1341" y="696" on="1"/>
        <pt x="1341" y="481" on="0"/>
        <pt x="1297" y="287" on="0"/>
        <pt x="1225" y="146" on="0"/>
        <pt x="1161" y="94" on="1"/>
        <pt x="1023" y="-20" on="0"/>
        <pt x="768" y="-20" on="1"/>
        <pt x="394" y="-20" on="0"/>
        <pt x="274" y="216" on="1"/>
        <pt x="209" y="347" on="0"/>
        <pt x="200" y="530" on="1"/>
        <pt x="196" y="615" on="0"/>
        <pt x="196" y="696" on="1"/>
      </contour>
    </TTGlyph>
    <TTGlyph name="Uacute" xMin="196" yMin="-20" xMax="1341" yMax="2020">
      <contour>
        <pt x="196" y="1554" on="1"/>
        <pt x="369" y="1554" on="1"/>
        <pt x="369" y="696" on="1"/>
        <pt x="369" y="532" on="0"/>
        <pt x="397" y="381" on="0"/>
        <pt x="446" y="270" on="0"/>
        <pt x="490" y="228" on="1"/>
        <pt x="586" y="139" on="0"/>
        <pt x="768" y="139" on="1"/>
        <pt x="1031" y="139" on="0"/>
        <pt x="1114" y="326" on="1"/>
        <pt x="1159" y="429" on="0"/>
        <pt x="1167" y="635" on="0"/>
        <pt x="1167" y="696" on="1"/>
        <pt x="1167" y="1554" on="1"/>
        <pt x="1341" y="1554" on="1"/>
        <pt x="1341" y="696" on="1"/>
        <pt x="1341" y="481" on="0"/>
        <pt x="1297" y="287" on="0"/>
        <pt x="1225" y="146" on="0"/>
        <pt x="1161" y="94" on="1"/>
        <pt x="1023" y="-20" on="0"/>
        <pt x="768" y="-20" on="1"/>
        <pt x="394" y="-20" on="0"/>
        <pt x="274" y="216" on="1"/>
        <pt x="209" y="347" on="0"/>
        <pt x="200" y="530" on="1"/>
        <pt x="196" y="615" on="0"/>
        <pt x="196" y="696" on="1"/>
      </contour>
      <contour>
        <pt x="788" y="1615" on="1"/>
        <pt x="695" y="1717" on="1"/>
        <pt x="1015" y="2020" on="1"/>
        <pt x="1128" y="1897" on="1"/>
      </contour>
    </TTGlyph>
    <TTGlyph name="Ubreve" xMin="196" yMin="-20" xMax="1341" yMax="1978">
      <contour>
        <pt x="196" y="1554" on="1"/>
        <pt x="369" y="1554" on="1"/>
        <pt x="369" y="696" on="1"/>
        <pt x="369" y="532" on="0"/>
        <pt x="397" y="381" on="0"/>
        <pt x="446" y="270" on="0"/>
        <pt x="490" y="228" on="1"/>
        <pt x="586" y="139" on="0"/>
        <pt x="768" y="139" on="1"/>
        <pt x="1031" y="139" on="0"/>
        <pt x="1114" y="326" on="1"/>
        <pt x="1159" y="429" on="0"/>
        <pt x="1167" y="635" on="0"/>
        <pt x="1167" y="696" on="1"/>
        <pt x="1167" y="1554" on="1"/>
        <pt x="1341" y="1554" on="1"/>
        <pt x="1341" y="696" on="1"/>
        <pt x="1341" y="481" on="0"/>
        <pt x="1297" y="287" on="0"/>
        <pt x="1225" y="146" on="0"/>
        <pt x="1161" y="94" on="1"/>
        <pt x="1023" y="-20" on="0"/>
        <pt x="768" y="-20" on="1"/>
        <pt x="394" y="-20" on="0"/>
        <pt x="274" y="216" on="1"/>
        <pt x="209" y="347" on="0"/>
        <pt x="200" y="530" on="1"/>
        <pt x="196" y="615" on="0"/>
        <pt x="196" y="696" on="1"/>
      </contour>
      <contour>
        <pt x="769" y="1700" on="1"/>
        <pt x="572" y="1700" on="0"/>
        <pt x="489" y="1838" on="1"/>
        <pt x="462" y="1882" on="0"/>
        <pt x="452" y="1938" on="1"/>
        <pt x="584" y="1978" on="1"/>
        <pt x="595" y="1911" on="0"/>
        <pt x="654" y="1870" on="1"/>
        <pt x="706" y="1834" on="0"/>
        <pt x="797" y="1834" on="0"/>
        <pt x="858" y="1852" on="0"/>
        <pt x="884" y="1870" on="1"/>
        <pt x="944" y="1911" on="0"/>
        <pt x="955" y="1978" on="1"/>
        <pt x="1086" y="1938" on="1"/>
        <pt x="1068" y="1827" on="0"/>
        <pt x="980" y="1762" on="1"/>
        <pt x="895" y="1700" on="0"/>
      </contour>
    </TTGlyph>
    <TTGlyph name="Ucircumflex" xMin="196" yMin="-20" xMax="1341" yMax="1940">
      <contour>
        <pt x="196" y="1554" on="1"/>
        <pt x="369" y="1554" on="1"/>
        <pt x="369" y="696" on="1"/>
        <pt x="369" y="532" on="0"/>
        <pt x="397" y="381" on="0"/>
        <pt x="446" y="270" on="0"/>
        <pt x="490" y="228" on="1"/>
        <pt x="586" y="139" on="0"/>
        <pt x="768" y="139" on="1"/>
        <pt x="1031" y="139" on="0"/>
        <pt x="1114" y="326" on="1"/>
        <pt x="1159" y="429" on="0"/>
        <pt x="1167" y="635" on="0"/>
        <pt x="1167" y="696" on="1"/>
        <pt x="1167" y="1554" on="1"/>
        <pt x="1341" y="1554" on="1"/>
        <pt x="1341" y="696" on="1"/>
        <pt x="1341" y="481" on="0"/>
        <pt x="1297" y="287" on="0"/>
        <pt x="1225" y="146" on="0"/>
        <pt x="1161" y="94" on="1"/>
        <pt x="1023" y="-20" on="0"/>
        <pt x="768" y="-20" on="1"/>
        <pt x="394" y="-20" on="0"/>
        <pt x="274" y="216" on="1"/>
        <pt x="209" y="347" on="0"/>
        <pt x="200" y="530" on="1"/>
        <pt x="196" y="615" on="0"/>
        <pt x="196" y="696" on="1"/>
      </contour>
      <contour>
        <pt x="464" y="1615" on="1"/>
        <pt x="407" y="1728" on="1"/>
        <pt x="770" y="1940" on="1"/>
        <pt x="1133" y="1728" on="1"/>
        <pt x="1076" y="1615" on="1"/>
        <pt x="770" y="1776" on="1"/>
      </contour>
    </TTGlyph>
    <TTGlyph name="Udieresis" xMin="196" yMin="-20" xMax="1341" yMax="1926">
      <contour>
        <pt x="196" y="1554" on="1"/>
        <pt x="369" y="1554" on="1"/>
        <pt x="369" y="696" on="1"/>
        <pt x="369" y="532" on="0"/>
        <pt x="397" y="381" on="0"/>
        <pt x="446" y="270" on="0"/>
        <pt x="490" y="228" on="1"/>
        <pt x="586" y="139" on="0"/>
        <pt x="768" y="139" on="1"/>
        <pt x="1031" y="139" on="0"/>
        <pt x="1114" y="326" on="1"/>
        <pt x="1159" y="429" on="0"/>
        <pt x="1167" y="635" on="0"/>
        <pt x="1167" y="696" on="1"/>
        <pt x="1167" y="1554" on="1"/>
        <pt x="1341" y="1554" on="1"/>
        <pt x="1341" y="696" on="1"/>
        <pt x="1341" y="481" on="0"/>
        <pt x="1297" y="287" on="0"/>
        <pt x="1225" y="146" on="0"/>
        <pt x="1161" y="94" on="1"/>
        <pt x="1023" y="-20" on="0"/>
        <pt x="768" y="-20" on="1"/>
        <pt x="394" y="-20" on="0"/>
        <pt x="274" y="216" on="1"/>
        <pt x="209" y="347" on="0"/>
        <pt x="200" y="530" on="1"/>
        <pt x="196" y="615" on="0"/>
        <pt x="196" y="696" on="1"/>
      </contour>
      <contour>
        <pt x="874" y="1926" on="1"/>
        <pt x="1051" y="1926" on="1"/>
        <pt x="1051" y="1698" on="1"/>
        <pt x="874" y="1698" on="1"/>
      </contour>
      <contour>
        <pt x="487" y="1926" on="1"/>
        <pt x="663" y="1926" on="1"/>
        <pt x="663" y="1698" on="1"/>
        <pt x="487" y="1698" on="1"/>
      </contour>
    </TTGlyph>
    <TTGlyph name="Ugrave" xMin="196" yMin="-20" xMax="1341" yMax="2020">
      <contour>
        <pt x="196" y="1554" on="1"/>
        <pt x="369" y="1554" on="1"/>
        <pt x="369" y="696" on="1"/>
        <pt x="369" y="532" on="0"/>
        <pt x="397" y="381" on="0"/>
        <pt x="446" y="270" on="0"/>
        <pt x="490" y="228" on="1"/>
        <pt x="586" y="139" on="0"/>
        <pt x="768" y="139" on="1"/>
        <pt x="1031" y="139" on="0"/>
        <pt x="1114" y="326" on="1"/>
        <pt x="1159" y="429" on="0"/>
        <pt x="1167" y="635" on="0"/>
        <pt x="1167" y="696" on="1"/>
        <pt x="1167" y="1554" on="1"/>
        <pt x="1341" y="1554" on="1"/>
        <pt x="1341" y="696" on="1"/>
        <pt x="1341" y="481" on="0"/>
        <pt x="1297" y="287" on="0"/>
        <pt x="1225" y="146" on="0"/>
        <pt x="1161" y="94" on="1"/>
        <pt x="1023" y="-20" on="0"/>
        <pt x="768" y="-20" on="1"/>
        <pt x="394" y="-20" on="0"/>
        <pt x="274" y="216" on="1"/>
        <pt x="209" y="347" on="0"/>
        <pt x="200" y="530" on="1"/>
        <pt x="196" y="615" on="0"/>
        <pt x="196" y="696" on="1"/>
      </contour>
      <contour>
        <pt x="788" y="1615" on="1"/>
        <pt x="448" y="1897" on="1"/>
        <pt x="561" y="2020" on="1"/>
        <pt x="881" y="1717" on="1"/>
      </contour>
    </TTGlyph>
    <TTGlyph name="Uhungarumlaut" xMin="196" yMin="-20" xMax="1347" yMax="2020">
      <contour>
        <pt x="196" y="1554" on="1"/>
        <pt x="369" y="1554" on="1"/>
        <pt x="369" y="696" on="1"/>
        <pt x="369" y="532" on="0"/>
        <pt x="397" y="381" on="0"/>
        <pt x="446" y="270" on="0"/>
        <pt x="490" y="228" on="1"/>
        <pt x="586" y="139" on="0"/>
        <pt x="768" y="139" on="1"/>
        <pt x="1031" y="139" on="0"/>
        <pt x="1114" y="326" on="1"/>
        <pt x="1159" y="429" on="0"/>
        <pt x="1167" y="635" on="0"/>
        <pt x="1167" y="696" on="1"/>
        <pt x="1167" y="1554" on="1"/>
        <pt x="1341" y="1554" on="1"/>
        <pt x="1341" y="696" on="1"/>
        <pt x="1341" y="481" on="0"/>
        <pt x="1297" y="287" on="0"/>
        <pt x="1225" y="146" on="0"/>
        <pt x="1161" y="94" on="1"/>
        <pt x="1023" y="-20" on="0"/>
        <pt x="768" y="-20" on="1"/>
        <pt x="394" y="-20" on="0"/>
        <pt x="274" y="216" on="1"/>
        <pt x="209" y="347" on="0"/>
        <pt x="200" y="530" on="1"/>
        <pt x="196" y="615" on="0"/>
        <pt x="196" y="696" on="1"/>
      </contour>
      <contour>
        <pt x="490" y="1735" on="1"/>
        <pt x="826" y="2020" on="1"/>
        <pt x="960" y="1933" on="1"/>
        <pt x="562" y="1620" on="1"/>
      </contour>
      <contour>
        <pt x="872" y="1735" on="1"/>
        <pt x="1212" y="2015" on="1"/>
        <pt x="1347" y="1927" on="1"/>
        <pt x="944" y="1620" on="1"/>
      </contour>
    </TTGlyph>
    <TTGlyph name="Umacron" xMin="196" yMin="-20" xMax="1341" yMax="1859">
      <contour>
        <pt x="196" y="1554" on="1"/>
        <pt x="369" y="1554" on="1"/>
        <pt x="369" y="696" on="1"/>
        <pt x="369" y="532" on="0"/>
        <pt x="397" y="381" on="0"/>
        <pt x="446" y="270" on="0"/>
        <pt x="490" y="228" on="1"/>
        <pt x="586" y="139" on="0"/>
        <pt x="768" y="139" on="1"/>
        <pt x="1031" y="139" on="0"/>
        <pt x="1114" y="326" on="1"/>
        <pt x="1159" y="429" on="0"/>
        <pt x="1167" y="635" on="0"/>
        <pt x="1167" y="696" on="1"/>
        <pt x="1167" y="1554" on="1"/>
        <pt x="1341" y="1554" on="1"/>
        <pt x="1341" y="696" on="1"/>
        <pt x="1341" y="481" on="0"/>
        <pt x="1297" y="287" on="0"/>
        <pt x="1225" y="146" on="0"/>
        <pt x="1161" y="94" on="1"/>
        <pt x="1023" y="-20" on="0"/>
        <pt x="768" y="-20" on="1"/>
        <pt x="394" y="-20" on="0"/>
        <pt x="274" y="216" on="1"/>
        <pt x="209" y="347" on="0"/>
        <pt x="200" y="530" on="1"/>
        <pt x="196" y="615" on="0"/>
        <pt x="196" y="696" on="1"/>
      </contour>
      <contour>
        <pt x="453" y="1859" on="1"/>
        <pt x="1085" y="1859" on="1"/>
        <pt x="1085" y="1722" on="1"/>
        <pt x="453" y="1722" on="1"/>
      </contour>
    </TTGlyph>
    <TTGlyph name="Uogonek" xMin="196" yMin="-477" xMax="1341" yMax="1554">
      <contour>
        <pt x="829" y="-18" on="1"/>
        <pt x="799" y="-20" on="0"/>
        <pt x="768" y="-20" on="1"/>
        <pt x="394" y="-20" on="0"/>
        <pt x="274" y="216" on="1"/>
        <pt x="209" y="347" on="0"/>
        <pt x="200" y="530" on="1"/>
        <pt x="196" y="615" on="0"/>
        <pt x="196" y="696" on="1"/>
        <pt x="196" y="1554" on="1"/>
        <pt x="369" y="1554" on="1"/>
        <pt x="369" y="696" on="1"/>
        <pt x="369" y="532" on="0"/>
        <pt x="397" y="381" on="0"/>
        <pt x="446" y="270" on="0"/>
        <pt x="490" y="228" on="1"/>
        <pt x="586" y="139" on="0"/>
        <pt x="768" y="139" on="1"/>
        <pt x="1031" y="139" on="0"/>
        <pt x="1114" y="326" on="1"/>
        <pt x="1159" y="429" on="0"/>
        <pt x="1167" y="635" on="0"/>
        <pt x="1167" y="696" on="1"/>
        <pt x="1167" y="1554" on="1"/>
        <pt x="1341" y="1554" on="1"/>
        <pt x="1341" y="696" on="1"/>
        <pt x="1341" y="433" on="0"/>
        <pt x="1292" y="286" on="1"/>
        <pt x="1220" y="74" on="0"/>
        <pt x="996" y="9" on="1"/>
        <pt x="883" y="-90" on="0"/>
        <pt x="863" y="-197" on="1"/>
        <pt x="848" y="-333" on="0"/>
        <pt x="967" y="-333" on="1"/>
        <pt x="1015" y="-333" on="0"/>
        <pt x="1053" y="-322" on="1"/>
        <pt x="1078" y="-440" on="1"/>
        <pt x="997" y="-477" on="0"/>
        <pt x="870" y="-477" on="0"/>
        <pt x="794" y="-451" on="0"/>
        <pt x="766" y="-426" on="1"/>
        <pt x="708" y="-373" on="0"/>
        <pt x="708" y="-187" on="0"/>
        <pt x="784" y="-75" on="1"/>
        <pt x="805" y="-43" on="0"/>
      </contour>
    </TTGlyph>
    <TTGlyph name="Uring" xMin="196" yMin="-20" xMax="1341" yMax="2020">
      <contour>
        <pt x="196" y="1554" on="1"/>
        <pt x="369" y="1554" on="1"/>
        <pt x="369" y="696" on="1"/>
        <pt x="369" y="532" on="0"/>
        <pt x="397" y="381" on="0"/>
        <pt x="446" y="270" on="0"/>
        <pt x="490" y="228" on="1"/>
        <pt x="586" y="139" on="0"/>
        <pt x="768" y="139" on="1"/>
        <pt x="1031" y="139" on="0"/>
        <pt x="1114" y="326" on="1"/>
        <pt x="1159" y="429" on="0"/>
        <pt x="1167" y="635" on="0"/>
        <pt x="1167" y="696" on="1"/>
        <pt x="1167" y="1554" on="1"/>
        <pt x="1341" y="1554" on="1"/>
        <pt x="1341" y="696" on="1"/>
        <pt x="1341" y="481" on="0"/>
        <pt x="1297" y="287" on="0"/>
        <pt x="1225" y="146" on="0"/>
        <pt x="1161" y="94" on="1"/>
        <pt x="1023" y="-20" on="0"/>
        <pt x="768" y="-20" on="1"/>
        <pt x="394" y="-20" on="0"/>
        <pt x="274" y="216" on="1"/>
        <pt x="209" y="347" on="0"/>
        <pt x="200" y="530" on="1"/>
        <pt x="196" y="615" on="0"/>
        <pt x="196" y="696" on="1"/>
      </contour>
      <contour>
        <pt x="767" y="1589" on="1"/>
        <pt x="665" y="1589" on="0"/>
        <pt x="598" y="1644" on="1"/>
        <pt x="526" y="1703" on="0"/>
        <pt x="526" y="1801" on="1"/>
        <pt x="526" y="1901" on="0"/>
        <pt x="598" y="1962" on="1"/>
        <pt x="666" y="2020" on="0"/>
        <pt x="767" y="2020" on="1"/>
        <pt x="868" y="2020" on="0"/>
        <pt x="936" y="1962" on="1"/>
        <pt x="1008" y="1901" on="0"/>
        <pt x="1008" y="1801" on="1"/>
        <pt x="1008" y="1703" on="0"/>
        <pt x="936" y="1644" on="1"/>
        <pt x="869" y="1589" on="0"/>
      </contour>
      <contour>
        <pt x="767" y="1682" on="1"/>
        <pt x="818" y="1682" on="0"/>
        <pt x="886" y="1739" on="0"/>
        <pt x="886" y="1801" on="1"/>
        <pt x="886" y="1863" on="0"/>
        <pt x="818" y="1927" on="0"/>
        <pt x="767" y="1927" on="1"/>
        <pt x="716" y="1927" on="0"/>
        <pt x="650" y="1863" on="0"/>
        <pt x="650" y="1801" on="1"/>
        <pt x="650" y="1739" on="0"/>
        <pt x="716" y="1682" on="0"/>
      </contour>
    </TTGlyph>
    <TTGlyph name="Utilde" xMin="196" yMin="-20" xMax="1341" yMax="1958">
      <contour>
        <pt x="196" y="1554" on="1"/>
        <pt x="369" y="1554" on="1"/>
        <pt x="369" y="696" on="1"/>
        <pt x="369" y="532" on="0"/>
        <pt x="397" y="381" on="0"/>
        <pt x="446" y="270" on="0"/>
        <pt x="490" y="228" on="1"/>
        <pt x="586" y="139" on="0"/>
        <pt x="768" y="139" on="1"/>
        <pt x="1031" y="139" on="0"/>
        <pt x="1114" y="326" on="1"/>
        <pt x="1159" y="429" on="0"/>
        <pt x="1167" y="635" on="0"/>
        <pt x="1167" y="696" on="1"/>
        <pt x="1167" y="1554" on="1"/>
        <pt x="1341" y="1554" on="1"/>
        <pt x="1341" y="696" on="1"/>
        <pt x="1341" y="481" on="0"/>
        <pt x="1297" y="287" on="0"/>
        <pt x="1225" y="146" on="0"/>
        <pt x="1161" y="94" on="1"/>
        <pt x="1023" y="-20" on="0"/>
        <pt x="768" y="-20" on="1"/>
        <pt x="394" y="-20" on="0"/>
        <pt x="274" y="216" on="1"/>
        <pt x="209" y="347" on="0"/>
        <pt x="200" y="530" on="1"/>
        <pt x="196" y="615" on="0"/>
        <pt x="196" y="696" on="1"/>
      </contour>
      <contour>
        <pt x="408" y="1769" on="1"/>
        <pt x="443" y="1849" on="0"/>
        <pt x="557" y="1947" on="0"/>
        <pt x="664" y="1958" on="0"/>
        <pt x="740" y="1926" on="0"/>
        <pt x="775" y="1904" on="1"/>
        <pt x="775" y="1904" on="0"/>
        <pt x="843" y="1864" on="1"/>
        <pt x="956" y="1796" on="0"/>
        <pt x="1026" y="1939" on="1"/>
        <pt x="1130" y="1878" on="1"/>
        <pt x="1095" y="1797" on="0"/>
        <pt x="1038" y="1750" on="1"/>
        <pt x="921" y="1652" on="0"/>
        <pt x="762" y="1755" on="1"/>
        <pt x="673" y="1813" on="0"/>
        <pt x="637" y="1813" on="1"/>
        <pt x="563" y="1813" on="0"/>
        <pt x="512" y="1709" on="1"/>
      </contour>
    </TTGlyph>
    <TTGlyph name="V" xMin="6" yMin="0" xMax="1357" yMax="1554">
      <contour>
        <pt x="6" y="1554" on="1"/>
        <pt x="205" y="1554" on="1"/>
        <pt x="682" y="153" on="1"/>
        <pt x="1158" y="1554" on="1"/>
        <pt x="1357" y="1554" on="1"/>
        <pt x="797" y="0" on="1"/>
        <pt x="565" y="0" on="1"/>
      </contour>
    </TTGlyph>
    <TTGlyph name="W" xMin="17" yMin="0" xMax="2031" yMax="1554">
      <contour>
        <pt x="455" y="0" on="1"/>
        <pt x="322" y="455" on="1"/>
        <pt x="17" y="1554" on="1"/>
        <pt x="214" y="1554" on="1"/>
        <pt x="487" y="493" on="1"/>
        <pt x="570" y="159" on="1"/>
        <pt x="647" y="493" on="1"/>
        <pt x="920" y="1554" on="1"/>
        <pt x="1132" y="1554" on="1"/>
        <pt x="1402" y="493" on="1"/>
        <pt x="1477" y="159" on="1"/>
        <pt x="1834" y="1554" on="1"/>
        <pt x="2031" y="1554" on="1"/>
        <pt x="1735" y="481" on="1"/>
        <pt x="1594" y="0" on="1"/>
        <pt x="1360" y="0" on="1"/>
        <pt x="1095" y="1035" on="1"/>
        <pt x="1029" y="1352" on="1"/>
        <pt x="1020" y="1352" on="1"/>
        <pt x="952" y="1035" on="1"/>
        <pt x="689" y="0" on="1"/>
      </contour>
    </TTGlyph>
    <TTGlyph name="Wacute" xMin="17" yMin="0" xMax="2031" yMax="2020">
      <contour>
        <pt x="455" y="0" on="1"/>
        <pt x="322" y="455" on="1"/>
        <pt x="17" y="1554" on="1"/>
        <pt x="214" y="1554" on="1"/>
        <pt x="487" y="493" on="1"/>
        <pt x="570" y="159" on="1"/>
        <pt x="647" y="493" on="1"/>
        <pt x="920" y="1554" on="1"/>
        <pt x="1132" y="1554" on="1"/>
        <pt x="1402" y="493" on="1"/>
        <pt x="1477" y="159" on="1"/>
        <pt x="1834" y="1554" on="1"/>
        <pt x="2031" y="1554" on="1"/>
        <pt x="1735" y="481" on="1"/>
        <pt x="1594" y="0" on="1"/>
        <pt x="1360" y="0" on="1"/>
        <pt x="1095" y="1035" on="1"/>
        <pt x="1029" y="1352" on="1"/>
        <pt x="1020" y="1352" on="1"/>
        <pt x="952" y="1035" on="1"/>
        <pt x="689" y="0" on="1"/>
      </contour>
      <contour>
        <pt x="1044" y="1615" on="1"/>
        <pt x="951" y="1717" on="1"/>
        <pt x="1271" y="2020" on="1"/>
        <pt x="1384" y="1897" on="1"/>
      </contour>
    </TTGlyph>
    <TTGlyph name="Wcircumflex" xMin="17" yMin="0" xMax="2031" yMax="1940">
      <contour>
        <pt x="455" y="0" on="1"/>
        <pt x="322" y="455" on="1"/>
        <pt x="17" y="1554" on="1"/>
        <pt x="214" y="1554" on="1"/>
        <pt x="487" y="493" on="1"/>
        <pt x="570" y="159" on="1"/>
        <pt x="647" y="493" on="1"/>
        <pt x="920" y="1554" on="1"/>
        <pt x="1132" y="1554" on="1"/>
        <pt x="1402" y="493" on="1"/>
        <pt x="1477" y="159" on="1"/>
        <pt x="1834" y="1554" on="1"/>
        <pt x="2031" y="1554" on="1"/>
        <pt x="1735" y="481" on="1"/>
        <pt x="1594" y="0" on="1"/>
        <pt x="1360" y="0" on="1"/>
        <pt x="1095" y="1035" on="1"/>
        <pt x="1029" y="1352" on="1"/>
        <pt x="1020" y="1352" on="1"/>
        <pt x="952" y="1035" on="1"/>
        <pt x="689" y="0" on="1"/>
      </contour>
      <contour>
        <pt x="720" y="1615" on="1"/>
        <pt x="663" y="1728" on="1"/>
        <pt x="1026" y="1940" on="1"/>
        <pt x="1389" y="1728" on="1"/>
        <pt x="1332" y="1615" on="1"/>
        <pt x="1026" y="1776" on="1"/>
      </contour>
    </TTGlyph>
    <TTGlyph name="Wdieresis" xMin="17" yMin="0" xMax="2031" yMax="1926">
      <contour>
        <pt x="455" y="0" on="1"/>
        <pt x="322" y="455" on="1"/>
        <pt x="17" y="1554" on="1"/>
        <pt x="214" y="1554" on="1"/>
        <pt x="487" y="493" on="1"/>
        <pt x="570" y="159" on="1"/>
        <pt x="647" y="493" on="1"/>
        <pt x="920" y="1554" on="1"/>
        <pt x="1132" y="1554" on="1"/>
        <pt x="1402" y="493" on="1"/>
        <pt x="1477" y="159" on="1"/>
        <pt x="1834" y="1554" on="1"/>
        <pt x="2031" y="1554" on="1"/>
        <pt x="1735" y="481" on="1"/>
        <pt x="1594" y="0" on="1"/>
        <pt x="1360" y="0" on="1"/>
        <pt x="1095" y="1035" on="1"/>
        <pt x="1029" y="1352" on="1"/>
        <pt x="1020" y="1352" on="1"/>
        <pt x="952" y="1035" on="1"/>
        <pt x="689" y="0" on="1"/>
      </contour>
      <contour>
        <pt x="1130" y="1926" on="1"/>
        <pt x="1307" y="1926" on="1"/>
        <pt x="1307" y="1698" on="1"/>
        <pt x="1130" y="1698" on="1"/>
      </contour>
      <contour>
        <pt x="743" y="1926" on="1"/>
        <pt x="919" y="1926" on="1"/>
        <pt x="919" y="1698" on="1"/>
        <pt x="743" y="1698" on="1"/>
      </contour>
    </TTGlyph>
    <TTGlyph name="Wgrave" xMin="17" yMin="0" xMax="2031" yMax="2020">
      <contour>
        <pt x="455" y="0" on="1"/>
        <pt x="322" y="455" on="1"/>
        <pt x="17" y="1554" on="1"/>
        <pt x="214" y="1554" on="1"/>
        <pt x="487" y="493" on="1"/>
        <pt x="570" y="159" on="1"/>
        <pt x="647" y="493" on="1"/>
        <pt x="920" y="1554" on="1"/>
        <pt x="1132" y="1554" on="1"/>
        <pt x="1402" y="493" on="1"/>
        <pt x="1477" y="159" on="1"/>
        <pt x="1834" y="1554" on="1"/>
        <pt x="2031" y="1554" on="1"/>
        <pt x="1735" y="481" on="1"/>
        <pt x="1594" y="0" on="1"/>
        <pt x="1360" y="0" on="1"/>
        <pt x="1095" y="1035" on="1"/>
        <pt x="1029" y="1352" on="1"/>
        <pt x="1020" y="1352" on="1"/>
        <pt x="952" y="1035" on="1"/>
        <pt x="689" y="0" on="1"/>
      </contour>
      <contour>
        <pt x="1044" y="1615" on="1"/>
        <pt x="704" y="1897" on="1"/>
        <pt x="817" y="2020" on="1"/>
        <pt x="1137" y="1717" on="1"/>
      </contour>
    </TTGlyph>
    <TTGlyph name="X" xMin="79" yMin="0" xMax="1283" yMax="1554">
      <contour>
        <pt x="556" y="793" on="1"/>
        <pt x="99" y="1554" on="1"/>
        <pt x="304" y="1554" on="1"/>
        <pt x="529" y="1151" on="1"/>
        <pt x="679" y="912" on="1"/>
        <pt x="830" y="1151" on="1"/>
        <pt x="1059" y="1554" on="1"/>
        <pt x="1265" y="1554" on="1"/>
        <pt x="804" y="793" on="1"/>
        <pt x="1283" y="0" on="1"/>
        <pt x="1075" y="0" on="1"/>
        <pt x="865" y="366" on="1"/>
        <pt x="679" y="678" on="1"/>
        <pt x="496" y="366" on="1"/>
        <pt x="288" y="0" on="1"/>
        <pt x="79" y="0" on="1"/>
      </contour>
    </TTGlyph>
    <TTGlyph name="Y" xMin="-20" yMin="0" xMax="1216" yMax="1554">
      <contour>
        <pt x="510" y="567" on="1"/>
        <pt x="442" y="682" on="0"/>
        <pt x="376" y="808" on="1"/>
        <pt x="51" y="1432" on="0"/>
        <pt x="-20" y="1554" on="1"/>
        <pt x="184" y="1554" on="1"/>
        <pt x="598" y="731" on="1"/>
        <pt x="1012" y="1554" on="1"/>
        <pt x="1216" y="1554" on="1"/>
        <pt x="684" y="567" on="1"/>
        <pt x="684" y="0" on="1"/>
        <pt x="510" y="0" on="1"/>
      </contour>
    </TTGlyph>
    <TTGlyph name="Yacute" xMin="-20" yMin="0" xMax="1216" yMax="2020">
      <contour>
        <pt x="510" y="567" on="1"/>
        <pt x="442" y="682" on="0"/>
        <pt x="376" y="808" on="1"/>
        <pt x="51" y="1432" on="0"/>
        <pt x="-20" y="1554" on="1"/>
        <pt x="184" y="1554" on="1"/>
        <pt x="598" y="731" on="1"/>
        <pt x="1012" y="1554" on="1"/>
        <pt x="1216" y="1554" on="1"/>
        <pt x="684" y="567" on="1"/>
        <pt x="684" y="0" on="1"/>
        <pt x="510" y="0" on="1"/>
      </contour>
      <contour>
        <pt x="618" y="1615" on="1"/>
        <pt x="525" y="1717" on="1"/>
        <pt x="845" y="2020" on="1"/>
        <pt x="958" y="1897" on="1"/>
      </contour>
    </TTGlyph>
    <TTGlyph name="Ycircumflex" xMin="-20" yMin="0" xMax="1216" yMax="1940">
      <contour>
        <pt x="510" y="567" on="1"/>
        <pt x="442" y="682" on="0"/>
        <pt x="376" y="808" on="1"/>
        <pt x="51" y="1432" on="0"/>
        <pt x="-20" y="1554" on="1"/>
        <pt x="184" y="1554" on="1"/>
        <pt x="598" y="731" on="1"/>
        <pt x="1012" y="1554" on="1"/>
        <pt x="1216" y="1554" on="1"/>
        <pt x="684" y="567" on="1"/>
        <pt x="684" y="0" on="1"/>
        <pt x="510" y="0" on="1"/>
      </contour>
      <contour>
        <pt x="294" y="1615" on="1"/>
        <pt x="237" y="1728" on="1"/>
        <pt x="600" y="1940" on="1"/>
        <pt x="963" y="1728" on="1"/>
        <pt x="906" y="1615" on="1"/>
        <pt x="600" y="1776" on="1"/>
      </contour>
    </TTGlyph>
    <TTGlyph name="Ydieresis" xMin="-20" yMin="0" xMax="1216" yMax="1926">
      <contour>
        <pt x="510" y="567" on="1"/>
        <pt x="442" y="682" on="0"/>
        <pt x="376" y="808" on="1"/>
        <pt x="51" y="1432" on="0"/>
        <pt x="-20" y="1554" on="1"/>
        <pt x="184" y="1554" on="1"/>
        <pt x="598" y="731" on="1"/>
        <pt x="1012" y="1554" on="1"/>
        <pt x="1216" y="1554" on="1"/>
        <pt x="684" y="567" on="1"/>
        <pt x="684" y="0" on="1"/>
        <pt x="510" y="0" on="1"/>
      </contour>
      <contour>
        <pt x="704" y="1926" on="1"/>
        <pt x="881" y="1926" on="1"/>
        <pt x="881" y="1698" on="1"/>
        <pt x="704" y="1698" on="1"/>
      </contour>
      <contour>
        <pt x="317" y="1926" on="1"/>
        <pt x="493" y="1926" on="1"/>
        <pt x="493" y="1698" on="1"/>
        <pt x="317" y="1698" on="1"/>
      </contour>
    </TTGlyph>
    <TTGlyph name="Ygrave" xMin="-20" yMin="0" xMax="1216" yMax="2020">
      <contour>
        <pt x="510" y="567" on="1"/>
        <pt x="442" y="682" on="0"/>
        <pt x="376" y="808" on="1"/>
        <pt x="51" y="1432" on="0"/>
        <pt x="-20" y="1554" on="1"/>
        <pt x="184" y="1554" on="1"/>
        <pt x="598" y="731" on="1"/>
        <pt x="1012" y="1554" on="1"/>
        <pt x="1216" y="1554" on="1"/>
        <pt x="684" y="567" on="1"/>
        <pt x="684" y="0" on="1"/>
        <pt x="510" y="0" on="1"/>
      </contour>
      <contour>
        <pt x="618" y="1615" on="1"/>
        <pt x="278" y="1897" on="1"/>
        <pt x="391" y="2020" on="1"/>
        <pt x="711" y="1717" on="1"/>
      </contour>
    </TTGlyph>
    <TTGlyph name="Z" xMin="61" yMin="0" xMax="1134" yMax="1554">
      <contour>
        <pt x="61" y="120" on="1"/>
        <pt x="851" y="1396" on="1"/>
        <pt x="117" y="1396" on="1"/>
        <pt x="117" y="1554" on="1"/>
        <pt x="1052" y="1554" on="1"/>
        <pt x="1079" y="1435" on="1"/>
        <pt x="286" y="157" on="1"/>
        <pt x="1134" y="157" on="1"/>
        <pt x="1123" y="0" on="1"/>
        <pt x="90" y="0" on="1"/>
      </contour>
    </TTGlyph>
    <TTGlyph name="Zacute" xMin="61" yMin="0" xMax="1134" yMax="2020">
      <contour>
        <pt x="61" y="120" on="1"/>
        <pt x="851" y="1396" on="1"/>
        <pt x="117" y="1396" on="1"/>
        <pt x="117" y="1554" on="1"/>
        <pt x="1052" y="1554" on="1"/>
        <pt x="1079" y="1435" on="1"/>
        <pt x="286" y="157" on="1"/>
        <pt x="1134" y="157" on="1"/>
        <pt x="1123" y="0" on="1"/>
        <pt x="90" y="0" on="1"/>
      </contour>
      <contour>
        <pt x="617" y="1615" on="1"/>
        <pt x="524" y="1717" on="1"/>
        <pt x="844" y="2020" on="1"/>
        <pt x="957" y="1897" on="1"/>
      </contour>
    </TTGlyph>
    <TTGlyph name="Zcaron" xMin="61" yMin="0" xMax="1134" yMax="1940">
      <contour>
        <pt x="61" y="120" on="1"/>
        <pt x="851" y="1396" on="1"/>
        <pt x="117" y="1396" on="1"/>
        <pt x="117" y="1554" on="1"/>
        <pt x="1052" y="1554" on="1"/>
        <pt x="1079" y="1435" on="1"/>
        <pt x="286" y="157" on="1"/>
        <pt x="1134" y="157" on="1"/>
        <pt x="1123" y="0" on="1"/>
        <pt x="90" y="0" on="1"/>
      </contour>
      <contour>
        <pt x="597" y="1615" on="1"/>
        <pt x="234" y="1827" on="1"/>
        <pt x="291" y="1940" on="1"/>
        <pt x="597" y="1779" on="1"/>
        <pt x="903" y="1940" on="1"/>
        <pt x="960" y="1827" on="1"/>
      </contour>
    </TTGlyph>
    <TTGlyph name="Zdotaccent" xMin="61" yMin="0" xMax="1134" yMax="2018">
      <contour>
        <pt x="61" y="120" on="1"/>
        <pt x="851" y="1396" on="1"/>
        <pt x="117" y="1396" on="1"/>
        <pt x="117" y="1554" on="1"/>
        <pt x="1052" y="1554" on="1"/>
        <pt x="1079" y="1435" on="1"/>
        <pt x="286" y="157" on="1"/>
        <pt x="1134" y="157" on="1"/>
        <pt x="1123" y="0" on="1"/>
        <pt x="90" y="0" on="1"/>
      </contour>
      <contour>
        <pt x="509" y="2018" on="1"/>
        <pt x="685" y="2018" on="1"/>
        <pt x="685" y="1782" on="1"/>
        <pt x="509" y="1782" on="1"/>
      </contour>
    </TTGlyph>
    <TTGlyph name="a" xMin="108" yMin="-42" xMax="1061" yMax="1171">
      <contour>
        <pt x="1061" y="-9" on="1"/>
        <pt x="1028" y="-20" on="0"/>
        <pt x="930" y="-20" on="0"/>
        <pt x="867" y="2" on="0"/>
        <pt x="844" y="22" on="1"/>
        <pt x="799" y="60" on="0"/>
        <pt x="786" y="123" on="1"/>
        <pt x="732" y="40" on="0"/>
        <pt x="592" y="-3" on="1"/>
        <pt x="466" y="-42" on="0"/>
        <pt x="338" y="2" on="1"/>
        <pt x="200" y="48" on="0"/>
        <pt x="139" y="171" on="1"/>
        <pt x="108" y="233" on="0"/>
        <pt x="108" y="382" on="0"/>
        <pt x="166" y="485" on="0"/>
        <pt x="214" y="518" on="1"/>
        <pt x="304" y="581" on="0"/>
        <pt x="455" y="594" on="1"/>
        <pt x="576" y="606" on="0"/>
        <pt x="768" y="611" on="1"/>
        <pt x="768" y="791" on="1"/>
        <pt x="768" y="918" on="0"/>
        <pt x="739" y="982" on="0"/>
        <pt x="719" y="998" on="1"/>
        <pt x="685" y="1024" on="0"/>
        <pt x="581" y="1024" on="1"/>
        <pt x="543" y="1023" on="1"/>
        <pt x="387" y="1015" on="0"/>
        <pt x="240" y="972" on="1"/>
        <pt x="212" y="1120" on="1"/>
        <pt x="387" y="1171" on="0"/>
        <pt x="556" y="1171" on="1"/>
        <pt x="797" y="1171" on="0"/>
        <pt x="872" y="1080" on="1"/>
        <pt x="917" y="1025" on="0"/>
        <pt x="935" y="865" on="0"/>
        <pt x="936" y="797" on="1"/>
        <pt x="936" y="226" on="1"/>
        <pt x="936" y="141" on="0"/>
        <pt x="967" y="108" on="0"/>
        <pt x="1008" y="108" on="0"/>
        <pt x="1050" y="115" on="1"/>
      </contour>
      <contour>
        <pt x="768" y="366" on="1"/>
        <pt x="768" y="437" on="0"/>
        <pt x="772" y="497" on="1"/>
        <pt x="421" y="497" on="0"/>
        <pt x="330" y="430" on="1"/>
        <pt x="279" y="394" on="0"/>
        <pt x="279" y="318" on="1"/>
        <pt x="279" y="231" on="0"/>
        <pt x="338" y="176" on="1"/>
        <pt x="395" y="123" on="0"/>
        <pt x="487" y="123" on="1"/>
        <pt x="664" y="118" on="0"/>
        <pt x="768" y="234" on="1"/>
      </contour>
    </TTGlyph>
    <TTGlyph name="aacute" xMin="108" yMin="-42" xMax="1061" yMax="1764">
      <contour>
        <pt x="1061" y="-9" on="1"/>
        <pt x="1028" y="-20" on="0"/>
        <pt x="930" y="-20" on="0"/>
        <pt x="867" y="2" on="0"/>
        <pt x="844" y="22" on="1"/>
        <pt x="799" y="60" on="0"/>
        <pt x="786" y="123" on="1"/>
        <pt x="732" y="40" on="0"/>
        <pt x="592" y="-3" on="1"/>
        <pt x="466" y="-42" on="0"/>
        <pt x="338" y="2" on="1"/>
        <pt x="200" y="48" on="0"/>
        <pt x="139" y="171" on="1"/>
        <pt x="108" y="233" on="0"/>
        <pt x="108" y="382" on="0"/>
        <pt x="166" y="485" on="0"/>
        <pt x="214" y="518" on="1"/>
        <pt x="304" y="581" on="0"/>
        <pt x="455" y="594" on="1"/>
        <pt x="576" y="606" on="0"/>
        <pt x="768" y="611" on="1"/>
        <pt x="768" y="791" on="1"/>
        <pt x="768" y="918" on="0"/>
        <pt x="739" y="982" on="0"/>
        <pt x="719" y="998" on="1"/>
        <pt x="685" y="1024" on="0"/>
        <pt x="581" y="1024" on="1"/>
        <pt x="543" y="1023" on="1"/>
        <pt x="387" y="1015" on="0"/>
        <pt x="240" y="972" on="1"/>
        <pt x="212" y="1120" on="1"/>
        <pt x="387" y="1171" on="0"/>
        <pt x="556" y="1171" on="1"/>
        <pt x="797" y="1171" on="0"/>
        <pt x="872" y="1080" on="1"/>
        <pt x="917" y="1025" on="0"/>
        <pt x="935" y="865" on="0"/>
        <pt x="936" y="797" on="1"/>
        <pt x="936" y="226" on="1"/>
        <pt x="936" y="141" on="0"/>
        <pt x="967" y="108" on="0"/>
        <pt x="1008" y="108" on="0"/>
        <pt x="1050" y="115" on="1"/>
      </contour>
      <contour>
        <pt x="768" y="366" on="1"/>
        <pt x="768" y="437" on="0"/>
        <pt x="772" y="497" on="1"/>
        <pt x="421" y="497" on="0"/>
        <pt x="330" y="430" on="1"/>
        <pt x="279" y="394" on="0"/>
        <pt x="279" y="318" on="1"/>
        <pt x="279" y="231" on="0"/>
        <pt x="338" y="176" on="1"/>
        <pt x="395" y="123" on="0"/>
        <pt x="487" y="123" on="1"/>
        <pt x="664" y="118" on="0"/>
        <pt x="768" y="234" on="1"/>
      </contour>
      <contour>
        <pt x="307" y="1398" on="1"/>
        <pt x="686" y="1764" on="1"/>
        <pt x="799" y="1641" on="1"/>
        <pt x="399" y="1296" on="1"/>
      </contour>
    </TTGlyph>
    <TTGlyph name="abreve" xMin="108" yMin="-42" xMax="1061" yMax="1590">
      <contour>
        <pt x="1061" y="-9" on="1"/>
        <pt x="1028" y="-20" on="0"/>
        <pt x="930" y="-20" on="0"/>
        <pt x="867" y="2" on="0"/>
        <pt x="844" y="22" on="1"/>
        <pt x="799" y="60" on="0"/>
        <pt x="786" y="123" on="1"/>
        <pt x="732" y="40" on="0"/>
        <pt x="592" y="-3" on="1"/>
        <pt x="466" y="-42" on="0"/>
        <pt x="338" y="2" on="1"/>
        <pt x="200" y="48" on="0"/>
        <pt x="139" y="171" on="1"/>
        <pt x="108" y="233" on="0"/>
        <pt x="108" y="382" on="0"/>
        <pt x="166" y="485" on="0"/>
        <pt x="214" y="518" on="1"/>
        <pt x="304" y="581" on="0"/>
        <pt x="455" y="594" on="1"/>
        <pt x="576" y="606" on="0"/>
        <pt x="768" y="611" on="1"/>
        <pt x="768" y="791" on="1"/>
        <pt x="768" y="918" on="0"/>
        <pt x="739" y="982" on="0"/>
        <pt x="719" y="998" on="1"/>
        <pt x="685" y="1024" on="0"/>
        <pt x="581" y="1024" on="1"/>
        <pt x="543" y="1023" on="1"/>
        <pt x="387" y="1015" on="0"/>
        <pt x="240" y="972" on="1"/>
        <pt x="212" y="1120" on="1"/>
        <pt x="387" y="1171" on="0"/>
        <pt x="556" y="1171" on="1"/>
        <pt x="797" y="1171" on="0"/>
        <pt x="872" y="1080" on="1"/>
        <pt x="917" y="1025" on="0"/>
        <pt x="935" y="865" on="0"/>
        <pt x="936" y="797" on="1"/>
        <pt x="936" y="226" on="1"/>
        <pt x="936" y="141" on="0"/>
        <pt x="967" y="108" on="0"/>
        <pt x="1008" y="108" on="0"/>
        <pt x="1050" y="115" on="1"/>
      </contour>
      <contour>
        <pt x="768" y="366" on="1"/>
        <pt x="768" y="437" on="0"/>
        <pt x="772" y="497" on="1"/>
        <pt x="421" y="497" on="0"/>
        <pt x="330" y="430" on="1"/>
        <pt x="279" y="394" on="0"/>
        <pt x="279" y="318" on="1"/>
        <pt x="279" y="231" on="0"/>
        <pt x="338" y="176" on="1"/>
        <pt x="395" y="123" on="0"/>
        <pt x="487" y="123" on="1"/>
        <pt x="664" y="118" on="0"/>
        <pt x="768" y="234" on="1"/>
      </contour>
      <contour>
        <pt x="554" y="1312" on="1"/>
        <pt x="491" y="1312" on="0"/>
        <pt x="384" y="1344" on="0"/>
        <pt x="342" y="1374" on="1"/>
        <pt x="257" y="1437" on="0"/>
        <pt x="237" y="1550" on="1"/>
        <pt x="369" y="1590" on="1"/>
        <pt x="380" y="1523" on="0"/>
        <pt x="439" y="1482" on="1"/>
        <pt x="491" y="1446" on="0"/>
        <pt x="582" y="1446" on="0"/>
        <pt x="643" y="1464" on="0"/>
        <pt x="669" y="1482" on="1"/>
        <pt x="729" y="1523" on="0"/>
        <pt x="740" y="1590" on="1"/>
        <pt x="871" y="1550" on="1"/>
        <pt x="853" y="1439" on="0"/>
        <pt x="766" y="1374" on="1"/>
        <pt x="680" y="1312" on="0"/>
      </contour>
    </TTGlyph>
    <TTGlyph name="acircumflex" xMin="108" yMin="-42" xMax="1061" yMax="1718">
      <contour>
        <pt x="1061" y="-9" on="1"/>
        <pt x="1028" y="-20" on="0"/>
        <pt x="930" y="-20" on="0"/>
        <pt x="867" y="2" on="0"/>
        <pt x="844" y="22" on="1"/>
        <pt x="799" y="60" on="0"/>
        <pt x="786" y="123" on="1"/>
        <pt x="732" y="40" on="0"/>
        <pt x="592" y="-3" on="1"/>
        <pt x="466" y="-42" on="0"/>
        <pt x="338" y="2" on="1"/>
        <pt x="200" y="48" on="0"/>
        <pt x="139" y="171" on="1"/>
        <pt x="108" y="233" on="0"/>
        <pt x="108" y="382" on="0"/>
        <pt x="166" y="485" on="0"/>
        <pt x="214" y="518" on="1"/>
        <pt x="304" y="581" on="0"/>
        <pt x="455" y="594" on="1"/>
        <pt x="576" y="606" on="0"/>
        <pt x="768" y="611" on="1"/>
        <pt x="768" y="791" on="1"/>
        <pt x="768" y="918" on="0"/>
        <pt x="739" y="982" on="0"/>
        <pt x="719" y="998" on="1"/>
        <pt x="685" y="1024" on="0"/>
        <pt x="581" y="1024" on="1"/>
        <pt x="543" y="1023" on="1"/>
        <pt x="387" y="1015" on="0"/>
        <pt x="240" y="972" on="1"/>
        <pt x="212" y="1120" on="1"/>
        <pt x="387" y="1171" on="0"/>
        <pt x="556" y="1171" on="1"/>
        <pt x="797" y="1171" on="0"/>
        <pt x="872" y="1080" on="1"/>
        <pt x="917" y="1025" on="0"/>
        <pt x="935" y="865" on="0"/>
        <pt x="936" y="797" on="1"/>
        <pt x="936" y="226" on="1"/>
        <pt x="936" y="141" on="0"/>
        <pt x="967" y="108" on="0"/>
        <pt x="1008" y="108" on="0"/>
        <pt x="1050" y="115" on="1"/>
      </contour>
      <contour>
        <pt x="768" y="366" on="1"/>
        <pt x="768" y="437" on="0"/>
        <pt x="772" y="497" on="1"/>
        <pt x="421" y="497" on="0"/>
        <pt x="330" y="430" on="1"/>
        <pt x="279" y="394" on="0"/>
        <pt x="279" y="318" on="1"/>
        <pt x="279" y="231" on="0"/>
        <pt x="338" y="176" on="1"/>
        <pt x="395" y="123" on="0"/>
        <pt x="487" y="123" on="1"/>
        <pt x="664" y="118" on="0"/>
        <pt x="768" y="234" on="1"/>
      </contour>
      <contour>
        <pt x="247" y="1296" on="1"/>
        <pt x="161" y="1405" on="1"/>
        <pt x="554" y="1718" on="1"/>
        <pt x="945" y="1405" on="1"/>
        <pt x="863" y="1298" on="1"/>
        <pt x="554" y="1535" on="1"/>
      </contour>
    </TTGlyph>
    <TTGlyph name="acute" xMin="7" yMin="1296" xMax="499" yMax="1764">
      <contour>
        <pt x="7" y="1398" on="1"/>
        <pt x="386" y="1764" on="1"/>
        <pt x="499" y="1641" on="1"/>
        <pt x="99" y="1296" on="1"/>
      </contour>
    </TTGlyph>
    <TTGlyph name="acute.cap" xMin="173" yMin="1615" xMax="606" yMax="2020">
      <contour>
        <pt x="266" y="1615" on="1"/>
        <pt x="173" y="1717" on="1"/>
        <pt x="493" y="2020" on="1"/>
        <pt x="606" y="1897" on="1"/>
      </contour>
    </TTGlyph>
    <TTGlyph name="adieresis" xMin="108" yMin="-42" xMax="1061" yMax="1585">
      <contour>
        <pt x="1061" y="-9" on="1"/>
        <pt x="1028" y="-20" on="0"/>
        <pt x="930" y="-20" on="0"/>
        <pt x="867" y="2" on="0"/>
        <pt x="844" y="22" on="1"/>
        <pt x="799" y="60" on="0"/>
        <pt x="786" y="123" on="1"/>
        <pt x="732" y="40" on="0"/>
        <pt x="592" y="-3" on="1"/>
        <pt x="466" y="-42" on="0"/>
        <pt x="338" y="2" on="1"/>
        <pt x="200" y="48" on="0"/>
        <pt x="139" y="171" on="1"/>
        <pt x="108" y="233" on="0"/>
        <pt x="108" y="382" on="0"/>
        <pt x="166" y="485" on="0"/>
        <pt x="214" y="518" on="1"/>
        <pt x="304" y="581" on="0"/>
        <pt x="455" y="594" on="1"/>
        <pt x="576" y="606" on="0"/>
        <pt x="768" y="611" on="1"/>
        <pt x="768" y="791" on="1"/>
        <pt x="768" y="918" on="0"/>
        <pt x="739" y="982" on="0"/>
        <pt x="719" y="998" on="1"/>
        <pt x="685" y="1024" on="0"/>
        <pt x="581" y="1024" on="1"/>
        <pt x="543" y="1023" on="1"/>
        <pt x="387" y="1015" on="0"/>
        <pt x="240" y="972" on="1"/>
        <pt x="212" y="1120" on="1"/>
        <pt x="387" y="1171" on="0"/>
        <pt x="556" y="1171" on="1"/>
        <pt x="797" y="1171" on="0"/>
        <pt x="872" y="1080" on="1"/>
        <pt x="917" y="1025" on="0"/>
        <pt x="935" y="865" on="0"/>
        <pt x="936" y="797" on="1"/>
        <pt x="936" y="226" on="1"/>
        <pt x="936" y="141" on="0"/>
        <pt x="967" y="108" on="0"/>
        <pt x="1008" y="108" on="0"/>
        <pt x="1050" y="115" on="1"/>
      </contour>
      <contour>
        <pt x="768" y="366" on="1"/>
        <pt x="768" y="437" on="0"/>
        <pt x="772" y="497" on="1"/>
        <pt x="421" y="497" on="0"/>
        <pt x="330" y="430" on="1"/>
        <pt x="279" y="394" on="0"/>
        <pt x="279" y="318" on="1"/>
        <pt x="279" y="231" on="0"/>
        <pt x="338" y="176" on="1"/>
        <pt x="395" y="123" on="0"/>
        <pt x="487" y="123" on="1"/>
        <pt x="664" y="118" on="0"/>
        <pt x="768" y="234" on="1"/>
      </contour>
      <contour>
        <pt x="658" y="1585" on="1"/>
        <pt x="837" y="1585" on="1"/>
        <pt x="837" y="1363" on="1"/>
        <pt x="658" y="1363" on="1"/>
      </contour>
      <contour>
        <pt x="270" y="1585" on="1"/>
        <pt x="448" y="1585" on="1"/>
        <pt x="448" y="1363" on="1"/>
        <pt x="270" y="1363" on="1"/>
      </contour>
    </TTGlyph>
    <TTGlyph name="ae" xMin="56" yMin="-21" xMax="1650" yMax="1171">
      <contour>
        <pt x="1551" y="35" on="1"/>
        <pt x="1404" y="-20" on="0"/>
        <pt x="1246" y="-20" on="1"/>
        <pt x="1049" y="-20" on="0"/>
        <pt x="910" y="85" on="1"/>
        <pt x="861" y="122" on="0"/>
        <pt x="824" y="176" on="1"/>
        <pt x="732" y="98" on="1"/>
        <pt x="640" y="24" on="0"/>
        <pt x="495" y="-19" on="0"/>
        <pt x="339" y="-21" on="0"/>
        <pt x="198" y="31" on="0"/>
        <pt x="151" y="78" on="1"/>
        <pt x="56" y="172" on="0"/>
        <pt x="58" y="320" on="1"/>
        <pt x="60" y="502" on="0"/>
        <pt x="243" y="584" on="1"/>
        <pt x="392" y="650" on="0"/>
        <pt x="669" y="650" on="1"/>
        <pt x="718" y="650" on="1"/>
        <pt x="718" y="791" on="1"/>
        <pt x="718" y="909" on="0"/>
        <pt x="619" y="1025" on="0"/>
        <pt x="504" y="1025" on="1"/>
        <pt x="346" y="1025" on="0"/>
        <pt x="160" y="954" on="1"/>
        <pt x="126" y="1095" on="1"/>
        <pt x="316" y="1171" on="0"/>
        <pt x="498" y="1171" on="1"/>
        <pt x="648" y="1171" on="0"/>
        <pt x="721" y="1128" on="1"/>
        <pt x="812" y="1076" on="0"/>
        <pt x="844" y="937" on="1"/>
        <pt x="911" y="1114" on="0"/>
        <pt x="1094" y="1158" on="1"/>
        <pt x="1147" y="1171" on="0"/>
        <pt x="1290" y="1171" on="0"/>
        <pt x="1425" y="1125" on="0"/>
        <pt x="1525" y="1042" on="0"/>
        <pt x="1592" y="925" on="0"/>
        <pt x="1612" y="854" on="1"/>
        <pt x="1650" y="726" on="0"/>
        <pt x="1650" y="534" on="1"/>
        <pt x="886" y="534" on="1"/>
        <pt x="904" y="261" on="0"/>
        <pt x="1089" y="163" on="1"/>
        <pt x="1155" y="128" on="0"/>
        <pt x="1372" y="128" on="0"/>
        <pt x="1518" y="183" on="1"/>
      </contour>
      <contour>
        <pt x="1469" y="669" on="1"/>
        <pt x="1452" y="927" on="0"/>
        <pt x="1324" y="998" on="1"/>
        <pt x="1275" y="1026" on="0"/>
        <pt x="1136" y="1027" on="0"/>
        <pt x="1029" y="971" on="0"/>
        <pt x="989" y="922" on="1"/>
        <pt x="908" y="822" on="0"/>
        <pt x="891" y="669" on="1"/>
      </contour>
      <contour>
        <pt x="643" y="523" on="1"/>
        <pt x="236" y="523" on="0"/>
        <pt x="236" y="318" on="1"/>
        <pt x="236" y="224" on="0"/>
        <pt x="340" y="125" on="0"/>
        <pt x="433" y="125" on="1"/>
        <pt x="524" y="125" on="0"/>
        <pt x="589" y="157" on="1"/>
        <pt x="679" y="201" on="0"/>
        <pt x="773" y="273" on="1"/>
        <pt x="731" y="378" on="0"/>
        <pt x="725" y="523" on="1"/>
      </contour>
    </TTGlyph>
    <TTGlyph name="aeacute" xMin="56" yMin="-21" xMax="1650" yMax="1764">
      <contour>
        <pt x="1551" y="35" on="1"/>
        <pt x="1404" y="-20" on="0"/>
        <pt x="1246" y="-20" on="1"/>
        <pt x="1049" y="-20" on="0"/>
        <pt x="910" y="85" on="1"/>
        <pt x="861" y="122" on="0"/>
        <pt x="824" y="176" on="1"/>
        <pt x="732" y="98" on="1"/>
        <pt x="640" y="24" on="0"/>
        <pt x="495" y="-19" on="0"/>
        <pt x="339" y="-21" on="0"/>
        <pt x="198" y="31" on="0"/>
        <pt x="151" y="78" on="1"/>
        <pt x="56" y="172" on="0"/>
        <pt x="58" y="320" on="1"/>
        <pt x="60" y="502" on="0"/>
        <pt x="243" y="584" on="1"/>
        <pt x="392" y="650" on="0"/>
        <pt x="669" y="650" on="1"/>
        <pt x="718" y="650" on="1"/>
        <pt x="718" y="791" on="1"/>
        <pt x="718" y="909" on="0"/>
        <pt x="619" y="1025" on="0"/>
        <pt x="504" y="1025" on="1"/>
        <pt x="346" y="1025" on="0"/>
        <pt x="160" y="954" on="1"/>
        <pt x="126" y="1095" on="1"/>
        <pt x="316" y="1171" on="0"/>
        <pt x="498" y="1171" on="1"/>
        <pt x="648" y="1171" on="0"/>
        <pt x="721" y="1128" on="1"/>
        <pt x="812" y="1076" on="0"/>
        <pt x="844" y="937" on="1"/>
        <pt x="911" y="1114" on="0"/>
        <pt x="1094" y="1158" on="1"/>
        <pt x="1147" y="1171" on="0"/>
        <pt x="1290" y="1171" on="0"/>
        <pt x="1425" y="1125" on="0"/>
        <pt x="1525" y="1042" on="0"/>
        <pt x="1592" y="925" on="0"/>
        <pt x="1612" y="854" on="1"/>
        <pt x="1650" y="726" on="0"/>
        <pt x="1650" y="534" on="1"/>
        <pt x="886" y="534" on="1"/>
        <pt x="904" y="261" on="0"/>
        <pt x="1089" y="163" on="1"/>
        <pt x="1155" y="128" on="0"/>
        <pt x="1372" y="128" on="0"/>
        <pt x="1518" y="183" on="1"/>
      </contour>
      <contour>
        <pt x="1469" y="669" on="1"/>
        <pt x="1452" y="927" on="0"/>
        <pt x="1324" y="998" on="1"/>
        <pt x="1275" y="1026" on="0"/>
        <pt x="1136" y="1027" on="0"/>
        <pt x="1029" y="971" on="0"/>
        <pt x="989" y="922" on="1"/>
        <pt x="908" y="822" on="0"/>
        <pt x="891" y="669" on="1"/>
      </contour>
      <contour>
        <pt x="643" y="523" on="1"/>
        <pt x="236" y="523" on="0"/>
        <pt x="236" y="318" on="1"/>
        <pt x="236" y="224" on="0"/>
        <pt x="340" y="125" on="0"/>
        <pt x="433" y="125" on="1"/>
        <pt x="524" y="125" on="0"/>
        <pt x="589" y="157" on="1"/>
        <pt x="679" y="201" on="0"/>
        <pt x="773" y="273" on="1"/>
        <pt x="731" y="378" on="0"/>
        <pt x="725" y="523" on="1"/>
      </contour>
      <contour>
        <pt x="607" y="1398" on="1"/>
        <pt x="986" y="1764" on="1"/>
        <pt x="1099" y="1641" on="1"/>
        <pt x="699" y="1296" on="1"/>
      </contour>
    </TTGlyph>
    <TTGlyph name="agrave" xMin="108" yMin="-42" xMax="1061" yMax="1764">
      <contour>
        <pt x="1061" y="-9" on="1"/>
        <pt x="1028" y="-20" on="0"/>
        <pt x="930" y="-20" on="0"/>
        <pt x="867" y="2" on="0"/>
        <pt x="844" y="22" on="1"/>
        <pt x="799" y="60" on="0"/>
        <pt x="786" y="123" on="1"/>
        <pt x="732" y="40" on="0"/>
        <pt x="592" y="-3" on="1"/>
        <pt x="466" y="-42" on="0"/>
        <pt x="338" y="2" on="1"/>
        <pt x="200" y="48" on="0"/>
        <pt x="139" y="171" on="1"/>
        <pt x="108" y="233" on="0"/>
        <pt x="108" y="382" on="0"/>
        <pt x="166" y="485" on="0"/>
        <pt x="214" y="518" on="1"/>
        <pt x="304" y="581" on="0"/>
        <pt x="455" y="594" on="1"/>
        <pt x="576" y="606" on="0"/>
        <pt x="768" y="611" on="1"/>
        <pt x="768" y="791" on="1"/>
        <pt x="768" y="918" on="0"/>
        <pt x="739" y="982" on="0"/>
        <pt x="719" y="998" on="1"/>
        <pt x="685" y="1024" on="0"/>
        <pt x="581" y="1024" on="1"/>
        <pt x="543" y="1023" on="1"/>
        <pt x="387" y="1015" on="0"/>
        <pt x="240" y="972" on="1"/>
        <pt x="212" y="1120" on="1"/>
        <pt x="387" y="1171" on="0"/>
        <pt x="556" y="1171" on="1"/>
        <pt x="797" y="1171" on="0"/>
        <pt x="872" y="1080" on="1"/>
        <pt x="917" y="1025" on="0"/>
        <pt x="935" y="865" on="0"/>
        <pt x="936" y="797" on="1"/>
        <pt x="936" y="226" on="1"/>
        <pt x="936" y="141" on="0"/>
        <pt x="967" y="108" on="0"/>
        <pt x="1008" y="108" on="0"/>
        <pt x="1050" y="115" on="1"/>
      </contour>
      <contour>
        <pt x="768" y="366" on="1"/>
        <pt x="768" y="437" on="0"/>
        <pt x="772" y="497" on="1"/>
        <pt x="421" y="497" on="0"/>
        <pt x="330" y="430" on="1"/>
        <pt x="279" y="394" on="0"/>
        <pt x="279" y="318" on="1"/>
        <pt x="279" y="231" on="0"/>
        <pt x="338" y="176" on="1"/>
        <pt x="395" y="123" on="0"/>
        <pt x="487" y="123" on="1"/>
        <pt x="664" y="118" on="0"/>
        <pt x="768" y="234" on="1"/>
      </contour>
      <contour>
        <pt x="707" y="1296" on="1"/>
        <pt x="307" y="1641" on="1"/>
        <pt x="420" y="1764" on="1"/>
        <pt x="799" y="1398" on="1"/>
      </contour>
    </TTGlyph>
    <TTGlyph name="amacron" xMin="108" yMin="-42" xMax="1061" yMax="1509">
      <contour>
        <pt x="1061" y="-9" on="1"/>
        <pt x="1028" y="-20" on="0"/>
        <pt x="930" y="-20" on="0"/>
        <pt x="867" y="2" on="0"/>
        <pt x="844" y="22" on="1"/>
        <pt x="799" y="60" on="0"/>
        <pt x="786" y="123" on="1"/>
        <pt x="732" y="40" on="0"/>
        <pt x="592" y="-3" on="1"/>
        <pt x="466" y="-42" on="0"/>
        <pt x="338" y="2" on="1"/>
        <pt x="200" y="48" on="0"/>
        <pt x="139" y="171" on="1"/>
        <pt x="108" y="233" on="0"/>
        <pt x="108" y="382" on="0"/>
        <pt x="166" y="485" on="0"/>
        <pt x="214" y="518" on="1"/>
        <pt x="304" y="581" on="0"/>
        <pt x="455" y="594" on="1"/>
        <pt x="576" y="606" on="0"/>
        <pt x="768" y="611" on="1"/>
        <pt x="768" y="791" on="1"/>
        <pt x="768" y="918" on="0"/>
        <pt x="739" y="982" on="0"/>
        <pt x="719" y="998" on="1"/>
        <pt x="685" y="1024" on="0"/>
        <pt x="581" y="1024" on="1"/>
        <pt x="543" y="1023" on="1"/>
        <pt x="387" y="1015" on="0"/>
        <pt x="240" y="972" on="1"/>
        <pt x="212" y="1120" on="1"/>
        <pt x="387" y="1171" on="0"/>
        <pt x="556" y="1171" on="1"/>
        <pt x="797" y="1171" on="0"/>
        <pt x="872" y="1080" on="1"/>
        <pt x="917" y="1025" on="0"/>
        <pt x="935" y="865" on="0"/>
        <pt x="936" y="797" on="1"/>
        <pt x="936" y="226" on="1"/>
        <pt x="936" y="141" on="0"/>
        <pt x="967" y="108" on="0"/>
        <pt x="1008" y="108" on="0"/>
        <pt x="1050" y="115" on="1"/>
      </contour>
      <contour>
        <pt x="768" y="366" on="1"/>
        <pt x="768" y="437" on="0"/>
        <pt x="772" y="497" on="1"/>
        <pt x="421" y="497" on="0"/>
        <pt x="330" y="430" on="1"/>
        <pt x="279" y="394" on="0"/>
        <pt x="279" y="318" on="1"/>
        <pt x="279" y="231" on="0"/>
        <pt x="338" y="176" on="1"/>
        <pt x="395" y="123" on="0"/>
        <pt x="487" y="123" on="1"/>
        <pt x="664" y="118" on="0"/>
        <pt x="768" y="234" on="1"/>
      </contour>
      <contour>
        <pt x="238" y="1509" on="1"/>
        <pt x="869" y="1509" on="1"/>
        <pt x="869" y="1372" on="1"/>
        <pt x="238" y="1372" on="1"/>
      </contour>
    </TTGlyph>
    <TTGlyph name="ampersand" xMin="163" yMin="-37" xMax="1418" yMax="1563">
      <contour>
        <pt x="1086" y="162" on="1"/>
        <pt x="908" y="-20" on="0"/>
        <pt x="645" y="-20" on="1"/>
        <pt x="458" y="-20" on="0"/>
        <pt x="320" y="96" on="1"/>
        <pt x="178" y="215" on="0"/>
        <pt x="164" y="391" on="1"/>
        <pt x="163" y="399" on="0"/>
        <pt x="163" y="415" on="0"/>
        <pt x="163" y="423" on="1"/>
        <pt x="163" y="572" on="0"/>
        <pt x="260" y="698" on="1"/>
        <pt x="348" y="813" on="0"/>
        <pt x="495" y="883" on="1"/>
        <pt x="385" y="1021" on="0"/>
        <pt x="375" y="1199" on="1"/>
        <pt x="369" y="1352" on="0"/>
        <pt x="470" y="1458" on="1"/>
        <pt x="569" y="1563" on="0"/>
        <pt x="715" y="1563" on="1"/>
        <pt x="862" y="1563" on="0"/>
        <pt x="954" y="1474" on="1"/>
        <pt x="1045" y="1388" on="0"/>
        <pt x="1045" y="1250" on="1"/>
        <pt x="1045" y="1086" on="0"/>
        <pt x="926" y="983" on="1"/>
        <pt x="907" y="967" on="0"/>
        <pt x="878" y="944" on="1"/>
        <pt x="711" y="820" on="1"/>
        <pt x="718" y="811" on="0"/>
        <pt x="731" y="791" on="0"/>
        <pt x="747" y="771" on="1"/>
        <pt x="980" y="494" on="0"/>
        <pt x="1083" y="393" on="1"/>
        <pt x="1152" y="453" on="0"/>
        <pt x="1216" y="582" on="1"/>
        <pt x="1235" y="621" on="0"/>
        <pt x="1250" y="662" on="1"/>
        <pt x="1396" y="558" on="1"/>
        <pt x="1296" y="374" on="0"/>
        <pt x="1180" y="278" on="1"/>
        <pt x="1418" y="90" on="1"/>
        <pt x="1266" y="-37" on="1"/>
      </contour>
      <contour>
        <pt x="634" y="936" on="1"/>
        <pt x="792" y="1024" on="0"/>
        <pt x="856" y="1161" on="1"/>
        <pt x="879" y="1209" on="0"/>
        <pt x="879" y="1342" on="0"/>
        <pt x="796" y="1420" on="0"/>
        <pt x="678" y="1420" on="0"/>
        <pt x="607" y="1384" on="0"/>
        <pt x="583" y="1354" on="1"/>
        <pt x="534" y="1293" on="0"/>
        <pt x="534" y="1202" on="1"/>
        <pt x="534" y="1086" on="0"/>
        <pt x="625" y="952" on="1"/>
      </contour>
      <contour>
        <pt x="467" y="181" on="0"/>
        <pt x="587" y="132" on="0"/>
        <pt x="704" y="132" on="0"/>
        <pt x="794" y="153" on="0"/>
        <pt x="836" y="171" on="1"/>
        <pt x="919" y="206" on="0"/>
        <pt x="991" y="263" on="1"/>
        <pt x="553" y="757" on="1"/>
        <pt x="470" y="727" on="0"/>
        <pt x="391" y="623" on="1"/>
        <pt x="333" y="532" on="0"/>
        <pt x="333" y="375" on="0"/>
        <pt x="381" y="264" on="0"/>
      </contour>
    </TTGlyph>
    <TTGlyph name="aogonek" xMin="108" yMin="-477" xMax="1061" yMax="1171">
      <contour>
        <pt x="850" y="17" on="1"/>
        <pt x="801" y="55" on="0"/>
        <pt x="786" y="123" on="1"/>
        <pt x="732" y="40" on="0"/>
        <pt x="592" y="-3" on="1"/>
        <pt x="466" y="-42" on="0"/>
        <pt x="338" y="2" on="1"/>
        <pt x="200" y="48" on="0"/>
        <pt x="139" y="171" on="1"/>
        <pt x="108" y="233" on="0"/>
        <pt x="108" y="382" on="0"/>
        <pt x="166" y="485" on="0"/>
        <pt x="214" y="518" on="1"/>
        <pt x="304" y="581" on="0"/>
        <pt x="455" y="594" on="1"/>
        <pt x="576" y="606" on="0"/>
        <pt x="768" y="611" on="1"/>
        <pt x="768" y="791" on="1"/>
        <pt x="768" y="918" on="0"/>
        <pt x="739" y="982" on="0"/>
        <pt x="719" y="998" on="1"/>
        <pt x="685" y="1024" on="0"/>
        <pt x="581" y="1024" on="1"/>
        <pt x="543" y="1023" on="1"/>
        <pt x="387" y="1015" on="0"/>
        <pt x="240" y="972" on="1"/>
        <pt x="212" y="1120" on="1"/>
        <pt x="387" y="1171" on="0"/>
        <pt x="556" y="1171" on="1"/>
        <pt x="797" y="1171" on="0"/>
        <pt x="872" y="1080" on="1"/>
        <pt x="917" y="1025" on="0"/>
        <pt x="935" y="865" on="0"/>
        <pt x="936" y="797" on="1"/>
        <pt x="936" y="226" on="1"/>
        <pt x="936" y="141" on="0"/>
        <pt x="967" y="108" on="0"/>
        <pt x="1008" y="108" on="0"/>
        <pt x="1050" y="115" on="1"/>
        <pt x="1061" y="-9" on="1"/>
        <pt x="1028" y="-20" on="0"/>
        <pt x="971" y="-20" on="1"/>
        <pt x="947" y="-19" on="1"/>
        <pt x="859" y="-109" on="0"/>
        <pt x="844" y="-197" on="1"/>
        <pt x="829" y="-333" on="0"/>
        <pt x="948" y="-333" on="1"/>
        <pt x="996" y="-333" on="0"/>
        <pt x="1034" y="-322" on="1"/>
        <pt x="1059" y="-440" on="1"/>
        <pt x="978" y="-477" on="0"/>
        <pt x="851" y="-477" on="0"/>
        <pt x="775" y="-451" on="0"/>
        <pt x="748" y="-426" on="1"/>
        <pt x="689" y="-373" on="0"/>
        <pt x="689" y="-280" on="1"/>
        <pt x="689" y="-206" on="0"/>
        <pt x="741" y="-113" on="1"/>
        <pt x="789" y="-27" on="0"/>
      </contour>
      <contour>
        <pt x="768" y="366" on="1"/>
        <pt x="768" y="437" on="0"/>
        <pt x="772" y="497" on="1"/>
        <pt x="421" y="497" on="0"/>
        <pt x="330" y="430" on="1"/>
        <pt x="279" y="394" on="0"/>
        <pt x="279" y="318" on="1"/>
        <pt x="279" y="231" on="0"/>
        <pt x="338" y="176" on="1"/>
        <pt x="395" y="123" on="0"/>
        <pt x="487" y="123" on="1"/>
        <pt x="664" y="118" on="0"/>
        <pt x="768" y="234" on="1"/>
      </contour>
    </TTGlyph>
    <TTGlyph name="approxequal" xMin="75" yMin="227" xMax="1121" yMax="993">
      <contour>
        <pt x="1121" y="798" on="1"/>
        <pt x="999" y="683" on="0"/>
        <pt x="820" y="683" on="1"/>
        <pt x="725" y="683" on="0"/>
        <pt x="628" y="738" on="1"/>
        <pt x="507" y="806" on="1"/>
        <pt x="373" y="886" on="0"/>
        <pt x="280" y="850" on="1"/>
        <pt x="210" y="823" on="0"/>
        <pt x="146" y="748" on="1"/>
        <pt x="75" y="869" on="1"/>
        <pt x="204" y="993" on="0"/>
        <pt x="355" y="993" on="1"/>
        <pt x="454" y="993" on="0"/>
        <pt x="564" y="931" on="1"/>
        <pt x="684" y="861" on="1"/>
        <pt x="849" y="762" on="0"/>
        <pt x="1007" y="880" on="1"/>
        <pt x="1031" y="898" on="0"/>
        <pt x="1048" y="918" on="1"/>
      </contour>
      <contour>
        <pt x="1121" y="342" on="1"/>
        <pt x="997" y="227" on="0"/>
        <pt x="820" y="227" on="1"/>
        <pt x="725" y="227" on="0"/>
        <pt x="628" y="282" on="1"/>
        <pt x="507" y="351" on="1"/>
        <pt x="368" y="430" on="0"/>
        <pt x="280" y="394" on="1"/>
        <pt x="209" y="366" on="0"/>
        <pt x="146" y="292" on="1"/>
        <pt x="75" y="413" on="1"/>
        <pt x="204" y="537" on="0"/>
        <pt x="355" y="537" on="1"/>
        <pt x="452" y="537" on="0"/>
        <pt x="564" y="474" on="1"/>
        <pt x="684" y="405" on="1"/>
        <pt x="849" y="306" on="0"/>
        <pt x="1007" y="424" on="1"/>
        <pt x="1031" y="442" on="0"/>
        <pt x="1048" y="462" on="1"/>
      </contour>
    </TTGlyph>
    <TTGlyph name="aring" xMin="108" yMin="-42" xMax="1061" yMax="1782">
      <contour>
        <pt x="1061" y="-9" on="1"/>
        <pt x="1028" y="-20" on="0"/>
        <pt x="930" y="-20" on="0"/>
        <pt x="867" y="2" on="0"/>
        <pt x="844" y="22" on="1"/>
        <pt x="799" y="60" on="0"/>
        <pt x="786" y="123" on="1"/>
        <pt x="732" y="40" on="0"/>
        <pt x="592" y="-3" on="1"/>
        <pt x="466" y="-42" on="0"/>
        <pt x="338" y="2" on="1"/>
        <pt x="200" y="48" on="0"/>
        <pt x="139" y="171" on="1"/>
        <pt x="108" y="233" on="0"/>
        <pt x="108" y="382" on="0"/>
        <pt x="166" y="485" on="0"/>
        <pt x="214" y="518" on="1"/>
        <pt x="304" y="581" on="0"/>
        <pt x="455" y="594" on="1"/>
        <pt x="576" y="606" on="0"/>
        <pt x="768" y="611" on="1"/>
        <pt x="768" y="791" on="1"/>
        <pt x="768" y="918" on="0"/>
        <pt x="739" y="982" on="0"/>
        <pt x="719" y="998" on="1"/>
        <pt x="685" y="1024" on="0"/>
        <pt x="581" y="1024" on="1"/>
        <pt x="543" y="1023" on="1"/>
        <pt x="387" y="1015" on="0"/>
        <pt x="240" y="972" on="1"/>
        <pt x="212" y="1120" on="1"/>
        <pt x="387" y="1171" on="0"/>
        <pt x="556" y="1171" on="1"/>
        <pt x="797" y="1171" on="0"/>
        <pt x="872" y="1080" on="1"/>
        <pt x="917" y="1025" on="0"/>
        <pt x="935" y="865" on="0"/>
        <pt x="936" y="797" on="1"/>
        <pt x="936" y="226" on="1"/>
        <pt x="936" y="141" on="0"/>
        <pt x="967" y="108" on="0"/>
        <pt x="1008" y="108" on="0"/>
        <pt x="1050" y="115" on="1"/>
      </contour>
      <contour>
        <pt x="768" y="366" on="1"/>
        <pt x="768" y="437" on="0"/>
        <pt x="772" y="497" on="1"/>
        <pt x="421" y="497" on="0"/>
        <pt x="330" y="430" on="1"/>
        <pt x="279" y="394" on="0"/>
        <pt x="279" y="318" on="1"/>
        <pt x="279" y="231" on="0"/>
        <pt x="338" y="176" on="1"/>
        <pt x="395" y="123" on="0"/>
        <pt x="487" y="123" on="1"/>
        <pt x="664" y="118" on="0"/>
        <pt x="768" y="234" on="1"/>
      </contour>
      <contour>
        <pt x="553" y="1327" on="1"/>
        <pt x="446" y="1327" on="0"/>
        <pt x="376" y="1386" on="1"/>
        <pt x="303" y="1447" on="0"/>
        <pt x="303" y="1553" on="1"/>
        <pt x="303" y="1661" on="0"/>
        <pt x="376" y="1723" on="1"/>
        <pt x="445" y="1782" on="0"/>
        <pt x="553" y="1782" on="1"/>
        <pt x="661" y="1782" on="0"/>
        <pt x="730" y="1723" on="1"/>
        <pt x="803" y="1661" on="0"/>
        <pt x="803" y="1553" on="1"/>
        <pt x="803" y="1447" on="0"/>
        <pt x="730" y="1386" on="1"/>
        <pt x="660" y="1327" on="0"/>
      </contour>
      <contour>
        <pt x="553" y="1420" on="1"/>
        <pt x="607" y="1420" on="0"/>
        <pt x="678" y="1492" on="0"/>
        <pt x="678" y="1553" on="1"/>
        <pt x="678" y="1614" on="0"/>
        <pt x="607" y="1687" on="0"/>
        <pt x="553" y="1687" on="1"/>
        <pt x="499" y="1687" on="0"/>
        <pt x="428" y="1614" on="0"/>
        <pt x="428" y="1553" on="1"/>
        <pt x="428" y="1492" on="0"/>
        <pt x="499" y="1420" on="0"/>
      </contour>
    </TTGlyph>
    <TTGlyph name="asciicircum" xMin="111" yMin="801" xMax="1083" yMax="1479">
      <contour>
        <pt x="111" y="886" on="1"/>
        <pt x="537" y="1479" on="1"/>
        <pt x="657" y="1479" on="1"/>
        <pt x="1083" y="886" on="1"/>
        <pt x="975" y="801" on="1"/>
        <pt x="597" y="1340" on="1"/>
        <pt x="220" y="801" on="1"/>
      </contour>
    </TTGlyph>
    <TTGlyph name="asciitilde" xMin="101" yMin="476" xMax="1263" yMax="941">
      <contour>
        <pt x="101" y="583" on="1"/>
        <pt x="154" y="729" on="0"/>
        <pt x="201" y="787" on="1"/>
        <pt x="323" y="941" on="0"/>
        <pt x="517" y="894" on="1"/>
        <pt x="594" y="875" on="0"/>
        <pt x="643" y="844" on="1"/>
        <pt x="721" y="793" on="1"/>
        <pt x="870" y="698" on="0"/>
        <pt x="990" y="698" on="0"/>
        <pt x="1072" y="801" on="0"/>
        <pt x="1107" y="914" on="1"/>
        <pt x="1263" y="870" on="1"/>
        <pt x="1204" y="717" on="0"/>
        <pt x="1161" y="662" on="1"/>
        <pt x="1011" y="476" on="0"/>
        <pt x="770" y="586" on="1"/>
        <pt x="734" y="603" on="0"/>
        <pt x="702" y="623" on="1"/>
        <pt x="643" y="662" on="1"/>
        <pt x="497" y="755" on="0"/>
        <pt x="374" y="755" on="0"/>
        <pt x="291" y="652" on="0"/>
        <pt x="256" y="539" on="1"/>
      </contour>
    </TTGlyph>
    <TTGlyph name="asterisk" xMin="182" yMin="833" xMax="1013" yMax="1685">
      <contour>
        <pt x="596" y="1358" on="1"/>
        <pt x="578" y="1358" on="0"/>
        <pt x="553" y="1349" on="1"/>
        <pt x="527" y="1518" on="1"/>
        <pt x="515" y="1566" on="0"/>
        <pt x="515" y="1621" on="1"/>
        <pt x="515" y="1685" on="1"/>
        <pt x="679" y="1685" on="1"/>
        <pt x="679" y="1656" on="1"/>
        <pt x="679" y="1573" on="0"/>
        <pt x="668" y="1518" on="1"/>
        <pt x="635" y="1349" on="1"/>
        <pt x="617" y="1358" on="0"/>
      </contour>
      <contour>
        <pt x="695" y="1270" on="1"/>
        <pt x="692" y="1305" on="0"/>
        <pt x="654" y="1340" on="1"/>
        <pt x="792" y="1444" on="1"/>
        <pt x="822" y="1469" on="0"/>
        <pt x="858" y="1489" on="1"/>
        <pt x="934" y="1532" on="1"/>
        <pt x="1013" y="1389" on="1"/>
        <pt x="995" y="1377" on="1"/>
        <pt x="932" y="1346" on="1"/>
        <pt x="892" y="1328" on="0"/>
        <pt x="853" y="1316" on="1"/>
        <pt x="856" y="1316" on="1"/>
        <pt x="703" y="1266" on="1"/>
      </contour>
      <contour>
        <pt x="538" y="1340" on="1"/>
        <pt x="500" y="1304" on="0"/>
        <pt x="496" y="1266" on="1"/>
        <pt x="335" y="1316" on="1"/>
        <pt x="318" y="1322" on="0"/>
        <pt x="300" y="1330" on="1"/>
        <pt x="249" y="1353" on="0"/>
        <pt x="230" y="1362" on="1"/>
        <pt x="200" y="1377" on="1"/>
        <pt x="184" y="1387" on="1"/>
        <pt x="258" y="1532" on="1"/>
        <pt x="343" y="1494" on="0"/>
        <pt x="401" y="1444" on="1"/>
      </contour>
      <contour>
        <pt x="657" y="1180" on="1"/>
        <pt x="690" y="1208" on="0"/>
        <pt x="699" y="1257" on="1"/>
        <pt x="856" y="1203" on="1"/>
        <pt x="853" y="1203" on="1"/>
        <pt x="891" y="1195" on="0"/>
        <pt x="921" y="1181" on="1"/>
        <pt x="995" y="1146" on="1"/>
        <pt x="1004" y="1137" on="0"/>
        <pt x="1013" y="1137" on="1"/>
        <pt x="934" y="991" on="1"/>
        <pt x="927" y="994" on="0"/>
        <pt x="910" y="1003" on="1"/>
        <pt x="872" y="1024" on="1"/>
        <pt x="819" y="1054" on="0"/>
        <pt x="792" y="1078" on="1"/>
      </contour>
      <contour>
        <pt x="182" y="1139" on="1"/>
        <pt x="200" y="1146" on="1"/>
        <pt x="295" y="1194" on="0"/>
        <pt x="335" y="1203" on="1"/>
        <pt x="489" y="1254" on="1"/>
        <pt x="496" y="1250" on="1"/>
        <pt x="500" y="1206" on="0"/>
        <pt x="536" y="1180" on="1"/>
        <pt x="401" y="1078" on="1"/>
        <pt x="362" y="1044" on="0"/>
        <pt x="267" y="994" on="0"/>
        <pt x="258" y="991" on="1"/>
      </contour>
      <contour>
        <pt x="553" y="1168" on="1"/>
        <pt x="571" y="1159" on="0"/>
        <pt x="616" y="1159" on="0"/>
        <pt x="638" y="1164" on="1"/>
        <pt x="668" y="998" on="1"/>
        <pt x="679" y="946" on="0"/>
        <pt x="679" y="894" on="1"/>
        <pt x="679" y="833" on="1"/>
        <pt x="515" y="833" on="1"/>
        <pt x="515" y="862" on="1"/>
        <pt x="515" y="952" on="0"/>
        <pt x="527" y="998" on="1"/>
      </contour>
    </TTGlyph>
    <TTGlyph name="at" xMin="159" yMin="-285" xMax="1888" yMax="1553">
      <contour>
        <pt x="1536" y="-208" on="1"/>
        <pt x="1322" y="-285" on="0"/>
        <pt x="879" y="-285" on="0"/>
        <pt x="538" y="-166" on="0"/>
        <pt x="416" y="-52" on="1"/>
        <pt x="159" y="188" on="0"/>
        <pt x="159" y="611" on="1"/>
        <pt x="159" y="1092" on="0"/>
        <pt x="412" y="1332" on="1"/>
        <pt x="645" y="1553" on="0"/>
        <pt x="1064" y="1553" on="1"/>
        <pt x="1411" y="1553" on="0"/>
        <pt x="1640" y="1353" on="1"/>
        <pt x="1888" y="1135" on="0"/>
        <pt x="1888" y="748" on="1"/>
        <pt x="1888" y="468" on="0"/>
        <pt x="1786" y="302" on="1"/>
        <pt x="1691" y="148" on="0"/>
        <pt x="1524" y="123" on="1"/>
        <pt x="1503" y="120" on="0"/>
        <pt x="1452" y="120" on="0"/>
        <pt x="1393" y="134" on="0"/>
        <pt x="1368" y="150" on="1"/>
        <pt x="1313" y="183" on="0"/>
        <pt x="1290" y="247" on="1"/>
        <pt x="1174" y="131" on="0"/>
        <pt x="1016" y="131" on="1"/>
        <pt x="980" y="131" on="0"/>
        <pt x="848" y="154" on="0"/>
        <pt x="722" y="253" on="0"/>
        <pt x="684" y="321" on="1"/>
        <pt x="613" y="450" on="0"/>
        <pt x="620" y="625" on="1"/>
        <pt x="638" y="1093" on="0"/>
        <pt x="1001" y="1093" on="1"/>
        <pt x="1141" y="1093" on="0"/>
        <pt x="1283" y="1009" on="1"/>
        <pt x="1290" y="1093" on="1"/>
        <pt x="1420" y="1073" on="1"/>
        <pt x="1413" y="1028" on="0"/>
        <pt x="1413" y="956" on="1"/>
        <pt x="1413" y="345" on="1"/>
        <pt x="1413" y="299" on="0"/>
        <pt x="1457" y="252" on="0"/>
        <pt x="1513" y="252" on="0"/>
        <pt x="1580" y="276" on="0"/>
        <pt x="1656" y="351" on="0"/>
        <pt x="1682" y="411" on="1"/>
        <pt x="1737" y="538" on="0"/>
        <pt x="1737" y="915" on="0"/>
        <pt x="1630" y="1166" on="0"/>
        <pt x="1538" y="1250" on="1"/>
        <pt x="1356" y="1416" on="0"/>
        <pt x="1062" y="1416" on="1"/>
        <pt x="511" y="1416" on="0"/>
        <pt x="361" y="976" on="1"/>
        <pt x="309" y="823" on="0"/>
        <pt x="309" y="431" on="0"/>
        <pt x="418" y="149" on="0"/>
        <pt x="519" y="52" on="1"/>
        <pt x="726" y="-148" on="0"/>
        <pt x="1086" y="-148" on="1"/>
        <pt x="1275" y="-148" on="0"/>
        <pt x="1471" y="-84" on="1"/>
      </contour>
      <contour>
        <pt x="794" y="806" on="0"/>
        <pt x="772" y="684" on="0"/>
        <pt x="768" y="546" on="0"/>
        <pt x="796" y="414" on="0"/>
        <pt x="828" y="364" on="1"/>
        <pt x="897" y="254" on="0"/>
        <pt x="1036" y="254" on="1"/>
        <pt x="1112" y="254" on="0"/>
        <pt x="1242" y="319" on="0"/>
        <pt x="1276" y="345" on="1"/>
        <pt x="1276" y="916" on="1"/>
        <pt x="1111" y="973" on="0"/>
        <pt x="935" y="964" on="0"/>
        <pt x="846" y="902" on="0"/>
      </contour>
    </TTGlyph>
    <TTGlyph name="atilde" xMin="108" yMin="-42" xMax="1061" yMax="1589">
      <contour>
        <pt x="1061" y="-9" on="1"/>
        <pt x="1028" y="-20" on="0"/>
        <pt x="930" y="-20" on="0"/>
        <pt x="867" y="2" on="0"/>
        <pt x="844" y="22" on="1"/>
        <pt x="799" y="60" on="0"/>
        <pt x="786" y="123" on="1"/>
        <pt x="732" y="40" on="0"/>
        <pt x="592" y="-3" on="1"/>
        <pt x="466" y="-42" on="0"/>
        <pt x="338" y="2" on="1"/>
        <pt x="200" y="48" on="0"/>
        <pt x="139" y="171" on="1"/>
        <pt x="108" y="233" on="0"/>
        <pt x="108" y="382" on="0"/>
        <pt x="166" y="485" on="0"/>
        <pt x="214" y="518" on="1"/>
        <pt x="304" y="581" on="0"/>
        <pt x="455" y="594" on="1"/>
        <pt x="576" y="606" on="0"/>
        <pt x="768" y="611" on="1"/>
        <pt x="768" y="791" on="1"/>
        <pt x="768" y="918" on="0"/>
        <pt x="739" y="982" on="0"/>
        <pt x="719" y="998" on="1"/>
        <pt x="685" y="1024" on="0"/>
        <pt x="581" y="1024" on="1"/>
        <pt x="543" y="1023" on="1"/>
        <pt x="387" y="1015" on="0"/>
        <pt x="240" y="972" on="1"/>
        <pt x="212" y="1120" on="1"/>
        <pt x="387" y="1171" on="0"/>
        <pt x="556" y="1171" on="1"/>
        <pt x="797" y="1171" on="0"/>
        <pt x="872" y="1080" on="1"/>
        <pt x="917" y="1025" on="0"/>
        <pt x="935" y="865" on="0"/>
        <pt x="936" y="797" on="1"/>
        <pt x="936" y="226" on="1"/>
        <pt x="936" y="141" on="0"/>
        <pt x="967" y="108" on="0"/>
        <pt x="1008" y="108" on="0"/>
        <pt x="1050" y="115" on="1"/>
      </contour>
      <contour>
        <pt x="768" y="366" on="1"/>
        <pt x="768" y="437" on="0"/>
        <pt x="772" y="497" on="1"/>
        <pt x="421" y="497" on="0"/>
        <pt x="330" y="430" on="1"/>
        <pt x="279" y="394" on="0"/>
        <pt x="279" y="318" on="1"/>
        <pt x="279" y="231" on="0"/>
        <pt x="338" y="176" on="1"/>
        <pt x="395" y="123" on="0"/>
        <pt x="487" y="123" on="1"/>
        <pt x="664" y="118" on="0"/>
        <pt x="768" y="234" on="1"/>
      </contour>
      <contour>
        <pt x="193" y="1400" on="1"/>
        <pt x="228" y="1480" on="0"/>
        <pt x="341" y="1578" on="0"/>
        <pt x="449" y="1589" on="0"/>
        <pt x="525" y="1557" on="0"/>
        <pt x="560" y="1536" on="1"/>
        <pt x="560" y="1536" on="0"/>
        <pt x="628" y="1494" on="1"/>
        <pt x="741" y="1427" on="0"/>
        <pt x="811" y="1570" on="1"/>
        <pt x="915" y="1509" on="1"/>
        <pt x="880" y="1428" on="0"/>
        <pt x="823" y="1380" on="1"/>
        <pt x="706" y="1283" on="0"/>
        <pt x="547" y="1386" on="1"/>
        <pt x="458" y="1444" on="0"/>
        <pt x="422" y="1444" on="1"/>
        <pt x="348" y="1444" on="0"/>
        <pt x="297" y="1340" on="1"/>
      </contour>
    </TTGlyph>
    <TTGlyph name="b" xMin="194" yMin="-20" xMax="1174" yMax="1634">
      <contour>
        <pt x="201" y="51" on="1"/>
        <pt x="201" y="1403" on="0"/>
        <pt x="194" y="1620" on="1"/>
        <pt x="369" y="1634" on="1"/>
        <pt x="369" y="1036" on="1"/>
        <pt x="541" y="1171" on="0"/>
        <pt x="696" y="1171" on="1"/>
        <pt x="919" y="1171" on="0"/>
        <pt x="1045" y="1019" on="1"/>
        <pt x="1174" y="863" on="0"/>
        <pt x="1170" y="581" on="1"/>
        <pt x="1166" y="221" on="0"/>
        <pt x="943" y="69" on="1"/>
        <pt x="809" y="-20" on="0"/>
        <pt x="427" y="-20" on="0"/>
      </contour>
      <contour>
        <pt x="369" y="400" on="1"/>
        <pt x="368" y="248" on="1"/>
        <pt x="367" y="203" on="0"/>
        <pt x="367" y="157" on="1"/>
        <pt x="482" y="125" on="0"/>
        <pt x="671" y="125" on="0"/>
        <pt x="798" y="154" on="0"/>
        <pt x="914" y="246" on="0"/>
        <pt x="990" y="438" on="0"/>
        <pt x="993" y="687" on="0"/>
        <pt x="955" y="852" on="0"/>
        <pt x="918" y="909" on="1"/>
        <pt x="841" y="1025" on="0"/>
        <pt x="700" y="1025" on="1"/>
        <pt x="520" y="1025" on="0"/>
        <pt x="369" y="894" on="1"/>
      </contour>
    </TTGlyph>
    <TTGlyph name="backslash" xMin="86" yMin="-113" xMax="937" yMax="1734">
      <contour>
        <pt x="226" y="1734" on="1"/>
        <pt x="86" y="1678" on="1"/>
        <pt x="797" y="-113" on="1"/>
        <pt x="937" y="-57" on="1"/>
      </contour>
    </TTGlyph>
    <TTGlyph name="bar" xMin="177" yMin="-329" xMax="334" yMax="1687">
      <contour>
        <pt x="177" y="1687" on="1"/>
        <pt x="334" y="1687" on="1"/>
        <pt x="334" y="-329" on="1"/>
        <pt x="177" y="-329" on="1"/>
      </contour>
    </TTGlyph>
    <TTGlyph name="braceleft" xMin="159" yMin="-263" xMax="694" yMax="1610">
      <contour>
        <pt x="694" y="-263" on="1"/>
        <pt x="314" y="-243" on="0"/>
        <pt x="314" y="123" on="1"/>
        <pt x="314" y="329" on="1"/>
        <pt x="314" y="504" on="0"/>
        <pt x="269" y="582" on="0"/>
        <pt x="208" y="603" on="0"/>
        <pt x="159" y="605" on="1"/>
        <pt x="159" y="742" on="1"/>
        <pt x="208" y="744" on="0"/>
        <pt x="269" y="765" on="0"/>
        <pt x="286" y="794" on="1"/>
        <pt x="314" y="843" on="0"/>
        <pt x="314" y="1018" on="1"/>
        <pt x="314" y="1224" on="1"/>
        <pt x="314" y="1500" on="0"/>
        <pt x="528" y="1578" on="1"/>
        <pt x="602" y="1605" on="0"/>
        <pt x="694" y="1610" on="1"/>
        <pt x="694" y="1477" on="1"/>
        <pt x="462" y="1453" on="0"/>
        <pt x="462" y="1224" on="1"/>
        <pt x="462" y="1018" on="1"/>
        <pt x="462" y="734" on="0"/>
        <pt x="364" y="691" on="1"/>
        <pt x="336" y="679" on="0"/>
        <pt x="309" y="673" on="1"/>
        <pt x="336" y="667" on="0"/>
        <pt x="391" y="644" on="0"/>
        <pt x="412" y="609" on="1"/>
        <pt x="462" y="528" on="0"/>
        <pt x="462" y="329" on="1"/>
        <pt x="462" y="123" on="1"/>
        <pt x="462" y="-11" on="0"/>
        <pt x="540" y="-75" on="1"/>
        <pt x="595" y="-120" on="0"/>
        <pt x="694" y="-130" on="1"/>
      </contour>
    </TTGlyph>
</ttFont>
